<?xml version="1.0" encoding="UTF-8" standalone="no"?>
<!-- Created with Inkscape (http://www.inkscape.org/) -->

<svg
   width="256mm"
   height="256mm"
   viewBox="0 0 256 256"
   version="1.1"
   id="svg1"
   inkscape:version="1.3.2 (091e20ef0f, 2023-11-25)"
   xml:space="preserve"
   sodipodi:docname="folder-brown.svg"
   xmlns:inkscape="http://www.inkscape.org/namespaces/inkscape"
   xmlns:sodipodi="http://sodipodi.sourceforge.net/DTD/sodipodi-0.dtd"
   xmlns:xlink="http://www.w3.org/1999/xlink"
   xmlns="http://www.w3.org/2000/svg"
   xmlns:svg="http://www.w3.org/2000/svg"
   xmlns:rdf="http://www.w3.org/1999/02/22-rdf-syntax-ns#"
   xmlns:cc="http://creativecommons.org/ns#"
   xmlns:dc="http://purl.org/dc/elements/1.1/"><defs
     id="defs1"><linearGradient
       id="linearGradient49"
       inkscape:collect="always"><stop
         style="stop-color:#ffffff;stop-opacity:0.87450999;"
         offset="0"
         id="stop49" /><stop
         style="stop-color:#f0ebe4;stop-opacity:0;"
         offset="1"
         id="stop50" /></linearGradient><linearGradient
       id="linearGradient48"
       inkscape:collect="always"><stop
         style="stop-color:#ffffff;stop-opacity:0;"
         offset="0"
         id="stop40" /><stop
         style="stop-color:#f5f5f5;stop-opacity:0.29803923;"
         offset="0.09657117"
         id="stop41" /><stop
         style="stop-color:#be832a;stop-opacity:0.62822878;"
         offset="0.21490034"
         id="stop42" /><stop
         style="stop-color:#f5f5f5;stop-opacity:0.29803923;"
         offset="0.32409608"
         id="stop43" /><stop
         style="stop-color:#cb892d;stop-opacity:0.627451;"
         offset="0.47451746"
         id="stop44" /><stop
         style="stop-color:#f5f5f5;stop-opacity:0.29803923;"
         offset="0.5916459"
         id="stop45" /><stop
         style="stop-color:#cb7a2d;stop-opacity:0.627451;"
         offset="0.72998756"
         id="stop46" /><stop
         style="stop-color:#f5f5f5;stop-opacity:0.29803923;"
         offset="0.82550251"
         id="stop47" /><stop
         style="stop-color:#ffffff;stop-opacity:0;"
         offset="1"
         id="stop48" /></linearGradient><linearGradient
       id="linearGradient37"
       inkscape:collect="always"><stop
         style="stop-color:#b29e7c;stop-opacity:1;"
         offset="0"
         id="stop38" /><stop
         style="stop-color:#b39468;stop-opacity:1;"
         offset="0.5172267"
         id="stop51" /><stop
         style="stop-color:#b48853;stop-opacity:1;"
         offset="1"
         id="stop39" /></linearGradient><linearGradient
       id="linearGradient35"
       inkscape:collect="always"><stop
         style="stop-color:#3e3e3e;stop-opacity:1;"
         offset="0"
         id="stop36" /><stop
         style="stop-color:#3e3e3e;stop-opacity:0;"
         offset="1"
         id="stop37" /></linearGradient><linearGradient
       id="linearGradient33"
       inkscape:collect="always"><stop
         style="stop-color:#000000;stop-opacity:0.59409595;"
         offset="0"
         id="stop34" /><stop
         style="stop-color:#212121;stop-opacity:0;"
         offset="1"
         id="stop35" /></linearGradient><linearGradient
       id="linearGradient25"
       inkscape:collect="always"><stop
         style="stop-color:#ffffff;stop-opacity:0;"
         offset="0"
         id="stop25" /><stop
         style="stop-color:#f5f5f5;stop-opacity:0.29803923;"
         offset="0.09657117"
         id="stop30" /><stop
         style="stop-color:#ffdc38;stop-opacity:0.62822878;"
         offset="0.21490034"
         id="stop31" /><stop
         style="stop-color:#f5f5f5;stop-opacity:0.29803923;"
         offset="0.32409608"
         id="stop32" /><stop
         style="stop-color:#ffdc38;stop-opacity:0.627451;"
         offset="0.45330426"
         id="stop27" /><stop
         style="stop-color:#f5f5f5;stop-opacity:0.29803923;"
         offset="0.5916459"
         id="stop33" /><stop
         style="stop-color:#ffdc38;stop-opacity:0.627451;"
         offset="0.72998756"
         id="stop28" /><stop
         style="stop-color:#f5f5f5;stop-opacity:0.29803923;"
         offset="0.875"
         id="stop29" /><stop
         style="stop-color:#ffffff;stop-opacity:0;"
         offset="1"
         id="stop26" /></linearGradient><linearGradient
       id="linearGradient14"
       inkscape:collect="always"><stop
         style="stop-color:#fffdeb;stop-opacity:1;"
         offset="0"
         id="stop15" /><stop
         style="stop-color:#fffdeb;stop-opacity:0;"
         offset="1"
         id="stop16" /></linearGradient><linearGradient
       id="linearGradient13"
       inkscape:collect="always"><stop
         style="stop-color:#846f40;stop-opacity:0.95940959;"
         offset="0"
         id="stop13" /><stop
         style="stop-color:#b1a168;stop-opacity:0.82380074;"
         offset="1"
         id="stop14" /></linearGradient><linearGradient
       id="linearGradient10"
       inkscape:collect="always"><stop
         style="stop-color:#fff7b1;stop-opacity:1;"
         offset="0"
         id="stop10" /><stop
         style="stop-color:#fff39b;stop-opacity:1;"
         offset="0.54103863"
         id="stop12" /><stop
         style="stop-color:#f6dc71;stop-opacity:1;"
         offset="1"
         id="stop11" /></linearGradient><linearGradient
       id="linearGradient8"
       inkscape:collect="always"><stop
         style="stop-color:#5a9aff;stop-opacity:1;"
         offset="0"
         id="stop8" /><stop
         style="stop-color:#a0c5ff;stop-opacity:1;"
         offset="1"
         id="stop9" /></linearGradient><linearGradient
       id="linearGradient5"
       inkscape:collect="always"><stop
         style="stop-color:#ffffff;stop-opacity:0.87269372;"
         offset="0"
         id="stop6" /><stop
         style="stop-color:#ffffff;stop-opacity:0.56365311;"
         offset="1"
         id="stop7" /></linearGradient><linearGradient
       id="linearGradient4"
       inkscape:collect="always"><stop
         style="stop-color:#f5990a;stop-opacity:1;"
         offset="0"
         id="stop4" /><stop
         style="stop-color:#d29013;stop-opacity:1;"
         offset="1"
         id="stop5" /></linearGradient><radialGradient
       inkscape:collect="always"
       xlink:href="#linearGradient4"
       id="radialGradient5"
       cx="145.38815"
       cy="55.87521"
       fx="145.38815"
       fy="55.87521"
       r="76.155112"
       gradientTransform="matrix(1.6913498,0.37855661,-0.74698988,3.3374702,-54.509784,-208.23882)"
       gradientUnits="userSpaceOnUse" /><linearGradient
       inkscape:collect="always"
       xlink:href="#linearGradient5"
       id="linearGradient7"
       x1="30.468727"
       y1="90.805328"
       x2="175.08642"
       y2="90.805328"
       gradientUnits="userSpaceOnUse" /><linearGradient
       inkscape:collect="always"
       xlink:href="#linearGradient8"
       id="linearGradient9"
       x1="173.99245"
       y1="207.73524"
       x2="173.85883"
       y2="195.03993"
       gradientUnits="userSpaceOnUse" /><radialGradient
       inkscape:collect="always"
       xlink:href="#linearGradient10"
       id="radialGradient11"
       cx="51.208298"
       cy="116.43833"
       fx="51.208298"
       fy="116.43833"
       r="25.137704"
       gradientTransform="matrix(2.7819661,0.85710709,-1.5520613,5.0376225,92.879518,-553.44375)"
       gradientUnits="userSpaceOnUse" /><radialGradient
       inkscape:collect="always"
       xlink:href="#linearGradient13"
       id="radialGradient14"
       cx="79.203331"
       cy="113.2516"
       fx="79.203331"
       fy="113.2516"
       r="25.165667"
       gradientTransform="matrix(1,0,0,4.8238867,0,-482.49881)"
       gradientUnits="userSpaceOnUse" /><radialGradient
       inkscape:collect="always"
       xlink:href="#linearGradient14"
       id="radialGradient16"
       cx="77.811203"
       cy="69.207619"
       fx="77.811203"
       fy="69.207619"
       r="22.931498"
       gradientTransform="matrix(0.29565245,-0.34685029,2.3509668,2.0039454,-109.29475,-70.164806)"
       gradientUnits="userSpaceOnUse" /><radialGradient
       inkscape:collect="always"
       xlink:href="#linearGradient14"
       id="radialGradient17"
       gradientUnits="userSpaceOnUse"
       gradientTransform="matrix(-0.45539291,-0.01824281,0.15874918,-3.9628413,97.408582,317.29523)"
       cx="62.056301"
       cy="67.202545"
       fx="62.056301"
       fy="67.202545"
       r="22.931498" /><linearGradient
       inkscape:collect="always"
       xlink:href="#linearGradient25"
       id="linearGradient26"
       x1="30.049107"
       y1="106.58928"
       x2="40.065476"
       y2="106.58928"
       gradientUnits="userSpaceOnUse" /><radialGradient
       inkscape:collect="always"
       xlink:href="#linearGradient33"
       id="radialGradient35"
       cx="71.302734"
       cy="134.04279"
       fx="71.302734"
       fy="134.04279"
       r="44.740416"
       gradientTransform="matrix(1.3689614,-0.13842503,0.37195869,3.6785038,-63.852714,-330.50635)"
       gradientUnits="userSpaceOnUse" /><radialGradient
       inkscape:collect="always"
       xlink:href="#linearGradient35"
       id="radialGradient37"
       cx="149.0685"
       cy="227.69164"
       fx="149.0685"
       fy="227.69164"
       r="62.54107"
       gradientTransform="matrix(0.22460726,0.97444938,-1.205128,0.27777786,372.41228,-2.9771212)"
       gradientUnits="userSpaceOnUse" /><radialGradient
       inkscape:collect="always"
       xlink:href="#linearGradient37"
       id="radialGradient39"
       cx="105.93539"
       cy="53.791077"
       fx="105.93539"
       fy="53.791077"
       r="32.473248"
       gradientTransform="matrix(3.0391006,1.0830789,-2.7207749,7.6344472,-32.882843,-481.72846)"
       gradientUnits="userSpaceOnUse" /><linearGradient
       inkscape:collect="always"
       xlink:href="#linearGradient48"
       id="linearGradient39"
       gradientUnits="userSpaceOnUse"
       x1="30.049107"
       y1="106.58928"
       x2="48.947914"
       y2="106.58928" /><radialGradient
       inkscape:collect="always"
       xlink:href="#linearGradient49"
       id="radialGradient50"
       cx="82.912308"
       cy="338.44162"
       fx="82.912308"
       fy="338.44162"
       r="69.185196"
       gradientTransform="matrix(-2.4450882,-0.32046138,0.05425786,-0.41398261,353.73018,187.05647)"
       gradientUnits="userSpaceOnUse" /><radialGradient
       inkscape:collect="always"
       xlink:href="#linearGradient49"
       id="radialGradient51"
       gradientUnits="userSpaceOnUse"
       gradientTransform="matrix(-0.02921864,2.5846625,-0.29766809,-0.00336498,280.39212,-189.03517)"
       cx="85.624039"
       cy="379.9938"
       fx="85.624039"
       fy="379.9938"
       r="69.185196" /></defs><sodipodi:namedview
     id="base"
     pagecolor="#ffffff"
     bordercolor="#000000"
     borderopacity="0.3"
     inkscape:pageopacity="0.0"
     inkscape:pageshadow="2"
     inkscape:zoom="0.98994949"
     inkscape:cx="505.07627"
     inkscape:cy="476.792"
     inkscape:document-units="mm"
     inkscape:showpageshadow="2"
     inkscape:pagecheckerboard="0"
     inkscape:deskcolor="#d1d1d1"
     inkscape:current-layer="svg1" /><metadata
     id="metadata1"><rdf:RDF><cc:Work
         rdf:about=""><dc:format>image/svg+xml</dc:format><dc:type
           rdf:resource="http://purl.org/dc/dcmitype/StillImage" /><cc:license
           rdf:resource="http://creativecommons.org/publicdomain/zero/1.0/" /></cc:Work><cc:License
         rdf:about="http://creativecommons.org/publicdomain/zero/1.0/"><cc:permits
           rdf:resource="http://creativecommons.org/ns#Reproduction" /><cc:permits
           rdf:resource="http://creativecommons.org/ns#Distribution" /><cc:permits
           rdf:resource="http://creativecommons.org/ns#DerivativeWorks" /></cc:License></rdf:RDF></metadata><g
     id="g7"
     style="display:inline"
     inkscape:label="back"><path
       id="rect35"
       style="display:inline;fill:url(#radialGradient37);stroke-width:2.1;stroke-linecap:round;stroke-linejoin:round;stroke-miterlimit:5"
       d="m 150.74001,63.610145 c 36.84159,23.21537 78.74965,77.782665 80.18087,128.823915 -6.22206,11.0711 -3.26787,30.92273 -24.55081,33.7788 -15.05626,5.05748 -21.6706,-6.81678 -35.31756,-1.70645 l -65.21377,-16.03618 z"
       sodipodi:nodetypes="cccccc"
       inkscape:label="shadow" /><path
       id="rect1"
       style="display:inline;fill:url(#radialGradient5);stroke-width:2.1;stroke-linecap:round;stroke-linejoin:round;stroke-miterlimit:5"
       d="M 29.666916,4.0090419 161.69806,25.256969 c 7.74675,1.216986 8.92794,6.715861 8.55263,13.229842 l 0.26727,97.152469 c -0.55304,5.05208 2.37716,7.01412 4.65428,8.08687 l 3.49744,1.73529 c 3.56046,1.52526 3.16481,3.24833 3.30746,4.94449 l -0.0747,60.44382 c 0.0429,2.76822 -0.25537,5.25212 -5.5609,5.90584 l -4.13851,-0.33069 c -2.5244,-0.0917 -2.42444,2.46384 -2.70685,4.25223 -0.77748,4.9236 -4.08071,2.96711 -6.01076,2.69338 C 118.92574,211.87818 74.349409,200.38009 29.784339,188.88788 Z"
       sodipodi:nodetypes="ccccccccccsscc" /><path
       id="rect2"
       style="display:inline;fill:url(#linearGradient7);fill-opacity:0.776132;stroke-width:2.1;stroke-linecap:round;stroke-linejoin:round;stroke-miterlimit:5"
       d="m 30.468727,6.5146931 c 0.0078,-0.8139067 0.286359,-1.3077131 1.26953,-0.968852 L 33.20824,5.7462932 161.38229,26.697033 c 5.12853,0.861825 6.20182,5.666007 6.79449,9.166509 l -0.0104,105.255608 c 0.6054,2.87774 3.31937,3.92356 5.92743,5.14694 l 0.99261,1.20346 c -3.73501,-1.37485 -7.95033,-2.32428 -8.69592,-6.3469 L 166.28505,35.742806 c -0.0548,-3.410475 -1.454,-5.227895 -5.77659,-7.791186 L 33.041196,6.9155974 C 32.196731,6.7061675 31.901547,7.124486 31.67144,7.6171799 V 171.18612 c -0.97783,8.59619 -1.095441,4.37513 -1.202713,0 z"
       sodipodi:nodetypes="cccccccccccccccc" /><path
       id="rect3"
       style="fill:#815f10;fill-opacity:0.398084;stroke-width:2.1;stroke-linecap:round;stroke-linejoin:round;stroke-miterlimit:5"
       d="m 168.91434,37.01683 c 0.26015,-1.759144 -0.278,-5.70665 -1.80499,-7.957403 -1.02369,-1.508903 -4.10186,-3.025863 -4.50964,-3.096091 C 161.18134,25.879807 31.646776,4.8854853 30.32029,4.5569276 29.975701,4.4566137 29.865564,4.7471527 29.83409,5.1443982 29.802616,5.5416438 30.581441,188.11235 30.551508,188.43887 l 135.949042,35.26907 -0.86723,0.21213 L 29.776373,188.92088 29.673812,3.9823043 C 31.13362,4.1726766 161.70652,24.983078 163.13211,25.412982 c 2.92646,1.270914 3.78299,1.508392 4.95343,3.055564 1.78734,2.36264 2.0882,4.860164 2.43241,8.548284 l -0.0334,100.39312 c -0.0298,2.34765 1.37676,4.44368 3.82796,5.86494 2.39466,1.38847 5.62334,2.67152 6.20684,3.10736 1.22039,0.91158 1.41907,2.21173 1.43614,2.76939 l -0.0481,60.80709 c 0.43344,5.70222 -2.39433,6.25184 -5.50985,6.80402 l -4.56371,-0.30503 c -1.17079,-0.005 -1.98125,1.19333 -2.02831,2.23115 l -0.46393,2.84399 c -0.58801,2.47456 -2.27727,2.59122 -3.64078,2.38858 l 1.15414,-0.35913 c 0.51373,-0.11551 0.7585,-1.4722 1.08328,-2.3435 l 0.3171,-2.71213 c -0.1478,-1.79217 0.41511,-3.2709 2.79586,-3.33301 l 4.51265,0.21939 c 5.08944,1.07327 5.23769,-2.03043 5.22116,-5.44188 l -0.29555,-60.99427 -0.15472,-1.14601 c -0.13251,-0.98145 -3.80849,-2.19879 -6.24825,-3.4077 -1.96717,-0.97474 -4.12517,-1.68542 -5.17215,-4.48846 z"
       sodipodi:nodetypes="caccsccccccaccssccccccccccccscsscc" /><g
       id="g9"><path
         id="path7"
         style="display:inline;fill:url(#linearGradient9);fill-opacity:1;stroke-width:2.1;stroke-linecap:round;stroke-linejoin:round;stroke-miterlimit:5"
         d="m 169.44888,206.59934 8.28536,2.13816 -1e-5,-12.42803 -8.55263,-2.13816 z"
         sodipodi:nodetypes="ccccc" /><path
         id="rect7"
         style="fill:#ffffff;fill-opacity:0.776132;stroke-width:2.1;stroke-linecap:round;stroke-linejoin:round;stroke-miterlimit:5"
         d="m 169.58251,153.0118 8.28536,2.13816 -0.13364,41.15951 -8.55263,-2.13816 z"
         sodipodi:nodetypes="ccccc" /></g></g><g
     id="g13"
     style="display:none"
     inkscape:label="open"
     transform="translate(0.45625763,-0.58039522)"><path
       id="rect33"
       style="fill:url(#radialGradient35);stroke-width:2.1;stroke-linecap:round;stroke-linejoin:round;stroke-miterlimit:5"
       d="M 29.482143,5.2916665 85.800594,18.520833 C 149.9458,30.95644 165.98938,15.43992 172.53017,68.909255 175.80056,95.64392 183.22653,245.59427 134.6033,249.05128 c -16.02988,1.13969 -33.62626,3.66455 -62.787825,1.9249 L 44.223214,206.75297 Z"
       sodipodi:nodetypes="ccssccc"
       inkscape:label="shadow" /><path
       id="rect9"
       style="display:inline;fill:url(#radialGradient11);stroke-width:2.1;stroke-linecap:round;stroke-linejoin:round;stroke-miterlimit:5"
       d="M 28.726189,7.3705359 C 29.586498,3.701758 32.511026,4.7684321 33.598364,5.5579529 L 73.421873,37.419643 c 5.121811,5.149643 5.301108,9.931627 5.382804,15.985706 L 78.997022,154.0253 c 0.185441,8.50806 -5.324721,2.44138 -6.047618,13.89062 l 0.211916,75.11467 c 0.130849,5.2243 -4.947961,6.43756 -8.149416,0.76405 L 29.245907,191.82292 Z"
       sodipodi:nodetypes="cccccccccc" /><path
       id="rect12"
       style="fill:url(#radialGradient14);stroke-width:2.1;stroke-linecap:round;stroke-linejoin:round;stroke-miterlimit:5"
       d="M 34.277314,6.0135643 73.165438,37.149481 c 5.741751,4.971072 5.946119,12.723216 5.724475,18.262143 l 0.153732,99.235646 c 0.08324,7.00327 -5.348699,2.99484 -6.107527,12.67103 l 0.19554,76.82485 c -0.674429,4.01022 -4.675741,4.74712 -7.274203,0.93023 L 63.934291,242.25772 29.253413,191.82349 28.713258,7.2834073 29.012173,7.4009263 29.54286,191.5544 c -0.0092,0.13121 0.01479,0.23295 0.05559,0.31973 l 34.810175,50.06358 2.462148,3.18788 c 1.466488,0.96534 4.343234,2.63382 4.949598,-0.64002 l -0.09609,-79.29214 c 0.07188,-6.62377 4.933772,-5.04986 6.159728,-10.31911 L 77.593484,51.753993 C 77.503657,45.421772 75.616797,41.035721 70.692787,36.883195 L 32.205976,7.216277 C 30.714059,5.5636865 29.789416,6.7172413 28.982037,7.3749684 L 28.714767,7.2663901 C 29.923181,3.0914807 33.04423,5.2815912 34.277314,6.0135643 Z"
       sodipodi:nodetypes="cccccccccccccccccccccccc" /><path
       id="rect14"
       style="fill:url(#radialGradient16);stroke-width:2.1;stroke-linecap:round;stroke-linejoin:round;stroke-miterlimit:5"
       d="m 30.616071,6.6145831 c -0.0513,0.042979 22.954947,18.7205499 35.463422,28.2561639 13.977344,10.65538 9.665102,14.755905 9.721424,22.227261 l 0.678149,89.959122 c -6.499374,18.68304 -8.909571,7.924 -8.285356,-24.68281 L 63.814081,57.616812 C 64.28731,50.483298 61.288037,47.542879 57.555697,42.51215 L 31.749999,10.772321 Z"
       sodipodi:nodetypes="csscccccc" /><path
       id="path16"
       style="fill:url(#radialGradient17);stroke-width:2.1;stroke-linecap:round;stroke-linejoin:round;stroke-miterlimit:5"
       d="m 30.616071,6.6145831 35.26297,28.7238859 c 8.18904,5.593348 11.455604,10.291725 10.110864,21.381563 l 0.489161,90.337098 c -6.499374,18.68304 -8.909571,7.924 -8.285356,-24.68281 L 63.814081,57.616812 C 64.28731,50.483298 61.288037,47.542879 57.555697,42.51215 L 31.749999,10.772321 Z"
       sodipodi:nodetypes="ccccccccc" /><path
       id="rect17"
       style="display:inline;fill:url(#linearGradient26);stroke-width:2.1;stroke-linecap:round;stroke-linejoin:round;stroke-miterlimit:5"
       d="M 30.049107,9.0714283 40.065476,16.252976 39.498512,204.10714 30.238095,191.25595 Z"
       sodipodi:nodetypes="ccccc" /></g><g
     id="g37"
     inkscape:label="close"
     style="display:inline"><path
       id="rect37"
       style="fill:url(#radialGradient39);stroke-width:2.1;stroke-linecap:round;stroke-linejoin:round;stroke-miterlimit:5"
       d="m 27.662399,6.414469 c 0.198044,-2.1628367 1.67821,-2.6426473 3.608138,-2.5390605 L 178.5434,13.029052 c 3.80103,0.521607 5.05699,3.476117 4.89734,9.071429 l 0.17264,98.840779 c -1.44149,18.61373 -17.29186,5.33323 -16.81994,33.69855 0.35284,21.20761 0.55576,42.37624 0.74645,63.55608 -0.24168,6.69211 -3.529,7.72726 -9.62889,5.97856 L 30.291205,193.50359 c -1.829288,-0.35139 -2.590444,-0.61205 -2.605878,-2.07135 0.193399,-61.67268 -0.02293,-123.344675 -0.02293,-185.017771 z"
       sodipodi:nodetypes="cccccsccccc" /><path
       id="path39"
       style="display:inline;fill:url(#linearGradient39);stroke-width:2.1;stroke-linecap:round;stroke-linejoin:round;stroke-miterlimit:5"
       d="M 30.994047,6.6145831 47.247024,8.1264879 46.68006,195.98065 30.238095,191.82291 Z"
       sodipodi:nodetypes="ccccc"
       transform="translate(0.45625763,-0.58039521)" /><path
       id="rect48"
       style="fill:#a08c57;fill-opacity:0.87451;stroke-width:2.1;stroke-linecap:round;stroke-linejoin:round;stroke-miterlimit:5"
       d="M 30.179034,3.8978792 177.86859,13.007753 c 4.10262,0.208309 5.31476,2.799804 5.51243,6.380568 l 0.21752,100.075359 c 0.77689,17.5759 -17.37497,9.18661 -16.79248,35.40781 l 0.75,63.82203 c -0.4408,7.0229 -4.5753,6.91182 -9.60686,5.45946 L 29.40937,193.31105 c -1.217216,-0.18614 -1.721692,-0.54748 -1.721692,-2.11501 L 27.679892,6.4980335 c 0.04418,-1.2638912 0.74091,-2.5144052 2.533286,-2.6205701 L 30.065196,4.7000202 C 28.342305,4.9443274 28.592806,5.733667 28.434503,6.4100985 L 28.143252,191.19164 c -0.0329,1.03274 0.292062,1.33152 1.269003,1.60078 l 128.681365,30.84165 c 8.70323,1.9375 8.16544,-1.59368 8.52251,-4.9048 l -0.76321,-63.74921 c -1.17801,-27.67221 16.62299,-18.43477 16.7991,-35.49804 L 182.3537,19.395831 c 0.0326,-3.042338 -0.71048,-5.173357 -4.48511,-5.2545 L 30.049105,4.7247025 Z"
       sodipodi:nodetypes="ccccccccccccccccccccccc" /><path
       id="rect49"
       style="fill:url(#radialGradient50);stroke-width:2.1;stroke-linecap:round;stroke-linejoin:round;stroke-miterlimit:5"
       d="M 40.357697,8.0180855 173.19063,16.036171 c 13.41063,5.423256 -9.5581,59.728558 -13.54229,60.011112 L 34.577348,31.579051 Z"
       sodipodi:nodetypes="ccccc" /><path
       id="path50"
       style="fill:url(#radialGradient51);fill-opacity:0.87451;stroke-width:2.1;stroke-linecap:round;stroke-linejoin:round;stroke-miterlimit:5"
       d="M 153.92537,178.32248 115.63121,35.285539 c 3.17232,-11.1597 63.74771,-16.015207 64.3372,-12.337957 l 0.65197,104.726558 c -17.56705,9.94908 -15.81279,19.17134 -15.56498,32.06449 0.28208,14.67547 -9.02432,13.24365 -11.13003,18.58385 z"
       sodipodi:nodetypes="ccccsc" /></g></svg>
