<svg xmlns="http://www.w3.org/2000/svg" viewBox="0 -0.5 41 48" shape-rendering="crispEdges">
<metadata>Made with Pixels to Svg https://codepen.io/shshaw/pen/XbxvNj</metadata>
<path stroke="#68677e" d="M18 0h1M11 2h1M3 6h1"/>
<path stroke="#67667d" d="M19 0h1"/>
<path stroke="#696a82" d="M20 0h1"/>
<path stroke="#686883" d="M21 0h1"/>
<path stroke="#676684" d="M22 0h1M27 3h1M0 20h1M0 24h1M0 25h1M0 32h1M0 33h1M0 35h1"/>
<path stroke="#686885" d="M23 0h2M0 21h1M0 22h1M0 26h1M0 28h1M0 29h1M0 30h1M0 31h1M0 34h1M0 36h1M0 37h1M0 38h1"/>
<path stroke="#686787" d="M25 0h1M29 0h1"/>
<path stroke="#666585" d="M26 0h1M30 0h1M33 2h1M5 5h1"/>
<path stroke="#676686" d="M27 0h2M31 0h1"/>
<path stroke="#666583" d="M32 0h1M25 3h1"/>
<path stroke="#676782" d="M33 0h1M35 8h1"/>
<path stroke="#66677d" d="M34 0h1"/>
<path stroke="#6a6881" d="M14 1h1"/>
<path stroke="#686682" d="M15 1h1"/>
<path stroke="#6b6781" d="M16 1h1"/>
<path stroke="#69647f" d="M17 1h1"/>
<path stroke="#82809c" d="M18 1h1"/>
<path stroke="#a7a5c3" d="M19 1h1"/>
<path stroke="#9392b2" d="M20 1h1"/>
<path stroke="#9e9cc1" d="M21 1h1"/>
<path stroke="#8482a7" d="M22 1h1"/>
<path stroke="#9e9cc3" d="M23 1h1"/>
<path stroke="#8280a7" d="M24 1h1"/>
<path stroke="#9f9cc6" d="M25 1h1M29 1h1"/>
<path stroke="#827fa9" d="M26 1h1M28 1h1"/>
<path stroke="#a09ec7" d="M27 1h1M38 17h1"/>
<path stroke="#827fab" d="M30 1h1"/>
<path stroke="#a09dc9" d="M31 1h1M38 10h1"/>
<path stroke="#807fa6" d="M32 1h1"/>
<path stroke="#a09fc1" d="M33 1h1"/>
<path stroke="#82829d" d="M34 1h1"/>
<path stroke="#67687e" d="M35 1h1"/>
<path stroke="#6a697b" d="M36 1h1M37 2h1"/>
<path stroke="#6b6982" d="M12 2h1"/>
<path stroke="#686680" d="M13 2h1"/>
<path stroke="#b4b5c9" d="M14 2h1"/>
<path stroke="#a8a8ba" d="M15 2h1"/>
<path stroke="#9791a5" d="M16 2h1"/>
<path stroke="#938da4" d="M17 2h1"/>
<path stroke="#49475f" d="M18 2h1M8 13h1"/>
<path stroke="#464760" d="M19 2h1"/>
<path stroke="#4a4969" d="M20 2h1"/>
<path stroke="#323156" d="M21 2h1M6 10h2M7 11h1M40 33h1"/>
<path stroke="#353456" d="M22 2h1M28 2h1M11 7h1"/>
<path stroke="#363356" d="M23 2h1M40 35h1"/>
<path stroke="#353358" d="M24 2h1"/>
<path stroke="#323158" d="M25 2h1M13 5h1M40 31h1"/>
<path stroke="#33345a" d="M26 2h1M9 6h1M5 7h2"/>
<path stroke="#343257" d="M27 2h1M11 6h1M40 11h1M40 12h1M40 13h1M40 14h1M40 15h1M40 20h1M40 21h1M40 22h1M40 23h1M40 24h1M40 25h1M40 32h1"/>
<path stroke="#676389" d="M29 2h1"/>
<path stroke="#666391" d="M30 2h1"/>
<path stroke="#686593" d="M31 2h1"/>
<path stroke="#66648b" d="M32 2h1"/>
<path stroke="#808198" d="M34 2h1"/>
<path stroke="#9091a3" d="M35 2h1"/>
<path stroke="#b4b3c6" d="M36 2h1"/>
<path stroke="#67667b" d="M38 2h1"/>
<path stroke="#666779" d="M8 3h1"/>
<path stroke="#64657e" d="M9 3h1"/>
<path stroke="#676581" d="M10 3h1"/>
<path stroke="#b5b2d3" d="M11 3h1"/>
<path stroke="#9390b3" d="M12 3h1"/>
<path stroke="#827fa0" d="M13 3h1"/>
<path stroke="#68697f" d="M14 3h1"/>
<path stroke="#49485b" d="M15 3h1"/>
<path stroke="#443e55" d="M16 3h1"/>
<path stroke="#373148" d="M17 3h1"/>
<path stroke="#34324a" d="M18 3h1"/>
<path stroke="#373850" d="M19 3h1"/>
<path stroke="#313151" d="M20 3h1M8 12h1"/>
<path stroke="#343353" d="M21 3h1M15 5h1M12 6h1"/>
<path stroke="#615f7b" d="M22 3h1M21 4h1"/>
<path stroke="#34304d" d="M23 3h1"/>
<path stroke="#605e7c" d="M24 3h1"/>
<path stroke="#80809e" d="M26 3h1M28 3h1"/>
<path stroke="#817e9f" d="M29 3h1"/>
<path stroke="#7b779f" d="M30 3h1"/>
<path stroke="#9f9dc4" d="M31 3h1"/>
<path stroke="#807fa2" d="M32 3h1"/>
<path stroke="#9f9fba" d="M33 3h1M28 4h1"/>
<path stroke="#7f8195" d="M34 3h1"/>
<path stroke="#696b7c" d="M35 3h1"/>
<path stroke="#828292" d="M36 3h1"/>
<path stroke="#9190a3" d="M37 3h1"/>
<path stroke="#b6b5ca" d="M38 3h1"/>
<path stroke="#68687a" d="M39 3h1M24 4h1"/>
<path stroke="#67687c" d="M6 4h1"/>
<path stroke="#666a7b" d="M7 4h1"/>
<path stroke="#c1c6d2" d="M8 4h1"/>
<path stroke="#a7a9b8" d="M9 4h1"/>
<path stroke="#9192a8" d="M10 4h1"/>
<path stroke="#706f90" d="M11 4h1"/>
<path stroke="#312f57" d="M12 4h1"/>
<path stroke="#32305a" d="M13 4h1"/>
<path stroke="#323154" d="M14 4h1"/>
<path stroke="#363354" d="M15 4h1"/>
<path stroke="#373251" d="M16 4h1"/>
<path stroke="#45435f" d="M17 4h1"/>
<path stroke="#363651" d="M18 4h1"/>
<path stroke="#60607b" d="M19 4h1"/>
<path stroke="#343351" d="M20 4h1M19 5h1"/>
<path stroke="#3b3547" d="M22 4h1"/>
<path stroke="#858090" d="M23 4h1"/>
<path stroke="#828194" d="M25 4h1M39 5h1"/>
<path stroke="#767384" d="M26 4h1"/>
<path stroke="#817e91" d="M27 4h1"/>
<path stroke="#9393b0" d="M29 4h1"/>
<path stroke="#a1a0b9" d="M30 4h1"/>
<path stroke="#b4b3ca" d="M31 4h1M33 4h1"/>
<path stroke="#a09fb6" d="M32 4h1"/>
<path stroke="#a1a0b7" d="M34 4h1M26 8h1"/>
<path stroke="#b4b3c8" d="M35 4h1M36 11h1"/>
<path stroke="#828290" d="M36 4h1"/>
<path stroke="#82828e" d="M37 4h1"/>
<path stroke="#cdcdda" d="M38 4h1"/>
<path stroke="#363644" d="M39 4h1"/>
<path stroke="#67657f" d="M4 5h1M28 11h1"/>
<path stroke="#c2c4e3" d="M6 5h1"/>
<path stroke="#c8cbe5" d="M7 5h1"/>
<path stroke="#474b5e" d="M8 5h1"/>
<path stroke="#33374a" d="M9 5h1"/>
<path stroke="#353550" d="M10 5h1"/>
<path stroke="#313053" d="M11 5h1"/>
<path stroke="#49476e" d="M12 5h1"/>
<path stroke="#454466" d="M14 5h1"/>
<path stroke="#63607e" d="M16 5h1"/>
<path stroke="#33304f" d="M17 5h1"/>
<path stroke="#60607d" d="M18 5h1"/>
<path stroke="#615f7d" d="M20 5h1"/>
<path stroke="#6b677f" d="M21 5h1"/>
<path stroke="#87808e" d="M22 5h1"/>
<path stroke="#78727a" d="M23 5h1"/>
<path stroke="#82808f" d="M24 5h1"/>
<path stroke="#9595a2" d="M25 5h1"/>
<path stroke="#84828e" d="M26 5h1"/>
<path stroke="#a19eaf" d="M27 5h1"/>
<path stroke="#9392ab" d="M28 5h1M20 9h1"/>
<path stroke="#a09eba" d="M29 5h1M32 6h1M36 9h1"/>
<path stroke="#aaa8bd" d="M30 5h1"/>
<path stroke="#9f9eb3" d="M31 5h1M27 11h1"/>
<path stroke="#b5b4cb" d="M32 5h1"/>
<path stroke="#9f9eb5" d="M33 5h1M35 5h1"/>
<path stroke="#b3b1cb" d="M34 5h1"/>
<path stroke="#a0a0b2" d="M36 5h1M20 10h1"/>
<path stroke="#818091" d="M37 5h1"/>
<path stroke="#cac9dc" d="M38 5h1"/>
<path stroke="#3a3748" d="M40 5h1"/>
<path stroke="#c2c1e1" d="M4 6h1"/>
<path stroke="#c8c9ed" d="M5 6h1"/>
<path stroke="#47486a" d="M6 6h1"/>
<path stroke="#313254" d="M7 6h1"/>
<path stroke="#313256" d="M8 6h1M5 9h1"/>
<path stroke="#35335a" d="M10 6h1"/>
<path stroke="#4e4e6a" d="M13 6h1"/>
<path stroke="#35364c" d="M14 6h1M13 7h1"/>
<path stroke="#616278" d="M15 6h1"/>
<path stroke="#333149" d="M16 6h1"/>
<path stroke="#636178" d="M17 6h1"/>
<path stroke="#666681" d="M18 6h1M19 7h1"/>
<path stroke="#5f5e7c" d="M19 6h1"/>
<path stroke="#6b6887" d="M20 6h1M0 40h1"/>
<path stroke="#85809b" d="M21 6h1"/>
<path stroke="#7a7381" d="M22 6h1"/>
<path stroke="#847e89" d="M23 6h1"/>
<path stroke="#a29fb0" d="M24 6h1"/>
<path stroke="#908fa2" d="M25 6h1"/>
<path stroke="#a1a1b3" d="M26 6h1M25 7h1"/>
<path stroke="#9292a4" d="M27 6h1"/>
<path stroke="#a39fb7" d="M28 6h1"/>
<path stroke="#a8a3be" d="M29 6h1"/>
<path stroke="#a19fbb" d="M30 6h1M19 9h1"/>
<path stroke="#b3b1cd" d="M31 6h1M30 7h1"/>
<path stroke="#b5b3cf" d="M33 6h1M35 6h1"/>
<path stroke="#a09eb8" d="M34 6h1"/>
<path stroke="#9e9bbc" d="M36 6h1"/>
<path stroke="#686588" d="M37 6h1"/>
<path stroke="#cecaee" d="M38 6h1"/>
<path stroke="#726f8d" d="M39 6h1"/>
<path stroke="#37324d" d="M40 6h1"/>
<path stroke="#676777" d="M2 7h1"/>
<path stroke="#c4c4dd" d="M3 7h1"/>
<path stroke="#666889" d="M4 7h1M12 12h1"/>
<path stroke="#32325b" d="M7 7h1"/>
<path stroke="#333360" d="M8 7h2"/>
<path stroke="#46446c" d="M10 7h1"/>
<path stroke="#51516a" d="M12 7h1"/>
<path stroke="#5d5e77" d="M14 7h1"/>
<path stroke="#35334d" d="M15 7h1"/>
<path stroke="#625e74" d="M16 7h1"/>
<path stroke="#68677c" d="M17 7h1"/>
<path stroke="#80819a" d="M18 7h1"/>
<path stroke="#7f7f9d" d="M20 7h1"/>
<path stroke="#a29eb8" d="M21 7h1M29 7h1"/>
<path stroke="#97939d" d="M22 7h1"/>
<path stroke="#a5a1a9" d="M23 7h1"/>
<path stroke="#9492a0" d="M24 7h1"/>
<path stroke="#a6a7bb" d="M26 7h1"/>
<path stroke="#9fa0b6" d="M27 7h1"/>
<path stroke="#b4b1c9" d="M28 7h1"/>
<path stroke="#9e9dbb" d="M31 7h1M34 8h1"/>
<path stroke="#b2afd0" d="M32 7h1"/>
<path stroke="#a09ebc" d="M33 7h1M35 7h1"/>
<path stroke="#b4b2ce" d="M34 7h1"/>
<path stroke="#666288" d="M36 7h1"/>
<path stroke="#e4dfff" d="M37 7h1"/>
<path stroke="#a5a0cb" d="M38 7h1"/>
<path stroke="#827ea6" d="M39 7h1"/>
<path stroke="#383254" d="M40 7h1"/>
<path stroke="#686972" d="M1 8h1"/>
<path stroke="#f5f8ff" d="M2 8h1"/>
<path stroke="#656a78" d="M3 8h1"/>
<path stroke="#1e203d" d="M4 8h1"/>
<path stroke="#303359" d="M5 8h1"/>
<path stroke="#2e305b" d="M6 8h1"/>
<path stroke="#30325f" d="M7 8h1"/>
<path stroke="#32325d" d="M8 8h1M6 9h1"/>
<path stroke="#323359" d="M9 8h1"/>
<path stroke="#323453" d="M10 8h1"/>
<path stroke="#4c4e69" d="M11 8h1"/>
<path stroke="#32334a" d="M12 8h1"/>
<path stroke="#5f5f7a" d="M13 8h1"/>
<path stroke="#67658e" d="M14 8h1"/>
<path stroke="#67638b" d="M15 8h1"/>
<path stroke="#6e6782" d="M16 8h1"/>
<path stroke="#847e95" d="M17 8h1"/>
<path stroke="#66647e" d="M18 8h1"/>
<path stroke="#80819c" d="M19 8h1"/>
<path stroke="#a1a1be" d="M20 8h1"/>
<path stroke="#9291a8" d="M21 8h1"/>
<path stroke="#a3a2a9" d="M22 8h1"/>
<path stroke="#969698" d="M23 8h1M28 44h1"/>
<path stroke="#9fa0a9" d="M24 8h1M23 11h1"/>
<path stroke="#a6a6b6" d="M25 8h1"/>
<path stroke="#b4b4cd" d="M27 8h1M29 8h1"/>
<path stroke="#9e9eb7" d="M28 8h1M1 41h1"/>
<path stroke="#a1a1ba" d="M30 8h1M32 9h1"/>
<path stroke="#b2b3ce" d="M31 8h1"/>
<path stroke="#a1a0c0" d="M32 8h1"/>
<path stroke="#b2b2d2" d="M33 8h1"/>
<path stroke="#dad8f6" d="M36 8h1"/>
<path stroke="#a19ec1" d="M37 8h1"/>
<path stroke="#a39ec8" d="M38 8h1"/>
<path stroke="#726d98" d="M39 8h1"/>
<path stroke="#343154" d="M40 8h1M40 34h1"/>
<path stroke="#74737a" d="M0 9h1"/>
<path stroke="#cdcdd8" d="M1 9h1"/>
<path stroke="#a5aab4" d="M2 9h1"/>
<path stroke="#1c2031" d="M3 9h1"/>
<path stroke="#32344f" d="M4 9h1"/>
<path stroke="#31315c" d="M7 9h1"/>
<path stroke="#46466d" d="M8 9h1"/>
<path stroke="#313352" d="M9 9h1"/>
<path stroke="#4d4f6a" d="M10 9h1"/>
<path stroke="#33364e" d="M11 9h1"/>
<path stroke="#5f6076" d="M12 9h1"/>
<path stroke="#6b6884" d="M13 9h1"/>
<path stroke="#6b648d" d="M14 9h1"/>
<path stroke="#6c628c" d="M15 9h1"/>
<path stroke="#867c9b" d="M16 9h1"/>
<path stroke="#79708a" d="M17 9h1"/>
<path stroke="#827e99" d="M18 9h1"/>
<path stroke="#9c9eb0" d="M21 9h1"/>
<path stroke="#92949a" d="M22 9h1"/>
<path stroke="#9ea0a2" d="M23 9h1"/>
<path stroke="#a6a9b1" d="M24 9h1"/>
<path stroke="#a0a2b1" d="M25 9h1"/>
<path stroke="#b2b0c7" d="M26 9h1"/>
<path stroke="#a0a0bb" d="M27 9h1"/>
<path stroke="#b4b3d1" d="M28 9h1"/>
<path stroke="#9ea1bb" d="M29 9h1M37 19h1"/>
<path stroke="#b1b2cb" d="M30 9h1"/>
<path stroke="#9c9db4" d="M31 9h1"/>
<path stroke="#696984" d="M33 9h1"/>
<path stroke="#84849d" d="M34 9h1"/>
<path stroke="#e0e0f9" d="M35 9h1"/>
<path stroke="#a19ebf" d="M37 9h1"/>
<path stroke="#a19dc7" d="M38 9h1"/>
<path stroke="#827daa" d="M39 9h1"/>
<path stroke="#353157" d="M40 9h1M40 10h1M40 16h1M40 17h1M40 26h1M40 29h1M40 30h1"/>
<path stroke="#6d6971" d="M0 10h1"/>
<path stroke="#faf8ff" d="M1 10h1"/>
<path stroke="#63667c" d="M2 10h1"/>
<path stroke="#343952" d="M3 10h1"/>
<path stroke="#1d2038" d="M4 10h1"/>
<path stroke="#32324e" d="M5 10h1"/>
<path stroke="#323252" d="M8 10h1"/>
<path stroke="#4a4d67" d="M9 10h1"/>
<path stroke="#323650" d="M10 10h1"/>
<path stroke="#5e637c" d="M11 10h1"/>
<path stroke="#64677f" d="M12 10h1M11 13h1"/>
<path stroke="#615d75" d="M13 10h1"/>
<path stroke="#70667b" d="M14 10h1"/>
<path stroke="#8a7d94" d="M15 10h1"/>
<path stroke="#6e667f" d="M16 10h1"/>
<path stroke="#86809b" d="M17 10h1"/>
<path stroke="#a09bb8" d="M18 10h1"/>
<path stroke="#87839d" d="M19 10h1"/>
<path stroke="#9595a0" d="M21 10h1"/>
<path stroke="#a0a1aa" d="M22 10h1"/>
<path stroke="#aaabb1" d="M23 10h1"/>
<path stroke="#a1a2ab" d="M24 10h1"/>
<path stroke="#b3b3c1" d="M25 10h1"/>
<path stroke="#a0a1b5" d="M26 10h1"/>
<path stroke="#b2b3cc" d="M27 10h1"/>
<path stroke="#9f9ebe" d="M28 10h1"/>
<path stroke="#a09fbf" d="M29 10h1M37 17h1"/>
<path stroke="#9f9fb8" d="M30 10h1"/>
<path stroke="#6a6c7e" d="M31 10h1"/>
<path stroke="#80838e" d="M32 10h1"/>
<path stroke="#e2e5ef" d="M33 10h1"/>
<path stroke="#c3c5d2" d="M34 10h1"/>
<path stroke="#9fa0b2" d="M35 10h1"/>
<path stroke="#a4a2bc" d="M36 10h1"/>
<path stroke="#a3a0c0" d="M37 10h1"/>
<path stroke="#74719f" d="M39 10h1"/>
<path stroke="#6b6a73" d="M0 11h1"/>
<path stroke="#f8f6ff" d="M1 11h1"/>
<path stroke="#6a667c" d="M2 11h1"/>
<path stroke="#231f37" d="M3 11h1"/>
<path stroke="#373349" d="M4 11h1"/>
<path stroke="#221e36" d="M5 11h1"/>
<path stroke="#4a476a" d="M6 11h1"/>
<path stroke="#454562" d="M8 11h1"/>
<path stroke="#31344c" d="M9 11h1"/>
<path stroke="#5d627b" d="M10 11h1"/>
<path stroke="#646884" d="M11 11h1M10 12h1"/>
<path stroke="#5e607d" d="M12 11h1"/>
<path stroke="#6a667e" d="M13 11h1"/>
<path stroke="#8a7f8c" d="M14 11h1"/>
<path stroke="#7c6f7a" d="M15 11h1"/>
<path stroke="#888093" d="M16 11h1"/>
<path stroke="#a29eb6" d="M17 11h1"/>
<path stroke="#847f9a" d="M18 11h1"/>
<path stroke="#a19db5" d="M19 11h1"/>
<path stroke="#9191a1" d="M20 11h1"/>
<path stroke="#a0a1ac" d="M21 11h1M2 44h1"/>
<path stroke="#a8a9b4" d="M22 11h1"/>
<path stroke="#aaaab3" d="M24 11h1"/>
<path stroke="#a1a2ad" d="M25 11h1"/>
<path stroke="#b4b4c4" d="M26 11h1M36 37h1"/>
<path stroke="#85849d" d="M29 11h1"/>
<path stroke="#cdccde" d="M30 11h1"/>
<path stroke="#d9d9e7" d="M31 11h1"/>
<path stroke="#c4c6cc" d="M32 11h1"/>
<path stroke="#a4a5a9" d="M33 11h1"/>
<path stroke="#a3a7ad" d="M34 11h1"/>
<path stroke="#b4b6c3" d="M35 11h1"/>
<path stroke="#a09dbe" d="M37 11h1"/>
<path stroke="#a1a0cc" d="M38 11h1"/>
<path stroke="#807fad" d="M39 11h1"/>
<path stroke="#686a79" d="M0 12h1"/>
<path stroke="#f9f6ff" d="M1 12h1"/>
<path stroke="#7d6e77" d="M2 12h1"/>
<path stroke="#422e3a" d="M3 12h1"/>
<path stroke="#2d1b2a" d="M4 12h1"/>
<path stroke="#3f324b" d="M5 12h1"/>
<path stroke="#373059" d="M6 12h1"/>
<path stroke="#32305c" d="M7 12h1"/>
<path stroke="#61637e" d="M9 12h1"/>
<path stroke="#5b607e" d="M11 12h1"/>
<path stroke="#6c6884" d="M13 12h1"/>
<path stroke="#706476" d="M14 12h1"/>
<path stroke="#8b808b" d="M15 12h1"/>
<path stroke="#98949c" d="M16 12h1"/>
<path stroke="#858291" d="M17 12h1M21 13h1"/>
<path stroke="#a19db3" d="M18 12h1M19 13h1"/>
<path stroke="#848098" d="M19 12h1"/>
<path stroke="#a29eb4" d="M20 12h1"/>
<path stroke="#9390a1" d="M21 12h1"/>
<path stroke="#a3a0b1" d="M22 12h1"/>
<path stroke="#a8a6b2" d="M23 12h1"/>
<path stroke="#858489" d="M24 12h1"/>
<path stroke="#727176" d="M25 12h1"/>
<path stroke="#696771" d="M26 12h1M18 14h1"/>
<path stroke="#cecdd6" d="M27 12h1"/>
<path stroke="#e7e6eb" d="M28 12h1M18 15h1"/>
<path stroke="#dcdbe0" d="M29 12h1"/>
<path stroke="#c7c6cb" d="M30 12h1"/>
<path stroke="#a4a3aa" d="M31 12h1"/>
<path stroke="#a9a5b2" d="M32 12h1"/>
<path stroke="#b8b6c2" d="M33 12h1"/>
<path stroke="#b1b5bd" d="M34 12h1"/>
<path stroke="#b6b9c3" d="M35 12h1"/>
<path stroke="#a3a2b2" d="M36 12h1"/>
<path stroke="#a2a2be" d="M37 12h1M37 14h1"/>
<path stroke="#9b9ec8" d="M38 12h1"/>
<path stroke="#70729f" d="M39 12h1"/>
<path stroke="#666a7f" d="M0 13h1"/>
<path stroke="#a4a1b6" d="M1 13h1"/>
<path stroke="#fff4f7" d="M2 13h1"/>
<path stroke="#bba5a3" d="M3 13h1"/>
<path stroke="#7f6c72" d="M4 13h1"/>
<path stroke="#2a192d" d="M5 13h1"/>
<path stroke="#3c2f51" d="M6 13h1"/>
<path stroke="#383053" d="M7 13h1"/>
<path stroke="#343549" d="M9 13h1"/>
<path stroke="#5e6177" d="M10 13h1"/>
<path stroke="#5f5f78" d="M12 13h1"/>
<path stroke="#6b687d" d="M13 13h1"/>
<path stroke="#89838e" d="M14 13h1"/>
<path stroke="#797276" d="M15 13h1"/>
<path stroke="#868485" d="M16 13h1"/>
<path stroke="#a1a0a5" d="M17 13h1"/>
<path stroke="#848192" d="M18 13h1M20 13h1"/>
<path stroke="#6c6b74" d="M22 13h1"/>
<path stroke="#a5a4ab" d="M23 13h1"/>
<path stroke="#cac7c8" d="M24 13h1"/>
<path stroke="#e8e6e7" d="M25 13h1"/>
<path stroke="#e0dce4" d="M26 13h1"/>
<path stroke="#e6e2ea" d="M27 13h1"/>
<path stroke="#c6c4c3" d="M28 13h1M6 16h1"/>
<path stroke="#a7a5a3" d="M29 13h1"/>
<path stroke="#b6b3b9" d="M30 13h1"/>
<path stroke="#c8c4ce" d="M31 13h1"/>
<path stroke="#d3d0e1" d="M32 13h1"/>
<path stroke="#c7c4d5" d="M33 13h1"/>
<path stroke="#d3d4df" d="M34 13h1"/>
<path stroke="#b3b3bf" d="M35 13h1"/>
<path stroke="#b3b3c3" d="M36 13h1"/>
<path stroke="#a0a0b9" d="M37 13h1M36 28h1"/>
<path stroke="#9ca1c8" d="M38 13h1"/>
<path stroke="#7c80ac" d="M39 13h1"/>
<path stroke="#666885" d="M0 14h1"/>
<path stroke="#9292ad" d="M1 14h1"/>
<path stroke="#aaa3a5" d="M2 14h1"/>
<path stroke="#fff7ef" d="M3 14h1"/>
<path stroke="#f1e6e3" d="M4 14h1"/>
<path stroke="#e3d5da" d="M5 14h1"/>
<path stroke="#b9a5ae" d="M6 14h1"/>
<path stroke="#7e6d77" d="M7 14h1"/>
<path stroke="#6e6a72" d="M8 14h1"/>
<path stroke="#61656a" d="M9 14h1"/>
<path stroke="#343839" d="M10 14h1"/>
<path stroke="#626767" d="M11 14h1"/>
<path stroke="#6b6c72" d="M12 14h1"/>
<path stroke="#626166" d="M13 14h1"/>
<path stroke="#6d6a6b" d="M14 14h1"/>
<path stroke="#848280" d="M15 14h1"/>
<path stroke="#6b6c67" d="M16 14h1"/>
<path stroke="#858585" d="M17 14h1"/>
<path stroke="#a5a3af" d="M19 14h1"/>
<path stroke="#cecdd2" d="M20 14h1"/>
<path stroke="#cecece" d="M21 14h1"/>
<path stroke="#e4e5e0" d="M22 14h2M23 27h1"/>
<path stroke="#dedcd8" d="M24 14h1"/>
<path stroke="#c8c5c6" d="M25 14h1M4 16h1"/>
<path stroke="#b8b4c1" d="M26 14h1M36 39h1"/>
<path stroke="#b6b2bf" d="M27 14h1"/>
<path stroke="#c9c6cb" d="M28 14h1"/>
<path stroke="#d6d2da" d="M29 14h1"/>
<path stroke="#cfc9db" d="M30 14h1"/>
<path stroke="#d4d0e6" d="M31 14h1"/>
<path stroke="#c2c2d9" d="M32 14h1"/>
<path stroke="#ced0e2" d="M33 14h1"/>
<path stroke="#b6b4c0" d="M34 14h1"/>
<path stroke="#bab5c2" d="M35 14h1"/>
<path stroke="#a4a1b4" d="M36 14h1"/>
<path stroke="#9a9dc5" d="M38 14h1"/>
<path stroke="#6e709b" d="M39 14h1"/>
<path stroke="#656788" d="M0 15h1"/>
<path stroke="#9d9fbc" d="M1 15h1M36 34h1"/>
<path stroke="#c7c7c9" d="M2 15h1M12 16h1"/>
<path stroke="#a7a69b" d="M3 15h1"/>
<path stroke="#cdc7c2" d="M4 15h1"/>
<path stroke="#ede2e1" d="M5 15h1"/>
<path stroke="#f7e5e4" d="M6 15h1"/>
<path stroke="#fff7f5" d="M7 15h1"/>
<path stroke="#fcf8f9" d="M8 15h1"/>
<path stroke="#f8faf9" d="M9 15h1"/>
<path stroke="#f5f8f3" d="M10 15h1M17 18h1"/>
<path stroke="#f9fcf6" d="M11 15h1M15 27h1"/>
<path stroke="#f9faf7" d="M12 15h1M14 15h1M8 17h1M17 20h1"/>
<path stroke="#fafafa" d="M13 15h1"/>
<path stroke="#f9faf5" d="M15 15h2"/>
<path stroke="#fafbf8" d="M17 15h1"/>
<path stroke="#e8e7ec" d="M19 15h1"/>
<path stroke="#c7c7c5" d="M20 15h1"/>
<path stroke="#c5c6bd" d="M21 15h1"/>
<path stroke="#b4b6aa" d="M22 15h1"/>
<path stroke="#b2b4aa" d="M23 15h1"/>
<path stroke="#c5c5c3" d="M24 15h1M11 16h1"/>
<path stroke="#d4d1d9" d="M25 15h1"/>
<path stroke="#d8d2e6" d="M26 15h1"/>
<path stroke="#dedbf1" d="M27 15h1"/>
<path stroke="#d6d4e2" d="M28 15h1"/>
<path stroke="#dcd9ea" d="M29 15h1"/>
<path stroke="#d6d2ea" d="M30 15h1"/>
<path stroke="#cac9e7" d="M31 15h1"/>
<path stroke="#c8d1f0" d="M32 15h1"/>
<path stroke="#bec5e2" d="M33 15h1"/>
<path stroke="#d7ceec" d="M34 15h1"/>
<path stroke="#b2a4bf" d="M35 15h1"/>
<path stroke="#b6b0c9" d="M36 15h1"/>
<path stroke="#9f9ebc" d="M37 15h1"/>
<path stroke="#9fa0c8" d="M38 15h1"/>
<path stroke="#7e7da9" d="M39 15h1"/>
<path stroke="#666887" d="M0 16h1M0 17h1"/>
<path stroke="#8e90af" d="M1 16h1M1 22h1M1 26h1M1 32h1"/>
<path stroke="#b2b6ba" d="M2 16h1"/>
<path stroke="#c4c8c2" d="M3 16h1"/>
<path stroke="#c9c4c6" d="M5 16h1"/>
<path stroke="#c9c7c5" d="M7 16h1"/>
<path stroke="#c6c6c6" d="M8 16h2"/>
<path stroke="#c8c9c6" d="M10 16h1"/>
<path stroke="#c6c6c8" d="M13 16h1M18 16h1"/>
<path stroke="#c6c8c7" d="M14 16h1"/>
<path stroke="#c7c9c6" d="M15 16h1"/>
<path stroke="#c6c8c5" d="M16 16h1"/>
<path stroke="#c4c7c6" d="M17 16h1"/>
<path stroke="#c7c7c7" d="M19 16h1"/>
<path stroke="#d5d8d0" d="M20 16h1"/>
<path stroke="#d5d9cc" d="M21 16h1"/>
<path stroke="#e3e7da" d="M22 16h1"/>
<path stroke="#e4e7e1" d="M23 16h1M25 28h1"/>
<path stroke="#e3e4ea" d="M24 16h1"/>
<path stroke="#e8e5f8" d="M25 16h1"/>
<path stroke="#ded9f9" d="M26 16h1"/>
<path stroke="#d6d3f4" d="M27 16h1"/>
<path stroke="#dcd9f5" d="M28 16h1"/>
<path stroke="#d0cee8" d="M29 16h1"/>
<path stroke="#cfcde9" d="M30 16h1"/>
<path stroke="#ccd2f2" d="M31 16h1"/>
<path stroke="#b3c7f0" d="M32 16h1"/>
<path stroke="#c4d0ff" d="M33 16h1"/>
<path stroke="#271252" d="M34 16h1"/>
<path stroke="#c2a7e0" d="M35 16h1"/>
<path stroke="#a69cc1" d="M36 16h1"/>
<path stroke="#a5a2c3" d="M37 16h1"/>
<path stroke="#9c9ac4" d="M38 16h1"/>
<path stroke="#716f9b" d="M39 16h1"/>
<path stroke="#9b9cbc" d="M1 17h1M1 35h1"/>
<path stroke="#c0c6cd" d="M2 17h1"/>
<path stroke="#ccd1cf" d="M3 17h1"/>
<path stroke="#dedee0" d="M4 17h1"/>
<path stroke="#f7f5f6" d="M5 17h1"/>
<path stroke="#f5f8f5" d="M6 17h1M20 27h1"/>
<path stroke="#f3f6f2" d="M7 17h1"/>
<path stroke="#f8f8f6" d="M9 17h1"/>
<path stroke="#f7f7f5" d="M10 17h2"/>
<path stroke="#f7f6f9" d="M12 17h1"/>
<path stroke="#f5f4f7" d="M13 17h1"/>
<path stroke="#f6f6f6" d="M14 17h1"/>
<path stroke="#f8faf7" d="M15 17h1"/>
<path stroke="#f6f9f6" d="M16 17h1"/>
<path stroke="#f4f6f6" d="M17 17h1"/>
<path stroke="#f5f5f5" d="M18 17h1"/>
<path stroke="#f4f8f7" d="M19 17h1"/>
<path stroke="#eefdf6" d="M20 17h1"/>
<path stroke="#d9eae4" d="M21 17h1"/>
<path stroke="#f3fbff" d="M22 17h1"/>
<path stroke="#dee4f8" d="M23 17h1"/>
<path stroke="#bcc3ee" d="M24 17h1"/>
<path stroke="#9da3de" d="M25 17h1"/>
<path stroke="#9ba0e7" d="M26 17h1"/>
<path stroke="#a0a2ef" d="M27 17h1"/>
<path stroke="#9fa3eb" d="M28 17h1"/>
<path stroke="#babfff" d="M29 17h1"/>
<path stroke="#c5ceff" d="M30 17h1"/>
<path stroke="#bdcdff" d="M31 17h1"/>
<path stroke="#bad8ff" d="M32 17h1"/>
<path stroke="#7384c4" d="M33 17h1"/>
<path stroke="#2a0f61" d="M34 17h1"/>
<path stroke="#bc9ae3" d="M35 17h1"/>
<path stroke="#b5aad4" d="M36 17h1"/>
<path stroke="#7f7da9" d="M39 17h1"/>
<path stroke="#696987" d="M0 18h1M0 19h1M0 23h1M0 27h1"/>
<path stroke="#8f91b0" d="M1 18h1M1 24h1M1 28h1M1 34h1"/>
<path stroke="#b4b6c5" d="M2 18h1"/>
<path stroke="#d1d5d8" d="M3 18h1"/>
<path stroke="#e3e3e3" d="M4 18h1"/>
<path stroke="#e5e6e1" d="M5 18h1"/>
<path stroke="#f6f6f2" d="M6 18h1"/>
<path stroke="#fefff8" d="M7 18h1M15 23h1M8 42h7M7 43h8M8 44h1M8 45h7"/>
<path stroke="#fffef8" d="M8 18h4M6 19h1M7 22h1M6 23h1M16 24h1M6 29h2M7 33h1M6 37h2M7 38h1M17 43h1M17 45h1"/>
<path stroke="#fdfdf9" d="M12 18h1M14 46h1"/>
<path stroke="#fefffa" d="M13 18h1M8 46h4"/>
<path stroke="#fdfef7" d="M14 18h1M7 42h1"/>
<path stroke="#f9faf3" d="M15 18h1M15 22h1"/>
<path stroke="#fafdf7" d="M16 18h1"/>
<path stroke="#f7f7f7" d="M18 18h1"/>
<path stroke="#f1fcfd" d="M19 18h1"/>
<path stroke="#caeeef" d="M20 18h1"/>
<path stroke="#d9ffff" d="M21 18h1"/>
<path stroke="#bdd0f2" d="M22 18h1"/>
<path stroke="#9ba9eb" d="M23 18h1"/>
<path stroke="#6c82ea" d="M24 18h1"/>
<path stroke="#2740c0" d="M25 18h1"/>
<path stroke="#4b5ced" d="M26 18h1"/>
<path stroke="#313ed7" d="M27 18h1"/>
<path stroke="#2e39d0" d="M28 18h1"/>
<path stroke="#182baf" d="M29 18h1"/>
<path stroke="#4360c8" d="M30 18h1"/>
<path stroke="#b1d5ff" d="M31 18h1"/>
<path stroke="#a5ccff" d="M32 18h1"/>
<path stroke="#7183ca" d="M33 18h1"/>
<path stroke="#291063" d="M34 18h1"/>
<path stroke="#c6a3ec" d="M35 18h1"/>
<path stroke="#a59cc3" d="M36 18h1"/>
<path stroke="#9fa2be" d="M37 18h1"/>
<path stroke="#9d9ec4" d="M38 18h1"/>
<path stroke="#716f99" d="M39 18h1"/>
<path stroke="#353255" d="M40 18h1"/>
<path stroke="#9d9fbe" d="M1 19h1M1 25h1M1 29h1M1 33h1M37 37h1"/>
<path stroke="#bfc1d3" d="M2 19h1M2 23h1M2 31h1"/>
<path stroke="#cdced4" d="M3 19h1M3 21h1M3 23h1M3 25h1M3 33h1M3 36h1M3 40h1M3 44h1"/>
<path stroke="#dedfdc" d="M4 19h1M4 23h1"/>
<path stroke="#f5f6ee" d="M5 19h1M5 23h1M5 31h1"/>
<path stroke="#fefdf7" d="M7 19h1M16 20h1M6 21h1M7 23h1M6 25h1M7 26h1M7 27h1M7 30h1M7 31h1M6 33h1M7 34h1M7 35h1M7 39h1M6 41h2"/>
<path stroke="#fffff6" d="M8 19h3M15 19h1M8 20h4M8 21h3M14 21h1M8 22h3M13 22h1M8 23h3M8 24h6M8 25h3M14 25h1M8 26h7M8 27h7M8 28h7M8 29h7M8 30h7M8 31h7M8 32h7M8 33h7M8 34h7M8 35h7M8 36h7M8 37h7M8 38h7M8 39h7M8 40h7M8 41h7"/>
<path stroke="#fefdf5" d="M11 19h1M11 21h1M11 22h2M14 22h1M11 23h2M11 25h2"/>
<path stroke="#fdfef5" d="M12 19h1M12 21h1"/>
<path stroke="#fffff7" d="M13 19h1M13 23h1M13 25h1"/>
<path stroke="#fffff8" d="M14 19h1M14 23h1"/>
<path stroke="#f7f8f1" d="M16 19h1M5 21h1M5 29h1M5 37h1M6 44h1"/>
<path stroke="#fcfffa" d="M17 19h1"/>
<path stroke="#f5f8f7" d="M18 19h1"/>
<path stroke="#e7fdff" d="M19 19h1M18 21h1"/>
<path stroke="#c9ffff" d="M20 19h1"/>
<path stroke="#67a7d1" d="M21 19h1"/>
<path stroke="#6986cf" d="M22 19h1"/>
<path stroke="#5a6dd6" d="M23 19h1"/>
<path stroke="#4d6ffa" d="M24 19h1"/>
<path stroke="#3d5fff" d="M25 19h1"/>
<path stroke="#213aec" d="M26 19h1"/>
<path stroke="#4559ff" d="M27 19h1"/>
<path stroke="#2839f5" d="M28 19h1"/>
<path stroke="#1e34e1" d="M29 19h1"/>
<path stroke="#0930bc" d="M30 19h1"/>
<path stroke="#3461d2" d="M31 19h1"/>
<path stroke="#a8d4ff" d="M32 19h1"/>
<path stroke="#445eb0" d="M33 19h1"/>
<path stroke="#26136c" d="M34 19h1"/>
<path stroke="#b89ae4" d="M35 19h1"/>
<path stroke="#b7afd6" d="M36 19h1"/>
<path stroke="#a0a3c9" d="M38 19h1"/>
<path stroke="#8080a9" d="M39 19h1"/>
<path stroke="#343255" d="M40 19h1"/>
<path stroke="#9092b1" d="M1 20h1M1 36h1"/>
<path stroke="#b6b8c9" d="M2 20h1M2 24h1M2 32h1"/>
<path stroke="#d2d4da" d="M3 20h1M3 22h1M3 24h1M3 32h1M3 37h1M3 43h1"/>
<path stroke="#e4e5e2" d="M4 20h1M4 24h1M4 30h1M4 32h1M4 34h1M4 36h1"/>
<path stroke="#e7e8e0" d="M5 20h1M5 24h1M5 28h1M5 36h1M5 38h1M5 40h1"/>
<path stroke="#f6f5ee" d="M6 20h1M6 24h1M6 32h1"/>
<path stroke="#fffffa" d="M7 20h1M7 24h1M6 27h1M6 35h1M6 39h1M6 43h1"/>
<path stroke="#fefff6" d="M12 20h2M13 21h1M9 44h6"/>
<path stroke="#fdfcf3" d="M14 20h1M14 24h1M16 44h1"/>
<path stroke="#f8f8ef" d="M15 20h1M15 24h1M18 44h2M21 44h1"/>
<path stroke="#f3f5f7" d="M18 20h1"/>
<path stroke="#ddffff" d="M19 20h1"/>
<path stroke="#54ade1" d="M20 20h1"/>
<path stroke="#3e98ee" d="M21 20h1"/>
<path stroke="#4e74e9" d="M22 20h1"/>
<path stroke="#566df7" d="M23 20h1"/>
<path stroke="#3761f5" d="M24 20h1"/>
<path stroke="#3562ff" d="M25 20h1"/>
<path stroke="#3c5bff" d="M26 20h1"/>
<path stroke="#223aec" d="M27 20h1"/>
<path stroke="#4857ff" d="M28 20h1"/>
<path stroke="#283af1" d="M29 20h1"/>
<path stroke="#082ccb" d="M30 20h1"/>
<path stroke="#0634bb" d="M31 20h1"/>
<path stroke="#3564d6" d="M32 20h1"/>
<path stroke="#4060c3" d="M33 20h1"/>
<path stroke="#1a1672" d="M34 20h1"/>
<path stroke="#b9a9f0" d="M35 20h1"/>
<path stroke="#a39bc2" d="M36 20h1"/>
<path stroke="#a1a1bc" d="M37 20h1"/>
<path stroke="#999ec5" d="M38 20h1"/>
<path stroke="#6c719b" d="M39 20h1"/>
<path stroke="#9ea0bf" d="M1 21h1"/>
<path stroke="#c2c3d5" d="M2 21h1M2 25h1M2 33h1M2 37h1"/>
<path stroke="#e0e0de" d="M4 21h1M4 25h1M4 27h1M4 29h1"/>
<path stroke="#fffff9" d="M7 21h1M7 25h1M7 28h1M6 31h1M7 32h1M7 36h1M7 40h1"/>
<path stroke="#fdfcf5" d="M15 21h1"/>
<path stroke="#f8f7f3" d="M16 21h1M22 27h1"/>
<path stroke="#f8ffff" d="M17 21h1"/>
<path stroke="#a7d9f3" d="M19 21h1"/>
<path stroke="#51aaee" d="M20 21h1"/>
<path stroke="#3082e3" d="M21 21h1"/>
<path stroke="#5472e1" d="M22 21h1"/>
<path stroke="#515bd0" d="M23 21h1"/>
<path stroke="#4762d3" d="M24 21h1"/>
<path stroke="#4363d5" d="M25 21h1"/>
<path stroke="#4a5fd7" d="M26 21h1"/>
<path stroke="#525ce4" d="M27 21h1"/>
<path stroke="#3537d5" d="M28 21h1"/>
<path stroke="#2e35dd" d="M29 21h1"/>
<path stroke="#1e37de" d="M30 21h1"/>
<path stroke="#0a2fcb" d="M31 21h1"/>
<path stroke="#0834bc" d="M32 21h1"/>
<path stroke="#3c5fd3" d="M33 21h1"/>
<path stroke="#222e8c" d="M34 21h1"/>
<path stroke="#a4a2e7" d="M35 21h1"/>
<path stroke="#b2aed4" d="M36 21h1"/>
<path stroke="#a19fbd" d="M37 21h1M37 22h1"/>
<path stroke="#9ea0ca" d="M38 21h1"/>
<path stroke="#7a7fab" d="M39 21h1"/>
<path stroke="#b4b5c7" d="M2 22h1M2 30h1"/>
<path stroke="#e3e3e1" d="M4 22h1M4 26h1M4 28h1"/>
<path stroke="#e5e7df" d="M5 22h1M5 26h1M5 32h1M5 34h1"/>
<path stroke="#f7f6f0" d="M6 22h1M6 28h1M6 30h1M6 36h1M6 40h1M20 45h1M22 45h1"/>
<path stroke="#fbfffc" d="M16 22h1"/>
<path stroke="#e4fdfe" d="M17 22h1"/>
<path stroke="#caffff" d="M18 22h1"/>
<path stroke="#5da8c7" d="M19 22h1"/>
<path stroke="#5295d7" d="M20 22h1"/>
<path stroke="#5983ce" d="M21 22h1"/>
<path stroke="#7575ac" d="M22 22h1"/>
<path stroke="#b2a2cb" d="M23 22h1"/>
<path stroke="#aca7c9" d="M24 22h1"/>
<path stroke="#aba8c9" d="M25 22h1"/>
<path stroke="#ada2c8" d="M26 22h1"/>
<path stroke="#af9fd8" d="M27 22h1"/>
<path stroke="#7e6dc9" d="M28 22h1"/>
<path stroke="#4135b6" d="M29 22h1"/>
<path stroke="#3338dd" d="M30 22h1"/>
<path stroke="#2234e2" d="M31 22h1"/>
<path stroke="#0a2ac5" d="M32 22h1"/>
<path stroke="#1c3ebf" d="M33 22h1"/>
<path stroke="#183191" d="M34 22h1"/>
<path stroke="#a2b0f2" d="M35 22h1"/>
<path stroke="#9ea1c6" d="M36 22h1"/>
<path stroke="#9e9ecb" d="M38 22h1"/>
<path stroke="#7170a0" d="M39 22h1M39 26h1"/>
<path stroke="#9c9ebd" d="M1 23h1M1 27h1M1 31h1"/>
<path stroke="#f5faf4" d="M16 23h1"/>
<path stroke="#e9ffff" d="M17 23h1M15 33h1M15 34h1M15 35h1M15 36h1M15 37h1M15 38h1M15 39h1M15 40h1"/>
<path stroke="#97e5f2" d="M18 23h1"/>
<path stroke="#66b8d5" d="M19 23h1"/>
<path stroke="#608ebe" d="M20 23h1"/>
<path stroke="#a7b4e2" d="M21 23h1"/>
<path stroke="#e0d4e6" d="M22 23h1"/>
<path stroke="#f3dcdd" d="M23 23h1"/>
<path stroke="#e7d8d4" d="M24 23h1"/>
<path stroke="#efe0da" d="M25 23h1"/>
<path stroke="#eed9d2" d="M26 23h1"/>
<path stroke="#ecd5e3" d="M27 23h1"/>
<path stroke="#dbcafb" d="M28 23h1"/>
<path stroke="#786dd0" d="M29 23h1"/>
<path stroke="#3734d4" d="M30 23h1"/>
<path stroke="#323bf2" d="M31 23h1"/>
<path stroke="#1d34db" d="M32 23h1"/>
<path stroke="#0e2eb8" d="M33 23h1"/>
<path stroke="#143293" d="M34 23h1"/>
<path stroke="#95aaea" d="M35 23h1"/>
<path stroke="#acb1d9" d="M36 23h1"/>
<path stroke="#9e9dbd" d="M37 23h1"/>
<path stroke="#a1a0ce" d="M38 23h1"/>
<path stroke="#7f7eae" d="M39 23h1M39 27h1"/>
<path stroke="#e6fdfc" d="M17 24h1"/>
<path stroke="#9ce3f0" d="M18 24h1"/>
<path stroke="#71b9cc" d="M19 24h1"/>
<path stroke="#cae4f7" d="M20 24h1"/>
<path stroke="#f6f4ff" d="M21 24h1"/>
<path stroke="#ede3e7" d="M22 24h1"/>
<path stroke="#f7ece9" d="M23 24h1"/>
<path stroke="#e7e3e0" d="M24 24h1M21 27h1"/>
<path stroke="#e9e5e1" d="M25 24h1"/>
<path stroke="#e5dbd5" d="M26 24h1"/>
<path stroke="#dbd1d7" d="M27 24h1"/>
<path stroke="#d9d9f6" d="M28 24h1"/>
<path stroke="#c9ccff" d="M29 24h1"/>
<path stroke="#6464ff" d="M30 24h1"/>
<path stroke="#3137f2" d="M31 24h1"/>
<path stroke="#1327d0" d="M32 24h1"/>
<path stroke="#203cc9" d="M33 24h1"/>
<path stroke="#163193" d="M34 24h1"/>
<path stroke="#a0b3f5" d="M35 24h1"/>
<path stroke="#9ba0c9" d="M36 24h1M36 32h1"/>
<path stroke="#a1a0c2" d="M37 24h1M37 32h1"/>
<path stroke="#9b9dca" d="M38 24h1M38 26h1"/>
<path stroke="#6e709d" d="M39 24h1M39 34h1"/>
<path stroke="#f6f7f0" d="M5 25h1M5 27h1M5 33h1M5 35h1M5 39h1"/>
<path stroke="#fffbf3" d="M15 25h1"/>
<path stroke="#faf5ee" d="M16 25h1"/>
<path stroke="#f6ffff" d="M17 25h1"/>
<path stroke="#a9dde2" d="M18 25h1"/>
<path stroke="#7db0b8" d="M19 25h1"/>
<path stroke="#effafb" d="M20 25h1"/>
<path stroke="#eae4df" d="M21 25h1"/>
<path stroke="#fef8f3" d="M22 25h1"/>
<path stroke="#ebe7e4" d="M23 25h1M22 26h1"/>
<path stroke="#eef1f0" d="M24 25h1"/>
<path stroke="#e5e7e7" d="M25 25h1M24 30h1M22 42h1"/>
<path stroke="#eae5e5" d="M26 25h1"/>
<path stroke="#dcdce9" d="M27 25h1"/>
<path stroke="#c2d7ff" d="M28 25h1"/>
<path stroke="#7f95ef" d="M29 25h1"/>
<path stroke="#313ad7" d="M30 25h1"/>
<path stroke="#2d36ee" d="M31 25h1"/>
<path stroke="#1f36de" d="M32 25h1"/>
<path stroke="#112ebb" d="M33 25h1"/>
<path stroke="#153094" d="M34 25h1"/>
<path stroke="#98aaed" d="M35 25h1"/>
<path stroke="#abb0da" d="M36 25h1"/>
<path stroke="#9f9ec0" d="M37 25h1M37 33h1"/>
<path stroke="#9ea0cd" d="M38 25h1"/>
<path stroke="#7c7eab" d="M39 25h1"/>
<path stroke="#b5b6c8" d="M2 26h1M2 34h1M2 36h1"/>
<path stroke="#d3d5db" d="M3 26h1M3 28h1M3 35h1M3 39h1"/>
<path stroke="#f8f7f1" d="M6 26h1M6 34h1M18 43h1M20 43h1M16 45h1M19 45h1"/>
<path stroke="#fefaf2" d="M15 26h1"/>
<path stroke="#fffbf6" d="M16 26h1"/>
<path stroke="#fcf9f3" d="M17 26h1"/>
<path stroke="#c4d5cf" d="M18 26h1"/>
<path stroke="#effffe" d="M19 26h1"/>
<path stroke="#e6e9e6" d="M20 26h1M24 26h1"/>
<path stroke="#f8f4f0" d="M21 26h1"/>
<path stroke="#f3f1ed" d="M23 26h1"/>
<path stroke="#e4e6e7" d="M25 26h1"/>
<path stroke="#dcd8e5" d="M26 26h1"/>
<path stroke="#ccd5ff" d="M27 26h1"/>
<path stroke="#6e96ef" d="M28 26h1"/>
<path stroke="#2956d8" d="M29 26h1"/>
<path stroke="#263edf" d="M30 26h1"/>
<path stroke="#2135e0" d="M31 26h1"/>
<path stroke="#102ed1" d="M32 26h1"/>
<path stroke="#1a3dc7" d="M33 26h1"/>
<path stroke="#163195" d="M34 26h1"/>
<path stroke="#a1b4f6" d="M35 26h1"/>
<path stroke="#9ca2c6" d="M36 26h1"/>
<path stroke="#a3a3c1" d="M37 26h1"/>
<path stroke="#c0c2d4" d="M2 27h1"/>
<path stroke="#cecfd5" d="M3 27h1M3 29h1M3 38h1"/>
<path stroke="#d7e0df" d="M16 27h1"/>
<path stroke="#f3ffff" d="M17 27h1"/>
<path stroke="#eafffc" d="M18 27h1"/>
<path stroke="#edfdfa" d="M19 27h1"/>
<path stroke="#eaede7" d="M24 27h1"/>
<path stroke="#e5e7e9" d="M25 27h1"/>
<path stroke="#e7e3ef" d="M26 27h1"/>
<path stroke="#6c739c" d="M27 27h1"/>
<path stroke="#4466bc" d="M28 27h1"/>
<path stroke="#3b63d5" d="M29 27h1"/>
<path stroke="#253cbb" d="M30 27h1"/>
<path stroke="#1a2caf" d="M31 27h1"/>
<path stroke="#132caa" d="M32 27h1"/>
<path stroke="#1832a0" d="M33 27h1"/>
<path stroke="#1e2f80" d="M34 27h1"/>
<path stroke="#9da7dc" d="M35 27h1"/>
<path stroke="#aeb2d3" d="M36 27h1"/>
<path stroke="#9ea0bd" d="M37 27h1"/>
<path stroke="#9fa1ce" d="M38 27h1"/>
<path stroke="#343056" d="M40 27h1"/>
<path stroke="#b7b9ca" d="M2 28h1"/>
<path stroke="#eefffc" d="M15 28h1"/>
<path stroke="#bbf3fb" d="M16 28h1"/>
<path stroke="#72b9c8" d="M17 28h1"/>
<path stroke="#adecfb" d="M18 28h1"/>
<path stroke="#d6ffff" d="M19 28h1"/>
<path stroke="#dce8e8" d="M20 28h1"/>
<path stroke="#f9f5f2" d="M21 28h1"/>
<path stroke="#e8e7e3" d="M22 28h1"/>
<path stroke="#efefeb" d="M23 28h1"/>
<path stroke="#e2e8e1" d="M24 28h1"/>
<path stroke="#dfdbd8" d="M26 28h1"/>
<path stroke="#d8d4dc" d="M27 28h1"/>
<path stroke="#d7d9f8" d="M28 28h1"/>
<path stroke="#cad1fe" d="M29 28h1"/>
<path stroke="#c6caff" d="M30 28h1"/>
<path stroke="#cccfff" d="M31 28h1"/>
<path stroke="#bcc1fa" d="M32 28h1"/>
<path stroke="#cfd0ff" d="M33 28h1"/>
<path stroke="#b4b1d4" d="M34 28h1"/>
<path stroke="#b8b4ce" d="M35 28h1"/>
<path stroke="#a3a5c4" d="M37 28h1"/>
<path stroke="#999dc7" d="M38 28h1"/>
<path stroke="#6f719c" d="M39 28h1"/>
<path stroke="#363258" d="M40 28h1"/>
<path stroke="#c3c4d6" d="M2 29h1M2 35h1"/>
<path stroke="#eaffff" d="M15 29h1M15 32h1"/>
<path stroke="#91dae8" d="M16 29h1"/>
<path stroke="#99fcff" d="M17 29h1M17 39h1"/>
<path stroke="#58c4db" d="M18 29h1"/>
<path stroke="#64bcd3" d="M19 29h1"/>
<path stroke="#bbe5f9" d="M20 29h1"/>
<path stroke="#dae8f8" d="M21 29h1"/>
<path stroke="#f2f5ff" d="M22 29h1"/>
<path stroke="#e5e4eb" d="M23 29h1"/>
<path stroke="#edf2ec" d="M24 29h1"/>
<path stroke="#e5e9de" d="M25 29h1"/>
<path stroke="#e9e6db" d="M26 29h1"/>
<path stroke="#e4dcd5" d="M27 29h1"/>
<path stroke="#ded3d4" d="M28 29h1"/>
<path stroke="#e5dae6" d="M29 29h1"/>
<path stroke="#d5d2e7" d="M30 29h1"/>
<path stroke="#cdcbe4" d="M31 29h1"/>
<path stroke="#d5d1e9" d="M32 29h1"/>
<path stroke="#cac4dc" d="M33 29h1"/>
<path stroke="#d4cee9" d="M34 29h1M32 33h1"/>
<path stroke="#aba7c1" d="M35 29h1"/>
<path stroke="#afafca" d="M36 29h1"/>
<path stroke="#9fa1c0" d="M37 29h1"/>
<path stroke="#9ca1ca" d="M38 29h1"/>
<path stroke="#7d7faa" d="M39 29h1"/>
<path stroke="#8d8fae" d="M1 30h1"/>
<path stroke="#d1d2d9" d="M3 30h1M3 41h1"/>
<path stroke="#e4e5de" d="M5 30h1M4 44h1"/>
<path stroke="#eeffff" d="M15 30h1M15 31h1M15 41h1"/>
<path stroke="#9ed6e7" d="M16 30h1M16 31h1"/>
<path stroke="#9afeff" d="M17 30h1"/>
<path stroke="#46ddf5" d="M18 30h1"/>
<path stroke="#36ccee" d="M19 30h1"/>
<path stroke="#3f9fd3" d="M20 30h1"/>
<path stroke="#7dafe7" d="M21 30h1"/>
<path stroke="#d0ddff" d="M22 30h1"/>
<path stroke="#f0ecff" d="M23 30h1"/>
<path stroke="#e5e7db" d="M25 30h1M5 42h1"/>
<path stroke="#e2ddd3" d="M26 30h1"/>
<path stroke="#ded6cf" d="M27 30h1"/>
<path stroke="#e1d8d9" d="M28 30h1"/>
<path stroke="#d8d2db" d="M29 30h1"/>
<path stroke="#cecbe0" d="M30 30h1"/>
<path stroke="#d1d1ea" d="M31 30h1"/>
<path stroke="#c3c4da" d="M32 30h1"/>
<path stroke="#cfd2f3" d="M33 30h1"/>
<path stroke="#283167" d="M34 30h1"/>
<path stroke="#abb5ea" d="M35 30h1"/>
<path stroke="#9ea1c4" d="M36 30h1"/>
<path stroke="#9ea0c1" d="M37 30h1"/>
<path stroke="#9b9fcd" d="M38 30h1"/>
<path stroke="#7072a1" d="M39 30h1"/>
<path stroke="#cbcdd3" d="M3 31h1"/>
<path stroke="#e1e1df" d="M4 31h1M4 33h1M4 35h1M4 37h1M4 39h1"/>
<path stroke="#91ffff" d="M17 31h1M17 38h1"/>
<path stroke="#2fe9fc" d="M18 31h1"/>
<path stroke="#18d9f8" d="M19 31h1"/>
<path stroke="#3dc5ff" d="M20 31h1"/>
<path stroke="#4394e0" d="M21 31h1"/>
<path stroke="#5677c0" d="M22 31h1"/>
<path stroke="#97a2dc" d="M23 31h1"/>
<path stroke="#d2ddfe" d="M24 31h1"/>
<path stroke="#e0e6f9" d="M25 31h1"/>
<path stroke="#e7e4f3" d="M26 31h1"/>
<path stroke="#e0dae5" d="M27 31h1"/>
<path stroke="#d8d3d9" d="M28 31h1"/>
<path stroke="#dbd8e0" d="M29 31h1"/>
<path stroke="#d2d2e4" d="M30 31h1M31 32h1"/>
<path stroke="#cccde3" d="M31 31h1"/>
<path stroke="#d0cfe4" d="M32 31h1"/>
<path stroke="#bfc5e7" d="M33 31h1"/>
<path stroke="#243475" d="M34 31h1"/>
<path stroke="#99aaed" d="M35 31h1"/>
<path stroke="#acb1db" d="M36 31h1"/>
<path stroke="#9e9cbf" d="M37 31h1"/>
<path stroke="#9da1d0" d="M38 31h1"/>
<path stroke="#7d80b1" d="M39 31h1"/>
<path stroke="#80c9d7" d="M16 32h1"/>
<path stroke="#83ffff" d="M17 32h1"/>
<path stroke="#1feff9" d="M18 32h1"/>
<path stroke="#1ef5ff" d="M19 32h1"/>
<path stroke="#2fcbfb" d="M20 32h1"/>
<path stroke="#43aef7" d="M21 32h1"/>
<path stroke="#4e93f0" d="M22 32h1"/>
<path stroke="#3e69cc" d="M23 32h1"/>
<path stroke="#5b75d5" d="M24 32h1"/>
<path stroke="#98a4f9" d="M25 32h1"/>
<path stroke="#d2d2ff" d="M26 32h1"/>
<path stroke="#d6d1fe" d="M27 32h1"/>
<path stroke="#dbd6e8" d="M28 32h1"/>
<path stroke="#d7d3db" d="M29 32h1"/>
<path stroke="#cecddd" d="M30 32h1"/>
<path stroke="#c9c4d1" d="M32 32h1"/>
<path stroke="#b0b2cf" d="M33 32h1"/>
<path stroke="#1e3270" d="M34 32h1"/>
<path stroke="#9fb4f6" d="M35 32h1"/>
<path stroke="#9a9ecc" d="M38 32h1"/>
<path stroke="#6e71a0" d="M39 32h1"/>
<path stroke="#7bcbd9" d="M16 33h1"/>
<path stroke="#7cffff" d="M17 33h1"/>
<path stroke="#1af4f8" d="M18 33h1"/>
<path stroke="#14f8ff" d="M19 33h1"/>
<path stroke="#26d3fd" d="M20 33h1"/>
<path stroke="#43c1ff" d="M21 33h1"/>
<path stroke="#4da4ff" d="M22 33h1"/>
<path stroke="#6498ff" d="M23 33h1"/>
<path stroke="#6681f5" d="M24 33h1"/>
<path stroke="#626ad0" d="M25 33h1"/>
<path stroke="#706db7" d="M26 33h1"/>
<path stroke="#726b98" d="M27 33h1"/>
<path stroke="#d7d2e3" d="M28 33h1"/>
<path stroke="#dcd9e1" d="M29 33h1"/>
<path stroke="#d2d2e2" d="M30 33h1"/>
<path stroke="#cdcbe2" d="M31 33h1"/>
<path stroke="#aaa8d0" d="M33 33h1"/>
<path stroke="#26336c" d="M34 33h1"/>
<path stroke="#9ba9e2" d="M35 33h1"/>
<path stroke="#adb0d6" d="M36 33h1"/>
<path stroke="#9ca0cd" d="M38 33h1"/>
<path stroke="#7c7fae" d="M39 33h1"/>
<path stroke="#cfd0d6" d="M3 34h1"/>
<path stroke="#79c8d8" d="M16 34h1M16 38h1M16 39h1"/>
<path stroke="#7dffff" d="M17 34h1M17 36h1"/>
<path stroke="#17f3f9" d="M18 34h1"/>
<path stroke="#10fbff" d="M19 34h1"/>
<path stroke="#0eccf2" d="M20 34h1"/>
<path stroke="#3cc6ff" d="M21 34h1"/>
<path stroke="#53a3ff" d="M22 34h1"/>
<path stroke="#6f94fe" d="M23 34h1"/>
<path stroke="#636dcb" d="M24 34h1M24 35h1"/>
<path stroke="#a6a2e8" d="M25 34h1"/>
<path stroke="#ada5c5" d="M26 34h1"/>
<path stroke="#dbd3dc" d="M27 34h1"/>
<path stroke="#e4dadd" d="M28 34h1"/>
<path stroke="#d9d1d8" d="M29 34h1"/>
<path stroke="#d0cde1" d="M30 34h1"/>
<path stroke="#d1cff4" d="M31 34h1"/>
<path stroke="#c2bffe" d="M32 34h1"/>
<path stroke="#464285" d="M33 34h1"/>
<path stroke="#635f93" d="M34 34h1"/>
<path stroke="#b2b1d8" d="M35 34h1"/>
<path stroke="#a0a4c3" d="M37 34h1"/>
<path stroke="#9a9eca" d="M38 34h1"/>
<path stroke="#79c8da" d="M16 35h1M16 36h1"/>
<path stroke="#7effff" d="M17 35h1"/>
<path stroke="#19f0fa" d="M18 35h1"/>
<path stroke="#12f7ff" d="M19 35h1"/>
<path stroke="#19d9ff" d="M20 35h1"/>
<path stroke="#39c7ff" d="M21 35h1"/>
<path stroke="#4fa2fd" d="M22 35h1"/>
<path stroke="#4e74d9" d="M23 35h1"/>
<path stroke="#d8d1ff" d="M25 35h1"/>
<path stroke="#e7e0fc" d="M26 35h1"/>
<path stroke="#e3dbe2" d="M27 35h1"/>
<path stroke="#ded3dd" d="M28 35h1"/>
<path stroke="#e0d5eb" d="M29 35h1"/>
<path stroke="#d2cef4" d="M30 35h1"/>
<path stroke="#c6c7ff" d="M31 35h1"/>
<path stroke="#9ea0ff" d="M32 35h1"/>
<path stroke="#2c2c8b" d="M33 35h1"/>
<path stroke="#736c9a" d="M34 35h1"/>
<path stroke="#ada5bc" d="M35 35h1"/>
<path stroke="#b1b2c9" d="M36 35h1"/>
<path stroke="#9da0c1" d="M37 35h1"/>
<path stroke="#9c9fd3" d="M38 35h1"/>
<path stroke="#7d7eb2" d="M39 35h1"/>
<path stroke="#28efff" d="M18 36h1"/>
<path stroke="#1af1ff" d="M19 36h1"/>
<path stroke="#22d6ff" d="M20 36h1"/>
<path stroke="#36c2ff" d="M21 36h1"/>
<path stroke="#4ba9fb" d="M22 36h1"/>
<path stroke="#649afe" d="M23 36h1"/>
<path stroke="#566ee3" d="M24 36h1"/>
<path stroke="#6569d0" d="M25 36h1"/>
<path stroke="#dad7ff" d="M26 36h1"/>
<path stroke="#d8cff7" d="M27 36h1"/>
<path stroke="#dfd4fc" d="M28 36h1"/>
<path stroke="#d4ccfe" d="M29 36h1"/>
<path stroke="#c6c6ff" d="M30 36h1"/>
<path stroke="#9aa1ff" d="M31 36h1"/>
<path stroke="#323fcf" d="M32 36h1"/>
<path stroke="#1e28a4" d="M33 36h1"/>
<path stroke="#a4a2ce" d="M34 36h1"/>
<path stroke="#b8b2bb" d="M35 36h1"/>
<path stroke="#a1a3b4" d="M36 36h1"/>
<path stroke="#9fa2c6" d="M37 36h1"/>
<path stroke="#9a9bda" d="M38 36h1"/>
<path stroke="#7473b3" d="M39 36h1"/>
<path stroke="#332f55" d="M40 36h1"/>
<path stroke="#9c9cbc" d="M1 37h1M1 39h1"/>
<path stroke="#7bcadd" d="M16 37h1"/>
<path stroke="#88ffff" d="M17 37h1"/>
<path stroke="#39e2f9" d="M18 37h1"/>
<path stroke="#0bbcd9" d="M19 37h1"/>
<path stroke="#34cffa" d="M20 37h1"/>
<path stroke="#44c5ff" d="M21 37h1"/>
<path stroke="#4ebbff" d="M22 37h1"/>
<path stroke="#50a4fe" d="M23 37h1"/>
<path stroke="#639aff" d="M24 37h1"/>
<path stroke="#5371df" d="M25 37h1"/>
<path stroke="#676fc7" d="M26 37h1"/>
<path stroke="#a09ceb" d="M27 37h1"/>
<path stroke="#9b98e6" d="M28 37h1"/>
<path stroke="#9f9ef7" d="M29 37h1"/>
<path stroke="#575fcc" d="M30 37h1"/>
<path stroke="#323cbf" d="M31 37h1"/>
<path stroke="#2e3cd5" d="M32 37h1"/>
<path stroke="#535dd7" d="M33 37h1"/>
<path stroke="#a8a8cf" d="M34 37h1"/>
<path stroke="#b8b6b9" d="M35 37h1"/>
<path stroke="#9fa0d4" d="M38 37h1"/>
<path stroke="#3b3c6e" d="M39 37h1"/>
<path stroke="#9291b1" d="M1 38h1M1 40h1"/>
<path stroke="#b6b6c8" d="M2 38h1M2 40h1"/>
<path stroke="#e5e6e3" d="M4 38h1M4 40h1"/>
<path stroke="#fbfaf3" d="M6 38h1M22 43h1M18 45h1"/>
<path stroke="#5ad5e5" d="M18 38h1"/>
<path stroke="#82fdff" d="M19 38h1"/>
<path stroke="#32a4d2" d="M20 38h1"/>
<path stroke="#4dbefa" d="M21 38h1"/>
<path stroke="#43c3ff" d="M22 38h1"/>
<path stroke="#46c1ff" d="M23 38h1"/>
<path stroke="#46abfd" d="M24 38h1"/>
<path stroke="#5a9dfd" d="M25 38h1"/>
<path stroke="#556ede" d="M26 38h1"/>
<path stroke="#6368e3" d="M27 38h1"/>
<path stroke="#646aec" d="M28 38h1"/>
<path stroke="#5d68f4" d="M29 38h1"/>
<path stroke="#4757f3" d="M30 38h1"/>
<path stroke="#2d3bd3" d="M31 38h1"/>
<path stroke="#343aba" d="M32 38h1"/>
<path stroke="#686ac0" d="M33 38h1"/>
<path stroke="#b2b4d1" d="M34 38h1"/>
<path stroke="#b6b4bc" d="M35 38h1"/>
<path stroke="#a19ead" d="M36 38h1"/>
<path stroke="#a7a3b7" d="M37 38h1"/>
<path stroke="#6e7383" d="M38 38h1"/>
<path stroke="#6a6785" d="M0 39h1"/>
<path stroke="#c4c4d6" d="M2 39h1"/>
<path stroke="#68bbc3" d="M18 39h1"/>
<path stroke="#a8eefd" d="M19 39h1"/>
<path stroke="#a8ebff" d="M20 39h1"/>
<path stroke="#4c9bc7" d="M21 39h1"/>
<path stroke="#35a1d1" d="M22 39h1"/>
<path stroke="#4fc2f6" d="M23 39h1"/>
<path stroke="#59baf7" d="M24 39h1"/>
<path stroke="#6cb1ff" d="M25 39h1"/>
<path stroke="#7394fd" d="M26 39h1"/>
<path stroke="#5e6fe9" d="M27 39h1"/>
<path stroke="#5a6cef" d="M28 39h1"/>
<path stroke="#4a5ae6" d="M29 39h1"/>
<path stroke="#4e5af1" d="M30 39h1"/>
<path stroke="#363cc2" d="M31 39h1"/>
<path stroke="#5a5bb8" d="M32 39h1"/>
<path stroke="#bebff5" d="M33 39h1"/>
<path stroke="#ced0e4" d="M34 39h1"/>
<path stroke="#b5b6bd" d="M35 39h1"/>
<path stroke="#76727f" d="M37 39h1"/>
<path stroke="#78c6db" d="M16 40h1"/>
<path stroke="#67bcd2" d="M17 40h1"/>
<path stroke="#bde7eb" d="M18 40h1"/>
<path stroke="#f1ffff" d="M19 40h1"/>
<path stroke="#daeaed" d="M20 40h1"/>
<path stroke="#c9e2f0" d="M21 40h1"/>
<path stroke="#a2d2ed" d="M22 40h1"/>
<path stroke="#5e96bc" d="M23 40h1"/>
<path stroke="#6190be" d="M24 40h1"/>
<path stroke="#648dc4" d="M25 40h1"/>
<path stroke="#688bcd" d="M26 40h1"/>
<path stroke="#5a79c3" d="M27 40h1"/>
<path stroke="#5c7acb" d="M28 40h1"/>
<path stroke="#5062b7" d="M29 40h1"/>
<path stroke="#403f96" d="M30 40h1"/>
<path stroke="#a8a0ec" d="M31 40h1"/>
<path stroke="#c3bff4" d="M32 40h1"/>
<path stroke="#d1d0ee" d="M33 40h1"/>
<path stroke="#b3b4bd" d="M34 40h1"/>
<path stroke="#b6b5b8" d="M35 40h1"/>
<path stroke="#686672" d="M36 40h1"/>
<path stroke="#6a687f" d="M0 41h1"/>
<path stroke="#c3c3d3" d="M2 41h1"/>
<path stroke="#e0e0dc" d="M4 41h1"/>
<path stroke="#f5f6ec" d="M5 41h1"/>
<path stroke="#7ab5c6" d="M16 41h1"/>
<path stroke="#b0e9fa" d="M17 41h1"/>
<path stroke="#e8faf9" d="M18 41h1"/>
<path stroke="#fdf8ee" d="M19 41h1"/>
<path stroke="#fbf3ea" d="M20 41h1"/>
<path stroke="#e7e5e3" d="M21 41h1"/>
<path stroke="#d4dfeb" d="M22 41h1"/>
<path stroke="#cbdef3" d="M23 41h1"/>
<path stroke="#9eaecb" d="M24 41h1"/>
<path stroke="#7286a4" d="M25 41h1"/>
<path stroke="#5b7996" d="M26 41h1"/>
<path stroke="#5a789c" d="M27 41h1"/>
<path stroke="#5e78a6" d="M28 41h1"/>
<path stroke="#9aa9d8" d="M29 41h1"/>
<path stroke="#aca7d2" d="M30 41h1"/>
<path stroke="#cfc5e8" d="M31 41h1"/>
<path stroke="#d2cee6" d="M32 41h1"/>
<path stroke="#b4b4c2" d="M33 41h1"/>
<path stroke="#949398" d="M34 41h1"/>
<path stroke="#6b6b76" d="M0 42h1"/>
<path stroke="#9394a1" d="M1 42h1"/>
<path stroke="#b5b6c1" d="M2 42h1"/>
<path stroke="#cfd0d4" d="M3 42h1"/>
<path stroke="#e3e4dd" d="M4 42h1"/>
<path stroke="#f8faf0" d="M6 42h1"/>
<path stroke="#f6fdf8" d="M15 42h1"/>
<path stroke="#d0e3e3" d="M16 42h1"/>
<path stroke="#eafcfd" d="M17 42h1"/>
<path stroke="#f4f9f5" d="M18 42h1"/>
<path stroke="#f8f4ec" d="M19 42h1"/>
<path stroke="#e9e5dd" d="M20 42h1"/>
<path stroke="#f7f6f2" d="M21 42h1"/>
<path stroke="#edf4f6" d="M23 42h1"/>
<path stroke="#e1e7eb" d="M24 42h1"/>
<path stroke="#d7dfe3" d="M25 42h1"/>
<path stroke="#d3dfdd" d="M26 42h1"/>
<path stroke="#cdd8dd" d="M27 42h1"/>
<path stroke="#d3dbf1" d="M28 42h1"/>
<path stroke="#cfd1ee" d="M29 42h1"/>
<path stroke="#cfcce1" d="M30 42h1"/>
<path stroke="#b7b2c2" d="M31 42h1"/>
<path stroke="#95939d" d="M32 42h1"/>
<path stroke="#808187" d="M1 43h1"/>
<path stroke="#c4c5d0" d="M2 43h1"/>
<path stroke="#e0e1da" d="M4 43h1"/>
<path stroke="#f6f8ec" d="M5 43h1"/>
<path stroke="#fafcf4" d="M15 43h1M15 45h1"/>
<path stroke="#e9e8e2" d="M16 43h1M21 43h1"/>
<path stroke="#faf8f2" d="M19 43h1"/>
<path stroke="#e7e6df" d="M23 43h1"/>
<path stroke="#f0f1ea" d="M24 43h1"/>
<path stroke="#e7e8de" d="M25 43h1"/>
<path stroke="#e4e7d8" d="M26 43h1"/>
<path stroke="#dee0d8" d="M27 43h1"/>
<path stroke="#d3d1db" d="M28 43h1"/>
<path stroke="#b3b1bf" d="M29 43h1"/>
<path stroke="#99979f" d="M30 43h1"/>
<path stroke="#e7e8dc" d="M5 44h1"/>
<path stroke="#fffffc" d="M7 44h1M7 45h1M12 46h1"/>
<path stroke="#fafcf2" d="M15 44h1"/>
<path stroke="#fcfbf2" d="M17 44h1"/>
<path stroke="#e7e6dd" d="M20 44h1"/>
<path stroke="#e5e4db" d="M22 44h1"/>
<path stroke="#f3f2e9" d="M23 44h1"/>
<path stroke="#e4e6dc" d="M24 44h1"/>
<path stroke="#e5e7dd" d="M25 44h1"/>
<path stroke="#dcded2" d="M26 44h1"/>
<path stroke="#b4b6ae" d="M27 44h1M25 45h1"/>
<path stroke="#b4b5bc" d="M3 45h1"/>
<path stroke="#e1e1dd" d="M4 45h1"/>
<path stroke="#f7f8ef" d="M5 45h1"/>
<path stroke="#fffffb" d="M6 45h1M7 46h1M13 46h1"/>
<path stroke="#eae9e3" d="M21 45h1"/>
<path stroke="#e6e5de" d="M23 45h1"/>
<path stroke="#b6b7b0" d="M24 45h1"/>
<path stroke="#95968f" d="M26 45h1"/>
<path stroke="#969696" d="M4 46h1"/>
<path stroke="#b7b7b5" d="M5 46h1M12 47h1"/>
<path stroke="#e7e7e3" d="M6 46h1"/>
<path stroke="#f8f9f4" d="M15 46h1"/>
<path stroke="#fefdf9" d="M16 46h1"/>
<path stroke="#faf8f4" d="M17 46h2"/>
<path stroke="#e6e4e0" d="M19 46h1"/>
<path stroke="#e7e5e1" d="M20 46h1"/>
<path stroke="#b8b7b3" d="M21 46h2"/>
<path stroke="#94938f" d="M23 46h1"/>
<path stroke="#949492" d="M6 47h2"/>
<path stroke="#b6b6b4" d="M8 47h4M13 47h2"/>
<path stroke="#b1b1af" d="M15 47h1"/>
<path stroke="#b7b5b4" d="M16 47h2"/>
<path stroke="#989694" d="M18 47h1"/>
<path stroke="#949291" d="M19 47h1"/>
<path stroke="#979593" d="M20 47h1"/>
</svg>