<?xml version="1.0" encoding="UTF-8" standalone="no"?>
<svg
   version="1.1"
   width="256"
   height="256"
   viewBox="0 0 256 256"
   xml:space="preserve"
   id="svg37"
   sodipodi:docname="password.svg"
   inkscape:version="1.3.2 (091e20ef0f, 2023-11-25)"
   xmlns:inkscape="http://www.inkscape.org/namespaces/inkscape"
   xmlns:sodipodi="http://sodipodi.sourceforge.net/DTD/sodipodi-0.dtd"
   xmlns="http://www.w3.org/2000/svg"
   xmlns:svg="http://www.w3.org/2000/svg"
   xmlns:rdf="http://www.w3.org/1999/02/22-rdf-syntax-ns#"
   xmlns:cc="http://creativecommons.org/ns#"><sodipodi:namedview
   id="namedview37"
   pagecolor="#ffffff"
   bordercolor="#000000"
   borderopacity="0.25"
   inkscape:showpageshadow="2"
   inkscape:pageopacity="0.0"
   inkscape:pagecheckerboard="0"
   inkscape:deskcolor="#d1d1d1"
   inkscape:current-layer="svg37"
   showguides="true"><sodipodi:guide
     position="128.23315,225.69035"
     orientation="1,0"
     id="guide1"
     inkscape:locked="false" /><sodipodi:guide
     position="56.888889,127.76685"
     orientation="0,-1"
     id="guide2"
     inkscape:locked="false" /></sodipodi:namedview>
<desc
   id="desc1">Created with Fabric.js 5.2.4</desc>
<defs
   id="defs1"><linearGradient
     id="SVGID_XMLID_3__9"
     gradientUnits="userSpaceOnUse"
     gradientTransform="matrix(1.98,0,0,1.98,-126.43,-126.43)"
     x1="63.997601"
     y1="14.0005"
     x2="63.997601"
     y2="63.0005">
<stop
   offset="0%"
   style="stop-color:rgb(255,255,255);stop-opacity: 1"
   id="stop31" />
<stop
   offset="100%"
   style="stop-color:rgb(255,255,255);stop-opacity: 0"
   id="stop32" />
</linearGradient><linearGradient
     id="SVGID_XMLID_2__8"
     gradientUnits="userSpaceOnUse"
     gradientTransform="matrix(1.98,0,0,1.98,-126.43,-126.43)"
     x1="68.054878"
     y1="118.06909"
     x2="23.2307"
     y2="22.761999">
<stop
   offset="0%"
   style="stop-color:rgb(255,84,84);stop-opacity: 1"
   id="stop26" />
<stop
   offset="19.439999999999998%"
   style="stop-color:rgb(249,79,79);stop-opacity: 1"
   id="stop27" />
<stop
   offset="46.650000000000006%"
   style="stop-color:rgb(230,66,66);stop-opacity: 1"
   id="stop28" />
<stop
   offset="78.3%"
   style="stop-color:rgb(201,45,45);stop-opacity: 1"
   id="stop29" />
<stop
   offset="100%"
   style="stop-color:rgb(176,28,28);stop-opacity: 1"
   id="stop30" />
</linearGradient><linearGradient
     id="SVGID_XMLID_1__7"
     gradientUnits="userSpaceOnUse"
     gradientTransform="matrix(1.98,0,0,1.98,-126.43,-126.43)"
     x1="115.60217"
     y1="117.39095"
     x2="13.810602"
     y2="13.381392">
<stop
   offset="0"
   style="stop-color:#ff9090;stop-opacity:1;"
   id="stop21" />
<stop
   offset="0.1944"
   style="stop-color:#fa8080;stop-opacity:1;"
   id="stop22" />
<stop
   offset="0.46650001"
   style="stop-color:#e74f4f;stop-opacity:1;"
   id="stop23" />
<stop
   offset="0.63636678"
   style="stop-color:#9d2323;stop-opacity:1;"
   id="stop24" />
<stop
   offset="1"
   style="stop-color:#881515;stop-opacity:1;"
   id="stop25" />
</linearGradient><linearGradient
     gradientTransform="matrix(0.0083,0.0083,0.0069,-0.0069,-9.15,-11.1)"
     gradientUnits="userSpaceOnUse"
     id="gradient0"
     spreadMethod="pad"
     x1="-819.20001"
     x2="819.20001"><stop
       offset="0.0"
       stop-color="#99ccff"
       id="stop26-5" /><stop
       offset="1.0"
       stop-color="#ffffff"
       id="stop27-6" /></linearGradient><linearGradient
     gradientTransform="matrix(-0.0078,0.0031,0.0016,0.004,-7.45,-8.75)"
     gradientUnits="userSpaceOnUse"
     id="gradient1"
     spreadMethod="pad"
     x1="-819.20001"
     x2="819.20001"><stop
       offset="0.0"
       stop-color="#333333"
       id="stop28-2" /><stop
       offset="1.0"
       stop-color="#999999"
       id="stop29-9" /></linearGradient><linearGradient
     gradientTransform="matrix(0.007,0.0025,0.0026,-0.0072,-7.3,-8.8)"
     gradientUnits="userSpaceOnUse"
     id="gradient2"
     spreadMethod="pad"
     x1="-819.20001"
     x2="819.20001"><stop
       offset="0.0"
       stop-color="#cccccc"
       id="stop30-1" /><stop
       offset="0.19215686274509805"
       stop-color="#999999"
       id="stop31-2" /><stop
       offset="0.3843137254901961"
       stop-color="#ffffff"
       id="stop32-7" /><stop
       offset="0.611764705882353"
       stop-color="#999999"
       id="stop33" /><stop
       offset="0.7647058823529411"
       stop-color="#cccccc"
       id="stop34" /><stop
       offset="1.0"
       stop-color="#ffffff"
       id="stop35" /></linearGradient><linearGradient
     gradientTransform="matrix(0.0045,0.0098,0.0039,-0.0018,-19.4,-6.15)"
     gradientUnits="userSpaceOnUse"
     id="gradient3"
     spreadMethod="pad"
     x1="-819.20001"
     x2="819.20001"><stop
       offset="0.0"
       stop-color="#ffffff"
       id="stop36" /><stop
       offset="1.0"
       stop-color="#cccccc"
       id="stop37" /></linearGradient><linearGradient
     gradientTransform="matrix(-0.0129,0.006,0.0016,0.0035,-9.8,-16.4)"
     gradientUnits="userSpaceOnUse"
     id="gradient4"
     spreadMethod="pad"
     x1="-819.20001"
     x2="819.20001"><stop
       offset="0.0"
       stop-color="#cccccc"
       id="stop38" /><stop
       offset="1.0"
       stop-color="#ffffff"
       id="stop39" /></linearGradient><linearGradient
     gradientTransform="matrix(3e-4,0.0025,0.0022,-2e-4,-5.25,21.6)"
     gradientUnits="userSpaceOnUse"
     id="gradient5"
     spreadMethod="pad"
     x1="-819.20001"
     x2="819.20001"><stop
       offset="0.0"
       stop-color="#999999"
       id="stop40" /><stop
       offset="0.21568627450980393"
       stop-color="#dddddd"
       id="stop41" /><stop
       offset="1.0"
       stop-color="#ffffff"
       id="stop42" /></linearGradient><linearGradient
     gradientTransform="matrix(-0.0059,-0.0126,-0.0052,0.0025,-3.45,10.5)"
     gradientUnits="userSpaceOnUse"
     id="gradient6"
     spreadMethod="pad"
     x1="-819.20001"
     x2="819.20001"><stop
       offset="0.0"
       stop-color="#999999"
       id="stop43" /><stop
       offset="1.0"
       stop-color="#666666"
       id="stop44" /></linearGradient><linearGradient
     gradientTransform="matrix(-0.0016,-0.0034,-0.0019,9e-4,-2.55,-10.1)"
     gradientUnits="userSpaceOnUse"
     id="gradient7"
     spreadMethod="pad"
     x1="-819.20001"
     x2="819.20001"><stop
       offset="0.0"
       stop-color="#999999"
       id="stop45" /><stop
       offset="1.0"
       stop-color="#666666"
       id="stop46" /></linearGradient><linearGradient
     gradientTransform="matrix(0.0058,0.0021,0.0015,-0.004,-7.2,-5.85)"
     gradientUnits="userSpaceOnUse"
     id="gradient8"
     spreadMethod="pad"
     x1="-819.20001"
     x2="819.20001"><stop
       offset="0.0"
       stop-color="#cccccc"
       id="stop47" /><stop
       offset="1.0"
       stop-color="#ffffff"
       id="stop48" /></linearGradient><linearGradient
     gradientTransform="matrix(-0.0033,-0.0033,-0.006,0.006,4.6,-11)"
     gradientUnits="userSpaceOnUse"
     id="gradient9"
     spreadMethod="pad"
     x1="-819.20001"
     x2="819.20001"><stop
       offset="0.0"
       stop-color="#996600"
       id="stop49" /><stop
       offset="1.0"
       stop-color="#ff9933"
       id="stop50" /></linearGradient><linearGradient
     gradientTransform="matrix(0.0075,0,0,-0.0076,4.7,-11.1)"
     gradientUnits="userSpaceOnUse"
     id="gradient10"
     spreadMethod="pad"
     x1="-819.20001"
     x2="819.20001"><stop
       offset="0.0"
       stop-color="#ff9933"
       id="stop51" /><stop
       offset="0.19215686274509805"
       stop-color="#ff9933"
       id="stop52" /><stop
       offset="0.3843137254901961"
       stop-color="#ffff99"
       id="stop53" /><stop
       offset="0.611764705882353"
       stop-color="#ff9933"
       id="stop54" /><stop
       offset="0.7647058823529411"
       stop-color="#ffcc66"
       id="stop55" /><stop
       offset="1.0"
       stop-color="#ffff99"
       id="stop56" /></linearGradient><linearGradient
     gradientTransform="matrix(0.0076,0.0076,0.003,-0.003,-5.7,-4.45)"
     gradientUnits="userSpaceOnUse"
     id="gradient11"
     spreadMethod="pad"
     x1="-819.20001"
     x2="819.20001"><stop
       offset="0.0"
       stop-color="#ffff99"
       id="stop57" /><stop
       offset="1.0"
       stop-color="#ffcc66"
       id="stop58" /></linearGradient><linearGradient
     gradientTransform="matrix(-0.01,0.01,0.0027,0.0027,-0.45,-17.3)"
     gradientUnits="userSpaceOnUse"
     id="gradient12"
     spreadMethod="pad"
     x1="-819.20001"
     x2="819.20001"><stop
       offset="0.0"
       stop-color="#ffff99"
       id="stop59" /><stop
       offset="1.0"
       stop-color="#ffffff"
       id="stop60" /></linearGradient><linearGradient
     gradientTransform="matrix(0.0011,0.0023,0.002,-0.001,17,16.8)"
     gradientUnits="userSpaceOnUse"
     id="gradient13"
     spreadMethod="pad"
     x1="-819.20001"
     x2="819.20001"><stop
       offset="0.0"
       stop-color="#ffcc66"
       id="stop61" /><stop
       offset="0.21568627450980393"
       stop-color="#ffff99"
       id="stop62" /><stop
       offset="1.0"
       stop-color="#ffffff"
       id="stop63" /></linearGradient><linearGradient
     gradientTransform="matrix(-0.0098,-0.0098,-0.0041,0.0041,14.95,5.8)"
     gradientUnits="userSpaceOnUse"
     id="gradient14"
     spreadMethod="pad"
     x1="-819.20001"
     x2="819.20001"><stop
       offset="0.0"
       stop-color="#ff9933"
       id="stop64" /><stop
       offset="1.0"
       stop-color="#996600"
       id="stop65" /></linearGradient><linearGradient
     gradientTransform="matrix(-0.0027,-0.0027,-0.0015,0.0015,8.55,-14.55)"
     gradientUnits="userSpaceOnUse"
     id="gradient15"
     spreadMethod="pad"
     x1="-819.20001"
     x2="819.20001"><stop
       offset="0.0"
       stop-color="#ff9933"
       id="stop66" /><stop
       offset="1.0"
       stop-color="#996600"
       id="stop67" /></linearGradient><linearGradient
     gradientTransform="matrix(0.0063,0,0,-0.0043,5.7,-8.35)"
     gradientUnits="userSpaceOnUse"
     id="gradient16"
     spreadMethod="pad"
     x1="-819.20001"
     x2="819.20001"><stop
       offset="0.0"
       stop-color="#ffff99"
       id="stop68" /><stop
       offset="1.0"
       stop-color="#ffffff"
       id="stop69" /></linearGradient><linearGradient
     gradientTransform="matrix(0.0182,0,0,-0.011,-6.85,-17.15)"
     gradientUnits="userSpaceOnUse"
     id="gradient17"
     spreadMethod="pad"
     x1="-819.20001"
     x2="819.20001"><stop
       offset="0.0"
       stop-color="#99ccff"
       id="stop70" /><stop
       offset="0.4470588235294118"
       stop-color="#ffffff"
       id="stop71" /><stop
       offset="1.0"
       stop-color="#9999cc"
       id="stop72" /></linearGradient></defs>





<metadata
   id="metadata37"><rdf:RDF><cc:License
       rdf:about="http://creativecommons.org/publicdomain/zero/1.0/"><cc:permits
         rdf:resource="http://creativecommons.org/ns#Reproduction" /><cc:permits
         rdf:resource="http://creativecommons.org/ns#Distribution" /><cc:permits
         rdf:resource="http://creativecommons.org/ns#DerivativeWorks" /></cc:License><cc:Work
       rdf:about=""><cc:license
         rdf:resource="http://creativecommons.org/publicdomain/zero/1.0/" /></cc:Work></rdf:RDF></metadata><g
   transform="matrix(4.7359417,0,0,4.7359417,125.35274,128.76991)"
   id="g26"><path
     d="m -18.85,-14.95 q -1.55,0.7 -0.9,2.75 2.85,8.55 21.4,3.7 1.05,-0.3 1.15,-1.7 0.05,-1.35 -1.15,-1.65 -7.8,2.1 -11.9,1.8 -4.35,-0.3 -5.9,-3.4 -1.15,-2.2 -2.7,-1.5"
     fill="url(#gradient0)"
     fill-rule="evenodd"
     stroke="none"
     id="path1"
     style="fill:url(#gradient0)" /><path
     d="m -18.85,-14.95 q 1.55,-0.7 2.7,1.5 1.55,3.1 5.9,3.4 4.1,0.3 11.9,-1.8 1.2,0.3 1.15,1.65 -0.1,1.4 -1.15,1.7 -18.55,4.85 -21.4,-3.7 -0.65,-2.05 0.9,-2.75 z"
     fill="none"
     stroke="#666666"
     stroke-linecap="round"
     stroke-linejoin="round"
     stroke-width="1.1"
     id="path2" /><path
     d="m -13.35,-10.3 11.6,-3.2 0.35,6.1 -11.35,3.25 -0.6,-6.15 m -9.4,-5.25 1.9,16.7 3.65,2.55 6.35,-2.05 0.5,6 3,1.55 -2,3.65 2.3,1.4 -2.05,3.85 2.6,1.4 -2.1,3.95 4.95,2.7 L -0.55,25 1,21.45 -1.15,-1.95 3.8,-3.5 3.35,-19.25 l -4.3,-2 -21.8,5.7"
     fill="url(#gradient1)"
     fill-rule="evenodd"
     stroke="none"
     id="path3"
     style="fill:url(#gradient1)" /><path
     d="m -13.25,-10.3 11.6,-3.15 0.35,6.05 -11.35,3.25 -0.6,-6.15 m 7.8,24.15 -2.15,4.1 2.65,1.3 -2.2,3.9 3.75,2.05 2.05,-0.8 1.3,-2.9 L -2.2,-2.45 2.85,-4.1 2.2,-18.8 l -20.95,5.85 1.45,15.65 7.65,-2.5 0.6,6.95 3.2,1.7 -2,3.65 2.4,1.35"
     fill="url(#gradient2)"
     fill-rule="evenodd"
     stroke="none"
     id="path4"
     style="fill:url(#gradient2)" /><path
     d="m -21.6,-14.65 1.7,15.35 2.7,2.05 -1.35,-15.65 -3.05,-1.75"
     fill="url(#gradient3)"
     fill-rule="evenodd"
     stroke="none"
     id="path5"
     style="fill:url(#gradient3)" /><path
     d="m -21.6,-14.65 3.1,1.9 20.7,-6.05 -3.5,-1.55 -20.3,5.7"
     fill="url(#gradient4)"
     fill-rule="evenodd"
     stroke="none"
     id="path6"
     style="fill:url(#gradient4)" /><path
     d="m -9.4,7.15 1.65,0.8 -0.45,-8.35 -1.65,0.55 0.45,7 m 3.5,1.8 -2,3.65 1.3,0.45 L -4.65,9.5 -5.9,8.95 m 0.4,5.1 -2.05,3.85 1.3,0.45 2,-3.75 -1.25,-0.55 m 0.65,5.35 -2.05,3.9 1.3,0.45 2,-3.75 -1.25,-0.6"
     fill="url(#gradient5)"
     fill-rule="evenodd"
     stroke="none"
     id="path7"
     style="fill:url(#gradient5)" /><path
     d="m -3.1,22.75 1.45,-0.5 -2.3,-23.9 -1.3,0.45 2.15,23.95"
     fill="url(#gradient6)"
     fill-rule="evenodd"
     stroke="none"
     id="path8"
     style="fill:url(#gradient6)" /><path
     d="m -3.4,-12.95 0.3,4.7 1.85,1.1 -0.4,-6.3 -1.75,0.5"
     fill="url(#gradient7)"
     fill-rule="evenodd"
     stroke="none"
     id="path9"
     style="fill:url(#gradient7)" /><path
     d="m -3.05,-8.15 -9.8,2.7 0.3,1.35 11.2,-3.2 -1.7,-0.85"
     fill="url(#gradient8)"
     fill-rule="evenodd"
     stroke="none"
     id="path10"
     style="fill:url(#gradient8)" /><path
     d="m -12.8,-5.35 9.75,-2.8 -0.1,-0.65 -9.7,2.7 0.05,0.75"
     fill="#666666"
     fill-rule="evenodd"
     stroke="none"
     id="path11" /><path
     d="m -13.1,-9.5 9.7,-2.8 0.25,-0.7 -10.05,2.65 0.1,0.85"
     fill="#666666"
     fill-rule="evenodd"
     stroke="none"
     id="path12" /><path
     d="m -13.2,-10.35 0.4,5.05 0.65,-0.25 -0.4,-4.95 -0.65,0.15"
     fill="#666666"
     fill-rule="evenodd"
     stroke="none"
     id="path13" /><path
     d="m -1.5,-10.4 9.8,-6.95 2.4,5.6 -9.55,6.9 -2.65,-5.55 m 24.1,28.8 0.2,-3.9 -10,-21.25 4.15,-3.15 -5.8,-14.6 -4.75,-0.45 -18.5,12.85 7.45,15.05 4.3,1.15 5.3,-4.1 2.5,5.45 3.4,0.45 -0.65,4.1 2.6,0.5 -0.6,4.35 2.95,0.4 -0.65,4.4 5.6,0.85 2.5,-2.1"
     fill="url(#gradient9)"
     fill-rule="evenodd"
     stroke="none"
     id="path14"
     style="fill:url(#gradient9)" /><path
     d="m -1.4,-10.4 9.8,-6.95 2.45,5.55 -9.6,6.95 -2.65,-5.55 m 14.95,24.6 2.95,0.3 -0.75,4.45 4.25,0.6 q 0.85,-0.75 1.65,-1.45 l 0.2,-3.15 -10.2,-21.8 4.2,-3.25 -5.65,-13.55 -17.7,12.6 6.75,14.2 6.3,-4.95 2.95,6.3 3.6,0.55 -0.65,4.1 2.75,0.4 -0.65,4.65"
     fill="url(#gradient10)"
     fill-rule="evenodd"
     stroke="none"
     id="path15"
     style="fill:url(#gradient10)" /><path
     d="m -3.9,2.2 3.25,0.95 -6.6,-14.2 -3.5,-0.65 6.85,13.9"
     fill="url(#gradient11)"
     fill-rule="evenodd"
     stroke="none"
     id="path16"
     style="fill:url(#gradient11)" /><path
     d="m -10.75,-11.7 3.6,0.75 17.35,-12.7 -3.8,-0.35 -17.15,12.3"
     fill="url(#gradient12)"
     fill-rule="evenodd"
     stroke="none"
     id="path17"
     style="fill:url(#gradient12)" /><path
     d="m 12.8,9.25 0.65,-4 -1.35,-0.1 -0.65,4.1 H 12.8 M 8.2,4.65 10,4.85 6.7,-2.85 5.35,-1.8 8.2,4.65 m 5.4,9.45 H 15 L 15.55,9.9 14.2,9.8 13.6,14.1 m 3.05,0.55 -0.6,4.3 h 1.4 l 0.55,-4.2 -1.35,-0.1"
     fill="url(#gradient13)"
     fill-rule="evenodd"
     stroke="none"
     id="path18"
     style="fill:url(#gradient13)" /><path
     d="M 19.45,17.15 20.6,16.2 10.3,-5.45 l -1.05,0.8 10.2,21.8"
     fill="url(#gradient14)"
     fill-rule="evenodd"
     stroke="none"
     id="path19"
     style="fill:url(#gradient14)" /><path
     d="m 6.95,-16.3 1.9,4.3 2.1,0.45 -2.55,-5.8 -1.45,1.05"
     fill="url(#gradient15)"
     fill-rule="evenodd"
     stroke="none"
     id="path20"
     style="fill:url(#gradient15)" /><path
     d="M 8.95,-11.9 0.6,-6 l 0.75,1.15 9.5,-6.85 -1.9,-0.2"
     fill="url(#gradient16)"
     fill-rule="evenodd"
     stroke="none"
     id="path21"
     style="fill:url(#gradient16)" /><path
     d="m 0.75,-5.95 8.2,-5.95 -0.35,-0.55 -8.2,5.8 0.35,0.7"
     fill="#996600"
     fill-rule="evenodd"
     stroke="none"
     id="path22" /><path
     d="m -1,-9.75 8.15,-5.9 v -0.75 l -8.55,5.95 0.4,0.7"
     fill="#996600"
     fill-rule="evenodd"
     stroke="none"
     id="path23" /><path
     d="m -1.4,-10.45 2.15,4.55 0.5,-0.45 -2.05,-4.5 -0.6,0.4"
     fill="#996600"
     fill-rule="evenodd"
     stroke="none"
     id="path24" /><g
     id="g72"
     style="display:inline"><path
       d="m -19.1,-23.2 q -3.9,3 -2.1,7.85 l 3.6,-1 q -1.6,-3.25 1.5,-5.2 2.8,-1.8 7.8,-1.8 5.05,-0.05 8.7,1.75 4.15,2 4.25,5.4 0.1,2.05 -2.1,3.8 l -3.05,2.2 q 0.8,2.05 1.15,2 3.65,-0.85 5.8,-3.95 1.9,-2.7 1.55,-5 -0.65,-4.45 -6.1,-6.95 -4.9,-2.25 -11.15,-2.05 -6.35,0.25 -9.85,2.95"
       fill="url(#gradient17)"
       fill-rule="evenodd"
       stroke="none"
       id="path25"
       style="display:inline;fill:url(#gradient17)" /><path
       d="m -19.1,-23.2 q 3.5,-2.7 9.85,-2.95 6.25,-0.2 11.15,2.05 5.45,2.5 6.1,6.95 0.35,2.3 -1.55,5 -2.15,3.1 -5.8,3.95 -0.35,0.05 -1.15,-2 l 3.05,-2.2 q 2.2,-1.75 2.1,-3.8 -0.1,-3.4 -4.25,-5.4 -3.65,-1.8 -8.7,-1.75 -5,0 -7.8,1.8 -3.1,1.95 -1.5,5.2 l -3.6,1 q -1.8,-4.85 2.1,-7.85 z"
       fill="none"
       stroke="#666666"
       stroke-linecap="round"
       stroke-linejoin="round"
       stroke-width="1.1"
       id="path26"
       style="display:inline" /></g></g></svg>
