<?xml version="1.0" encoding="UTF-8" standalone="no"?>
<!-- Created with Inkscape (http://www.inkscape.org/) -->

<svg
   width="256mm"
   height="256mm"
   viewBox="0 0 256 256"
   version="1.1"
   id="svg1"
   inkscape:version="1.3.2 (091e20ef0f, 2023-11-25)"
   xml:space="preserve"
   sodipodi:docname="input-touchpad-off.svg"
   xmlns:inkscape="http://www.inkscape.org/namespaces/inkscape"
   xmlns:sodipodi="http://sodipodi.sourceforge.net/DTD/sodipodi-0.dtd"
   xmlns:xlink="http://www.w3.org/1999/xlink"
   xmlns="http://www.w3.org/2000/svg"
   xmlns:svg="http://www.w3.org/2000/svg"
   xmlns:rdf="http://www.w3.org/1999/02/22-rdf-syntax-ns#"
   xmlns:cc="http://creativecommons.org/ns#"
   xmlns:dc="http://purl.org/dc/elements/1.1/"><defs
     id="defs1"><linearGradient
       id="linearGradient18"
       inkscape:collect="always"><stop
         style="stop-color:#464646;stop-opacity:1;"
         offset="0"
         id="stop19" /><stop
         style="stop-color:#191919;stop-opacity:1;"
         offset="0.25"
         id="stop26" /><stop
         style="stop-color:#fcfcfc;stop-opacity:1;"
         offset="0.375"
         id="stop27" /><stop
         style="stop-color:#474747;stop-opacity:1;"
         offset="0.46936065"
         id="stop23" /><stop
         style="stop-color:#121212;stop-opacity:1;"
         offset="0.625"
         id="stop28" /><stop
         style="stop-color:#f8f8f8;stop-opacity:1;"
         offset="0.75"
         id="stop24" /><stop
         style="stop-color:#484848;stop-opacity:1;"
         offset="0.875"
         id="stop25" /><stop
         style="stop-color:#060606;stop-opacity:1;"
         offset="1"
         id="stop20" /></linearGradient><linearGradient
       id="linearGradient16"
       inkscape:collect="always"><stop
         style="stop-color:#f2f2f2;stop-opacity:0.16878049;"
         offset="0"
         id="stop17" /><stop
         style="stop-color:#f2f2f2;stop-opacity:0;"
         offset="1"
         id="stop18" /></linearGradient><linearGradient
       id="linearGradient15"
       inkscape:collect="always"><stop
         style="stop-color:#f2f2f2;stop-opacity:0.21853659;"
         offset="0"
         id="stop15" /><stop
         style="stop-color:#f2f2f2;stop-opacity:0;"
         offset="1"
         id="stop16" /></linearGradient><radialGradient
       inkscape:collect="always"
       xlink:href="#linearGradient15"
       id="radialGradient16"
       cx="82.505226"
       cy="195.60403"
       fx="82.505226"
       fy="195.60403"
       r="60.002894"
       gradientTransform="matrix(1.1113569,0.02227138,-0.01033469,0.51570804,-20.64277,82.158157)"
       gradientUnits="userSpaceOnUse" /><radialGradient
       inkscape:collect="always"
       xlink:href="#linearGradient16"
       id="radialGradient18"
       cx="175.20665"
       cy="195.17873"
       fx="175.20665"
       fy="195.17873"
       r="59.201084"
       gradientTransform="matrix(1.2212155,-0.03160224,0.01352427,0.52262269,-36.659397,88.402329)"
       gradientUnits="userSpaceOnUse" /><linearGradient
       inkscape:collect="always"
       xlink:href="#linearGradient18"
       id="linearGradient20"
       x1="-45.289433"
       y1="184.90234"
       x2="253.43277"
       y2="15.186195"
       gradientUnits="userSpaceOnUse" /><linearGradient
       id="linearGradient6"
       inkscape:collect="always"><stop
         style="stop-color:#f5f2f2;stop-opacity:0.83923703;"
         offset="0"
         id="stop6" /><stop
         style="stop-color:#f5f2f2;stop-opacity:0;"
         offset="1"
         id="stop7" /></linearGradient><linearGradient
       id="linearGradient3"
       inkscape:collect="always"><stop
         style="stop-color:#af0000;stop-opacity:1;"
         offset="0"
         id="stop3" /><stop
         style="stop-color:#ff5858;stop-opacity:1;"
         offset="1"
         id="stop4" /></linearGradient><linearGradient
       id="linearGradient1"
       inkscape:collect="always"><stop
         style="stop-color:#f50303;stop-opacity:1;"
         offset="0"
         id="stop1" /><stop
         style="stop-color:#9f0101;stop-opacity:1;"
         offset="1"
         id="stop2" /></linearGradient><linearGradient
       id="light100to0"><stop
         style="stop-color:#ffffff;stop-opacity:0.79848868;"
         offset="0"
         id="stop2764" /><stop
         style="stop-color:#ffffff;stop-opacity:0.0000000;"
         offset="1.0000000"
         id="stop2765" /></linearGradient><linearGradient
       inkscape:collect="always"
       xlink:href="#linearGradient1"
       id="linearGradient2"
       x1="105.90414"
       y1="72.731186"
       x2="178.87457"
       y2="186.90758"
       gradientUnits="userSpaceOnUse" /><linearGradient
       inkscape:collect="always"
       xlink:href="#linearGradient3"
       id="linearGradient4"
       x1="132.8768"
       y1="114.1599"
       x2="132.8768"
       y2="134.82962"
       gradientUnits="userSpaceOnUse" /><linearGradient
       inkscape:collect="always"
       xlink:href="#linearGradient6"
       id="linearGradient7"
       x1="117.8369"
       y1="44.153515"
       x2="150.74196"
       y2="237.01367"
       gradientUnits="userSpaceOnUse" /></defs><sodipodi:namedview
     id="base"
     pagecolor="#ffffff"
     bordercolor="#000000"
     borderopacity="0.3"
     inkscape:pageopacity="0.0"
     inkscape:pageshadow="2"
     inkscape:zoom="0.49497475"
     inkscape:cx="850.54845"
     inkscape:cy="1031.3658"
     inkscape:document-units="mm"
     inkscape:showpageshadow="2"
     inkscape:pagecheckerboard="0"
     inkscape:deskcolor="#d1d1d1"
     inkscape:current-layer="svg1"
     showguides="true"><sodipodi:guide
       position="247.5744,226.13987"
       orientation="0,-1"
       id="guide1"
       inkscape:locked="false" /><sodipodi:guide
       position="122.08631,80.24107"
       orientation="0,-1"
       id="guide2"
       inkscape:locked="false" /><sodipodi:guide
       position="207.8869,50.002976"
       orientation="0,-1"
       id="guide3"
       inkscape:locked="false" /><sodipodi:guide
       position="9.4494044,237.47916"
       orientation="1,0"
       id="guide4"
       inkscape:locked="false" /><sodipodi:guide
       position="45.357141,231.05357"
       orientation="1,0"
       id="guide5"
       inkscape:locked="false" /><sodipodi:guide
       position="215.8244,25.812501"
       orientation="1,0"
       id="guide6"
       inkscape:locked="false" /><sodipodi:guide
       position="182.18452,197.79166"
       orientation="0,-1"
       id="guide7"
       inkscape:locked="false" /><sodipodi:guide
       position="247.5744,142.60714"
       orientation="1,0"
       id="guide8"
       inkscape:locked="false" /><sodipodi:guide
       position="128.88988,154.3244"
       orientation="1,0"
       id="guide9"
       inkscape:locked="false" /><sodipodi:guide
       position="106.21131,137.31547"
       orientation="0,-1"
       id="guide10"
       inkscape:locked="false" /></sodipodi:namedview><metadata
     id="metadata1"><rdf:RDF><cc:Work
         rdf:about=""><dc:format>image/svg+xml</dc:format><dc:type
           rdf:resource="http://purl.org/dc/dcmitype/StillImage" /><cc:license
           rdf:resource="http://creativecommons.org/publicdomain/zero/1.0/" /></cc:Work><cc:License
         rdf:about="http://creativecommons.org/publicdomain/zero/1.0/"><cc:permits
           rdf:resource="http://creativecommons.org/ns#Reproduction" /><cc:permits
           rdf:resource="http://creativecommons.org/ns#Distribution" /><cc:permits
           rdf:resource="http://creativecommons.org/ns#DerivativeWorks" /></cc:License></rdf:RDF></metadata><g
     id="rect1"
     transform="matrix(1.0350232,0,0,1.0350232,-5.5845329,-4.931141)"><path
       style="color:#000000;fill:#727272;fill-opacity:1;stroke-linecap:round;stroke-linejoin:round;-inkscape-stroke:none"
       d="m 44.60119,30.238092 h 171.26036 c 21.29684,0 32.16513,11.121052 32.16513,27.592262 V 176.67108 c 0,17.17469 -13.53596,29.26037 -32.12798,29.26037 H 45.394293 c -27.793191,0 -35.5669119,-10.71662 -35.5669119,-29.86012 V 58.364533 c 0,-24.300885 16.1011029,-28.126441 34.7738089,-28.126441 z"
       id="path12"
       inkscape:label="colorhead" /><rect
       style="fill:#c6c6c6;fill-opacity:1;stroke:none;stroke-width:1;stroke-linecap:round;stroke-linejoin:round;stroke-dasharray:none;stroke-opacity:1"
       id="rect13"
       width="2.4568405"
       height="58.397324"
       x="127.75594"
       y="147.97768"
       inkscape:label="middlestroke" /><path
       style="color:#000000;fill:url(#radialGradient16);fill-opacity:1;stroke-linecap:round;stroke-linejoin:round;-inkscape-stroke:none"
       d="m 129.09174,151.10742 v 25.56366 c 0,17.17469 5.44018,29.26037 -13.15184,29.26037 H 45.394293 c -27.793191,0 -35.5669119,-10.71662 -35.5669119,-29.86012 v -26.30062 c 0,-7.55423 119.2643589,-8.18983 119.2643589,1.33671 z"
       id="path14"
       inkscape:label="left"
       sodipodi:nodetypes="sssssss" /><path
       style="color:#000000;fill:url(#radialGradient18);fill-opacity:1;stroke-linecap:round;stroke-linejoin:round;-inkscape-stroke:none"
       d="m 129.50376,151.10742 v 25.56366 c 0,17.17469 -5.44018,29.26037 13.15184,29.26037 h 68.94199 c 27.79319,0 35.56691,-10.71662 35.56691,-29.86012 v -26.30062 c 0,-7.55423 -117.66074,-8.18983 -117.66074,1.33671 z"
       id="path15"
       inkscape:label="right"
       sodipodi:nodetypes="sssssss" /><path
       style="color:#000000;display:inline;fill:url(#linearGradient20);stroke-linecap:round;stroke-linejoin:round;-inkscape-stroke:none"
       d="m 44.601562,27.238281 c -9.541217,0 -18.764882,0.875953 -25.984375,5.410156 C 11.397695,37.182641 6.828125,45.552232 6.828125,58.365234 V 176.07227 c 0,9.97781 2.0822022,18.46767 8.310547,24.29882 6.228345,5.83116 15.973694,8.56055 30.255859,8.56055 H 215.89844 c 19.89209,0 35.1289,-13.50883 35.1289,-32.25977 V 57.830078 c 0,-8.895432 -3.03025,-16.751856 -9.08984,-22.203125 -6.05959,-5.451269 -14.90557,-8.388672 -26.07617,-8.388672 z m 0,6 H 215.86133 c 10.12622,0 17.36374,2.62256 22.0625,6.84961 4.69875,4.227049 7.10351,10.166425 7.10351,17.742187 V 176.67187 c 0,15.59841 -11.83699,26.25977 -29.1289,26.25977 H 45.394531 c -13.510997,0 -21.549447,-2.62839 -26.15625,-6.94141 -4.606802,-4.31302 -6.410156,-10.7523 -6.410156,-19.91796 V 58.365234 c 0,-11.487858 3.479293,-17.18293 8.978516,-20.636718 5.499223,-3.453788 13.663452,-4.490235 22.794921,-4.490235 z"
       id="path11"
       inkscape:label="frame" /><path
       style="color:#000000;fill:#949494;fill-opacity:1;stroke-linecap:round;stroke-linejoin:round;-inkscape-stroke:none"
       d="m 44.601562,29.423724 c -9.455848,0.0099 -18.258757,0.976451 -25.11986,5.285568 C 12.620599,39.018409 8.9993026,45.828312 9.0135683,58.365234 L 9.1472031,175.805 c 0.011161,9.8086 1.8899039,17.13489 7.7804279,22.64977 5.890523,5.51488 14.345396,8.01846 28.4669,8.02416 l 170.503909,0.0688 c 19.35039,0.008 32.94832,-11.59269 32.93396,-29.68685 L 248.7379,57.830098 c -0.007,-8.620497 -2.52173,-15.132274 -8.29781,-20.328497 -5.77608,-5.196224 -13.43677,-8.268814 -24.38978,-8.257348 z m 0,2.564557 H 215.86133 c 10.3438,0 17.91617,2.687827 22.89844,7.169922 4.98226,4.482095 7.51757,10.821182 7.51757,18.671875 V 176.67187 c 0,16.25519 -12.54529,27.50977 -30.3789,27.50977 H 45.394531 c -13.671657,0 -22.065141,-2.65 -27.009765,-7.2793 -4.944624,-4.62929 -6.806641,-11.49521 -6.806641,-20.83007 V 58.365234 c 0,-11.76393 3.706841,-18.016438 9.564453,-21.695312 5.857613,-3.678875 14.242151,-4.681641 23.458984,-4.681641 z"
       id="path13"
       sodipodi:nodetypes="ssssssssssssssssssssssss" /></g><g
     id="rect1-5"
     style="display:inline"
     transform="matrix(0.54454372,0,0,0.54454372,115.30256,116.17122)"><g
       id="g8"
       style="display:inline"><path
         id="path1"
         style="color:#000000;display:inline;fill:#000000;fill-opacity:0.192575;stroke-linecap:round;stroke-linejoin:round;stroke-miterlimit:2.5;-inkscape-stroke:none"
         d="m 45.930531,3.6989991 c -0.838294,-0.062799 -1.688824,-0.053374 -2.534729,0.01912 -3.383617,0.2899782 -6.74819,1.5727408 -9.234578,3.4747233 C 24.150716,14.850463 15.350125,23.570192 7.1515016,34.222202 c -2.4027983,3.12182 -2.76677,7.23039 -1.7378784,11.285099 1.0288916,4.054709 3.4347025,8.120167 6.7339568,11.39672 l 68.94928,68.474379 -0.249597,2.87528 -71.400811,72.3222 c -1.8482803,1.87217 -2.8483339,4.81289 -3.2008382,7.70082 -0.3525044,2.88795 -0.1058752,5.7285 1.1911417,7.55665 7.4790195,10.54169 18.7204305,23.2417 31.1681245,32.88895 2.13358,1.65356 4.836878,2.2154 7.624858,1.65416 2.787981,-0.56124 5.673154,-2.20662 8.392769,-4.90823 a 0.94309432,0.94309432 0 0 0 0.0057,-0.006 l 69.623153,-70.5528 c 1.49311,-1.51303 2.3689,-1.98097 2.90835,-1.97301 0.53945,0.008 1.30985,0.50577 2.58382,1.77974 a 0.94309432,0.94309432 0 0 0 0.004,0.004 l 73.77741,72.92785 c 2.32786,2.30107 5.54115,3.4045 8.65632,3.46077 3.11517,0.0563 6.18108,-0.923 8.21449,-2.99413 l 27.04899,-27.55077 c 1.76767,-1.80046 2.99156,-4.85817 3.32435,-8.11113 0.33279,-3.25296 -0.27015,-6.76145 -2.61328,-9.18549 l -72.99038,-75.5096 a 0.94309432,0.94309432 0 0 0 -0.0119,-0.0119 c -0.95142,-0.95142 -1.32644,-1.58349 -1.38855,-1.90996 -0.0615,-0.32332 0.0301,-0.59605 0.5333,-1.23042 l 72.04315,-72.879277 c 2.05407,-2.077982 3.36483,-5.47802 3.79667,-8.898165 0.43184,-3.420146 0.004,-6.926918 -2.06448,-9.089885 L 222.7611,7.2750082 c -2.61212,-2.7309795 -6.38733,-3.7849815 -10.08001,-3.5646403 -3.69267,0.2203412 -7.358,1.6933697 -9.90069,4.1956096 L 130.38224,79.153826 c -0.89459,0.880356 -1.5605,1.160843 -2.06654,1.167887 -0.50603,0.007 -1.04382,-0.241661 -1.73065,-0.925525 C 126.57805,79.389088 74.579411,27.026314 52.696527,6.4605877 50.85083,4.7259859 48.445415,3.8873973 45.930531,3.6989991 Z"
         inkscape:label="shadow" /><path
         id="path3"
         style="color:#000000;display:inline;fill:#000000;fill-opacity:0.192575;stroke-linecap:round;stroke-linejoin:round;stroke-miterlimit:2.5;-inkscape-stroke:none"
         d="M 48.047199,3.1698324 C 47.208905,3.1070334 46.358375,3.1164584 45.51247,3.1889524 42.128853,3.4789306 38.76428,4.7616932 36.277892,6.6636757 26.267384,14.321296 17.466793,23.041025 9.2681684,33.693035 c -2.4027983,3.12182 -2.76677,7.23039 -1.7378784,11.285099 1.0288916,4.054709 3.434703,8.120167 6.733958,11.39672 l 68.94928,68.474376 -0.249597,2.87528 -71.400812,72.3222 c -1.8482805,1.87217 -2.8483341,4.81289 -3.2008384,7.70082 -0.3525044,2.88795 -0.1058752,5.7285 1.1911417,7.55665 7.4790207,10.54169 18.7204317,23.2417 31.1681257,32.88895 2.13358,1.65356 4.836878,2.2154 7.624858,1.65416 2.787981,-0.56124 5.673154,-2.20662 8.392769,-4.90823 a 0.94309432,0.94309432 0 0 0 0.0057,-0.006 l 69.623165,-70.5528 c 1.49311,-1.51303 2.3689,-1.98097 2.90835,-1.97301 0.53945,0.008 1.30985,0.50577 2.58382,1.77974 a 0.94309432,0.94309432 0 0 0 0.004,0.004 l 73.77741,72.92785 c 2.32786,2.30107 5.54115,3.4045 8.65632,3.46077 3.11517,0.0563 6.18108,-0.923 8.21449,-2.99413 l 27.04899,-27.55077 c 1.76767,-1.80046 2.99156,-4.85817 3.32435,-8.11113 0.33279,-3.25296 -0.27015,-6.76145 -2.61328,-9.18549 l -72.99038,-75.5096 a 0.94309432,0.94309432 0 0 0 -0.0119,-0.0119 c -0.95142,-0.95142 -1.32644,-1.58349 -1.38855,-1.90996 -0.0615,-0.32332 0.0301,-0.59605 0.5333,-1.23042 l 72.04315,-72.879274 c 2.05407,-2.077982 3.36483,-5.47802 3.79667,-8.898165 0.43184,-3.420146 0.004,-6.926918 -2.06448,-9.089885 L 224.87778,6.7458415 C 222.26566,4.014862 218.49045,2.96086 214.79777,3.1812012 c -3.69267,0.2203412 -7.358,1.6933697 -9.90069,4.1956096 L 132.49892,78.624659 c -0.89459,0.880356 -1.5605,1.160843 -2.06654,1.167887 -0.50603,0.007 -1.04382,-0.241661 -1.73065,-0.925525 -0.007,-0.0071 -52.005651,-52.369874 -73.888535,-72.9356 C 52.967498,4.1968192 50.562083,3.3582306 48.047199,3.1698324 Z"
         inkscape:label="shadow" /><path
         id="path7"
         style="color:#000000;display:inline;fill:#000000;fill-opacity:0.192575;stroke-linecap:round;stroke-linejoin:round;stroke-miterlimit:2.5;-inkscape-stroke:none"
         d="M 43.284696,5.2864992 C 42.446402,5.2237002 41.595872,5.2331252 40.749967,5.3056192 37.36635,5.5955974 34.001777,6.87836 31.515389,8.7803425 21.504881,16.437964 12.70429,25.157693 4.5056681,35.809703 c -2.4027983,3.12182 -2.76677,7.23039 -1.7378784,11.285099 1.0288916,4.054709 3.4347027,8.120167 6.7339556,11.39672 l 68.9492797,68.474388 -0.249597,2.87528 -71.4008099,72.3222 c -1.8482799,1.87217 -2.8483335,4.81289 -3.2008378,7.70082 -0.3525044,2.88795 -0.1058752,5.7285 1.1911417,7.55665 7.479018,10.54169 18.720429,23.2417 31.168123,32.88895 2.13358,1.65356 4.836878,2.2154 7.624858,1.65416 2.787981,-0.56124 5.673154,-2.20662 8.392769,-4.90823 a 0.94309432,0.94309432 0 0 0 0.0057,-0.006 l 69.623138,-70.5528 c 1.49311,-1.51303 2.3689,-1.98097 2.90835,-1.97301 0.53945,0.008 1.30985,0.50577 2.58382,1.77974 a 0.94309432,0.94309432 0 0 0 0.004,0.004 l 73.77741,72.92785 c 2.32786,2.30107 5.54115,3.4045 8.65632,3.46077 3.11517,0.0563 6.18108,-0.923 8.21449,-2.99413 l 27.04899,-27.55077 c 1.76767,-1.80046 2.99156,-4.85817 3.32435,-8.11113 0.33279,-3.25296 -0.27015,-6.76145 -2.61328,-9.18549 l -72.99038,-75.5096 a 0.94309432,0.94309432 0 0 0 -0.0119,-0.0119 c -0.95142,-0.95142 -1.32644,-1.58349 -1.38855,-1.90996 -0.0615,-0.32332 0.0301,-0.59605 0.5333,-1.23042 l 72.04315,-72.879286 c 2.05407,-2.077982 3.36483,-5.47802 3.79667,-8.898165 0.43184,-3.420146 0.004,-6.926918 -2.06448,-9.089885 L 220.11525,8.8625083 c -2.61212,-2.7309795 -6.38733,-3.7849815 -10.08001,-3.5646403 -3.69267,0.2203412 -7.358,1.6933697 -9.90069,4.1956096 L 127.73639,80.741327 c -0.89459,0.880356 -1.5605,1.160843 -2.06654,1.167887 -0.50603,0.007 -1.04382,-0.241661 -1.73065,-0.925525 C 123.9322,80.976589 71.933576,28.613815 50.050692,8.0480878 48.204995,6.313486 45.79958,5.4748974 43.284696,5.2864992 Z"
         inkscape:label="shadow" /><path
         id="path8"
         style="color:#000000;display:inline;fill:#000000;fill-opacity:0.192575;stroke-linecap:round;stroke-linejoin:round;stroke-miterlimit:2.5;-inkscape-stroke:none"
         d="m 46.988865,6.8739993 c -0.838294,-0.062799 -1.688824,-0.053374 -2.534729,0.01912 -3.383617,0.2899782 -6.74819,1.5727408 -9.234578,3.4747237 -10.010508,7.657622 -18.811099,16.377351 -27.009723,27.029361 -2.4027983,3.12182 -2.76677,7.23039 -1.7378784,11.285099 1.0288916,4.054709 3.4347027,8.120167 6.7339574,11.39672 l 68.94928,68.474397 -0.249597,2.87528 -71.400812,72.3222 c -1.8482801,1.87217 -2.8483335,4.81289 -3.2008378,7.70082 -0.3525044,2.88795 -0.1058752,5.7285 1.1911417,7.55665 7.4790201,10.54169 18.7204311,23.2417 31.1681251,32.88895 2.13358,1.65356 4.836878,2.2154 7.624858,1.65416 2.787981,-0.56124 5.673154,-2.20662 8.392769,-4.90823 a 0.94309432,0.94309432 0 0 0 0.0057,-0.006 l 69.623159,-70.5528 c 1.49311,-1.51303 2.3689,-1.98097 2.90835,-1.97301 0.53945,0.008 1.30985,0.50577 2.58382,1.77974 a 0.94309432,0.94309432 0 0 0 0.004,0.004 l 73.77741,72.92785 c 2.32786,2.30107 5.54115,3.4045 8.65632,3.46077 3.11517,0.0563 6.18108,-0.923 8.21449,-2.99413 l 27.04899,-27.55077 c 1.76767,-1.80046 2.99156,-4.85817 3.32435,-8.11113 0.33279,-3.25296 -0.27015,-6.76145 -2.61328,-9.18549 l -72.99038,-75.5096 a 0.94309432,0.94309432 0 0 0 -0.0119,-0.0119 c -0.95142,-0.95142 -1.32644,-1.58349 -1.38855,-1.90996 -0.0615,-0.32332 0.0301,-0.59605 0.5333,-1.23042 l 72.04315,-72.879295 c 2.05407,-2.077982 3.36483,-5.47802 3.79667,-8.898165 0.43184,-3.420146 0.004,-6.926918 -2.06448,-9.089885 L 223.81944,10.450008 c -2.61212,-2.7309791 -6.38733,-3.7849811 -10.08001,-3.5646399 -3.69267,0.2203412 -7.358,1.6933697 -9.90069,4.1956099 l -72.39816,71.24785 c -0.89459,0.880356 -1.5605,1.160843 -2.06654,1.167887 -0.50603,0.007 -1.04382,-0.241661 -1.73065,-0.925525 C 127.63639,82.56409 75.637745,30.201316 53.754861,9.6355883 51.909164,7.9009861 49.503749,7.0623975 46.988865,6.8739993 Z"
         inkscape:label="shadow" /><path
         id="path9"
         style="color:#000000;display:inline;fill:#000000;fill-opacity:0.192575;stroke-linecap:round;stroke-linejoin:round;stroke-miterlimit:2.5;-inkscape-stroke:none"
         d="m 49.6347,7.403166 c -0.838294,-0.062799 -1.688824,-0.053374 -2.534729,0.01912 -3.383617,0.2899782 -6.74819,1.5727408 -9.234578,3.474724 -10.010508,7.657622 -18.811099,16.377351 -27.009724,27.029361 -2.4027988,3.12182 -2.7667705,7.23039 -1.7378789,11.285099 1.0288919,4.054709 3.4347039,8.120167 6.7339589,11.39672 l 68.94928,68.4744 -0.249597,2.87528 -71.400812,72.3222 c -1.848281,1.87217 -2.848335,4.81289 -3.2008397,7.70082 -0.352504,2.88795 -0.105875,5.7285 1.1911427,7.55665 7.479021,10.54169 18.720432,23.2417 31.168126,32.88895 2.13358,1.65356 4.836878,2.2154 7.624858,1.65416 2.787981,-0.56124 5.673154,-2.20662 8.392769,-4.90823 a 0.94309432,0.94309432 0 0 0 0.0057,-0.006 l 69.623174,-70.5528 c 1.49311,-1.51303 2.3689,-1.98097 2.90835,-1.97301 0.53945,0.008 1.30985,0.50577 2.58382,1.77974 a 0.94309432,0.94309432 0 0 0 0.004,0.004 l 73.77741,72.92785 c 2.32786,2.30107 5.54115,3.4045 8.65632,3.46077 3.11517,0.0563 6.18108,-0.923 8.21449,-2.99413 l 27.04899,-27.55077 c 1.76767,-1.80046 2.99156,-4.85817 3.32435,-8.11113 0.33279,-3.25296 -0.27015,-6.76145 -2.61328,-9.18549 l -72.99038,-75.5096 a 0.94309432,0.94309432 0 0 0 -0.0119,-0.0119 c -0.95142,-0.95142 -1.32644,-1.58349 -1.38855,-1.90996 -0.0615,-0.32332 0.0301,-0.59605 0.5333,-1.23042 l 72.04315,-72.879298 c 2.05407,-2.077982 3.36483,-5.47802 3.79667,-8.898165 0.43184,-3.420146 0.004,-6.926918 -2.06448,-9.089885 L 226.46529,10.979175 c -2.61212,-2.7309794 -6.38733,-3.7849814 -10.08001,-3.5646402 -3.69267,0.2203412 -7.358,1.6933697 -9.90069,4.1956102 l -72.39816,71.24785 c -0.89459,0.880356 -1.5605,1.160843 -2.06654,1.167887 -0.50603,0.007 -1.04382,-0.241661 -1.73065,-0.925525 -0.007,-0.0071 -52.00566,-52.369874 -73.888544,-72.935602 C 54.554999,8.4301528 52.149584,7.5915642 49.6347,7.403166 Z"
         inkscape:label="shadow" /></g><path
       style="color:#000000;display:inline;fill:url(#linearGradient2);stroke-linecap:round;stroke-linejoin:round;stroke-miterlimit:2.5;-inkscape-stroke:none"
       d="M 10.166934,54.647266 C 3.7987158,48.322865 0.8792173,38.892785 5.2536154,33.209374 13.405073,22.618642 22.141284,13.964213 32.089383,6.3543333 36.728019,2.8059712 44.987474,1.4084672 49.404941,5.5600417 71.250459,26.09065 123.27406,78.476015 123.27406,78.476015 c 1.57455,1.567754 3.14043,1.712932 5.12319,-0.238286 L 200.79693,6.9897698 c 4.6965,-4.6217842 13.87429,-5.630045 18.63626,-0.6513977 L 244.74611,32.80306 c 3.48331,3.641807 1.92045,12.986927 -1.72214,16.671924 l -72.10406,72.943506 c -1.1709,1.46879 -1.07531,2.40946 0.9216,4.40637 l 72.99081,75.51113 c 4.15676,4.30029 2.35307,12.8633 -0.70718,15.98032 l -27.04852,27.5503 c -3.60013,3.66691 -11.28644,3.7234 -15.53472,-0.47599 L 127.76419,172.4619 c -2.61661,-2.6166 -3.74036,-2.93199 -6.82916,0.19799 l -69.623789,70.55222 c -5.236849,5.20218 -10.941338,6.14743 -14.773824,3.17717 C 24.189475,236.81934 12.987609,224.16887 5.5600424,213.6997 3.4940368,210.78766 4.2580099,202.90755 7.4726721,199.65134 l 71.6387769,-72.56467 0.317717,-3.65375 z"
       id="path4" /><path
       style="color:#000000;display:inline;fill:url(#linearGradient7);fill-opacity:0.584687;stroke-linecap:round;stroke-linejoin:round;stroke-miterlimit:2.5;-inkscape-stroke:none"
       d="M 10.166934,54.647266 C 3.7987158,48.322865 0.8792173,38.892785 5.2536154,33.209374 13.405073,22.618642 22.141284,13.964213 32.089383,6.3543333 36.728019,2.8059712 44.987474,1.4084672 49.404941,5.5600417 71.250459,26.09065 123.27406,78.476015 123.27406,78.476015 c 1.57455,1.567754 3.14043,1.712932 5.12319,-0.238286 L 200.79693,6.9897698 c 4.6965,-4.6217842 13.87429,-5.630045 18.63626,-0.6513977 L 244.74611,32.80306 c 3.48331,3.641807 1.91114,12.977749 -1.72214,16.671924 l -50.08742,50.926866 c -40.29164,-2.497193 -77.38061,8.27381 -113.507384,23.03107 z"
       id="path6"
       sodipodi:nodetypes="sssscscsssccs" /><path
       style="color:#000000;display:inline;fill:url(#linearGradient4);stroke-linecap:round;stroke-linejoin:round;stroke-miterlimit:2.5;-inkscape-stroke:none"
       d="m 210.03516,2.1230469 c -3.69268,0.2203414 -7.3577,1.6930701 -9.90039,4.1953125 L 127.73633,77.566406 c -0.89459,0.880357 -1.56037,1.160925 -2.06641,1.167969 -0.50603,0.007 -1.04364,-0.241917 -1.73047,-0.925781 C 123.93239,77.801479 71.933687,25.438793 50.050781,4.8730469 47.58985,2.5602422 44.133621,1.8408809 40.75,2.1308594 37.366379,2.4208379 34.002015,3.7034843 31.515625,5.6054687 21.505107,13.263096 12.704489,21.982746 4.5058594,32.634766 2.1030587,35.75659 1.7386855,39.865209 2.7675781,43.919922 c 1.0288926,4.054713 3.4351183,8.119928 6.734375,11.396484 l 68.9492189,68.474614 -0.25,2.875 -71.4003908,72.32226 c -1.8482821,1.87217 -2.8486671,4.81323 -3.2011718,7.70117 -0.3525047,2.88795 -0.105612,5.72849 1.1914062,7.55664 7.4790254,10.5417 18.7202614,23.24142 31.1679684,32.88868 2.133582,1.65357 4.837017,2.21553 7.625,1.65429 2.787984,-0.56124 5.67296,-2.20659 8.392578,-4.9082 a 0.94309432,0.94309432 0 0 0 0.0059,-0.006 l 69.623048,-70.55273 c 1.49311,-1.51303 2.36875,-1.98062 2.9082,-1.97266 0.53945,0.008 1.31002,0.50533 2.58399,1.7793 a 0.94309432,0.94309432 0 0 0 0.004,0.004 l 73.77735,72.92774 c 2.32786,2.30107 5.54108,3.40466 8.65625,3.46093 3.11517,0.0563 6.18143,-0.92301 8.21484,-2.99414 l 27.04883,-27.55078 c 1.76767,-1.80046 2.99143,-4.85836 3.32422,-8.11133 0.33279,-3.25296 -0.27015,-6.7615 -2.61328,-9.18554 l -72.99024,-75.50977 a 0.94309432,0.94309432 0 0 0 -0.0117,-0.0117 c -0.95142,-0.95142 -1.32656,-1.58368 -1.38867,-1.91015 -0.0615,-0.32332 0.03,-0.5961 0.5332,-1.23047 l 72.04297,-72.878908 c 2.05407,-2.077984 3.36504,-5.478289 3.79688,-8.898438 0.43184,-3.420149 0.004,-6.926874 -2.06446,-9.089843 L 220.11523,5.6875 C 217.50311,2.9565177 213.72784,1.9027054 210.03516,2.1230469 Z m 0.11132,1.8828125 c 3.26083,-0.1945728 6.45563,0.736715 8.60547,2.984375 l 25.3125,26.4648436 c 1.41448,1.478834 1.94605,4.464723 1.55664,7.548828 -0.38941,3.084106 -1.67906,6.201584 -3.26757,7.808594 L 170.25,121.75586 a 0.94309432,0.94309432 0 0 0 -0.0684,0.0742 c -0.65441,0.8209 -1.10821,1.75924 -0.91602,2.76953 0.1922,1.01029 0.86272,1.84709 1.90821,2.89258 l 72.98047,75.5 c 1.81362,1.87624 2.38672,4.79877 2.09179,7.68164 -0.29492,2.88286 -1.50039,5.66587 -2.79297,6.98242 l -27.04882,27.54883 c -1.56672,1.59578 -4.14391,2.47828 -6.83399,2.42969 -2.69008,-0.0486 -5.44482,-1.01575 -7.36523,-2.91407 l -73.77344,-72.92578 -0.004,-0.004 c -1.34064,-1.34036 -2.43952,-2.30677 -3.88671,-2.32813 -1.44878,-0.0214 -2.68167,0.9182 -4.27735,2.53516 l -69.623045,70.55078 c -2.51519,2.49659 -5.100092,3.92361 -7.429688,4.39258 -2.331589,0.46936 -4.396802,0.0198 -6.095703,-1.29688 -12.248152,-9.4926 -23.409063,-22.09362 -30.7851559,-32.49023 -0.7689853,-1.08389 -1.1740672,-3.64217 -0.8574219,-6.23633 0.3166454,-2.59417 1.3054982,-5.21948 2.6718751,-6.60352 L 79.783203,127.75 a 0.94309432,0.94309432 0 0 0 0.267578,-0.58203 l 0.31836,-3.6543 a 0.94309432,0.94309432 0 0 0 -0.275391,-0.75 L 10.832031,53.978516 C 7.7630762,50.930677 5.5250128,47.11735 4.5957031,43.455078 3.6663934,39.792806 4.028407,36.346737 6,33.785156 14.104269,23.255733 22.776449,14.665632 32.662109,7.1035156 34.81435,5.4571415 37.90003,4.2677355 40.910156,4.0097656 43.920283,3.7517958 46.803234,4.4092812 48.759766,6.2480469 70.566365,26.742079 122.60547,79.140625 122.60547,79.140625 a 0.94309432,0.94309432 0 0 0 0.004,0.0039 c 0.88772,0.883889 1.9197,1.490843 3.08593,1.47461 1.16623,-0.01623 2.27511,-0.638126 3.36328,-1.708985 l 72.4003,-71.2480406 c 2.15381,-2.1195373 5.42668,-3.4616773 8.6875,-3.65625 z"
       id="path5" /></g></svg>
