<?xml version="1.0" encoding="UTF-8" standalone="no"?>
<svg
   width="256"
   height="256"
   viewBox="0 0.446 256 256"
   overflow="visible"
   enable-background="new 0 0.446 123 98"
   xml:space="preserve"
   version="1.1"
   id="svg18"
   sodipodi:docname="project-development-close-all.svg"
   inkscape:version="1.3.2 (091e20ef0f, 2023-11-25)"
   xmlns:inkscape="http://www.inkscape.org/namespaces/inkscape"
   xmlns:sodipodi="http://sodipodi.sourceforge.net/DTD/sodipodi-0.dtd"
   xmlns:xlink="http://www.w3.org/1999/xlink"
   xmlns="http://www.w3.org/2000/svg"
   xmlns:svg="http://www.w3.org/2000/svg"
   xmlns:rdf="http://www.w3.org/1999/02/22-rdf-syntax-ns#"
   xmlns:cc="http://creativecommons.org/ns#"><defs
   id="defs18"><linearGradient
     inkscape:collect="always"
     xlink:href="#linearGradient13"
     id="linearGradient16"
     x1="88.659706"
     y1="148.46748"
     x2="88.659706"
     y2="7.1063023"
     gradientUnits="userSpaceOnUse" /><linearGradient
     id="linearGradient13"
     inkscape:collect="always"><stop
       style="stop-color:#8eaed4;stop-opacity:1;"
       offset="0"
       id="stop15" /><stop
       style="stop-color:#919da4;stop-opacity:0.74901962;"
       offset="0.79934877"
       id="stop27" /><stop
       style="stop-color:#b8d9f9;stop-opacity:0;"
       offset="0.82713395"
       id="stop26" /><stop
       style="stop-color:#b8d9f9;stop-opacity:0;"
       offset="1"
       id="stop16" /></linearGradient><radialGradient
     inkscape:collect="always"
     xlink:href="#linearGradient27"
     id="radialGradient29"
     cx="-33.473286"
     cy="-3.255795"
     fx="-33.473286"
     fy="-3.255795"
     r="108.97374"
     gradientTransform="matrix(-2.7721064,-0.01226302,0.0036588,-0.82707942,131.13091,-31.743571)"
     gradientUnits="userSpaceOnUse" /><linearGradient
     id="linearGradient27"
     inkscape:collect="always"><stop
       style="stop-color:#929eac;stop-opacity:0.43137255;"
       offset="0"
       id="stop28" /><stop
       style="stop-color:#929eac;stop-opacity:0;"
       offset="1"
       id="stop29" /></linearGradient><radialGradient
     inkscape:collect="always"
     xlink:href="#linearGradient90"
     id="radialGradient89"
     gradientUnits="userSpaceOnUse"
     gradientTransform="matrix(-1.7080861,-0.02533196,0.00933869,-0.62968889,173.14632,-28.809881)"
     cx="-20.23815"
     cy="5.9818068"
     fx="-20.23815"
     fy="5.9818068"
     r="108.97374" /><linearGradient
     id="linearGradient90"
     inkscape:collect="always"><stop
       style="stop-color:#55a3ff;stop-opacity:1;"
       offset="0"
       id="stop89" /><stop
       style="stop-color:#929eac;stop-opacity:0;"
       offset="1"
       id="stop90" /></linearGradient><linearGradient
     inkscape:collect="always"
     xlink:href="#linearGradient29"
     id="linearGradient31"
     x1="161.88123"
     y1="-29.867367"
     x2="161.88123"
     y2="-24.121073"
     gradientUnits="userSpaceOnUse" /><linearGradient
     id="linearGradient29"
     inkscape:collect="always"><stop
       style="stop-color:#e8ebf0;stop-opacity:1;"
       offset="0"
       id="stop30" /><stop
       style="stop-color:#e8ebf0;stop-opacity:1;"
       offset="0.59999996"
       id="stop32" /><stop
       style="stop-color:#cddaf0;stop-opacity:1;"
       offset="0.68000001"
       id="stop33" /><stop
       style="stop-color:#a0adbf;stop-opacity:1;"
       offset="1"
       id="stop31" /></linearGradient><linearGradient
     inkscape:collect="always"
     xlink:href="#linearGradient36"
     id="linearGradient37"
     x1="159.62625"
     y1="-29.266012"
     x2="159.62625"
     y2="-29.566689"
     gradientUnits="userSpaceOnUse" /><linearGradient
     id="linearGradient36"
     inkscape:collect="always"><stop
       style="stop-color:#b5b8c3;stop-opacity:1;"
       offset="0"
       id="stop36" /><stop
       style="stop-color:#b5b8c3;stop-opacity:0;"
       offset="1"
       id="stop37" /></linearGradient><linearGradient
     inkscape:collect="always"
     xlink:href="#linearGradient44"
     id="linearGradient45"
     x1="66.415581"
     y1="61.981407"
     x2="66.415581"
     y2="-18.606083"
     gradientUnits="userSpaceOnUse" /><linearGradient
     id="linearGradient44"
     inkscape:collect="always"><stop
       style="stop-color:#cdcdcd;stop-opacity:1;"
       offset="0"
       id="stop44" /><stop
       style="stop-color:#dadada;stop-opacity:1;"
       offset="0.45317727"
       id="stop46" /><stop
       style="stop-color:#e6e7e7;stop-opacity:1;"
       offset="0.80351168"
       id="stop47" /><stop
       style="stop-color:#fcfcfb;stop-opacity:1;"
       offset="1"
       id="stop45" /></linearGradient><linearGradient
     inkscape:collect="always"
     xlink:href="#linearGradient29"
     id="linearGradient1"
     gradientUnits="userSpaceOnUse"
     x1="161.88123"
     y1="-29.867367"
     x2="161.88123"
     y2="-24.121073" /><linearGradient
     inkscape:collect="always"
     xlink:href="#linearGradient36"
     id="linearGradient2"
     gradientUnits="userSpaceOnUse"
     x1="159.62625"
     y1="-29.266012"
     x2="159.62625"
     y2="-29.566689" /><linearGradient
     inkscape:collect="always"
     xlink:href="#linearGradient29"
     id="linearGradient3"
     gradientUnits="userSpaceOnUse"
     x1="161.88123"
     y1="-29.867367"
     x2="161.88123"
     y2="-24.121073" /><linearGradient
     inkscape:collect="always"
     xlink:href="#linearGradient36"
     id="linearGradient4"
     gradientUnits="userSpaceOnUse"
     x1="159.62625"
     y1="-29.266012"
     x2="159.62625"
     y2="-29.566689" /><radialGradient
     inkscape:collect="always"
     xlink:href="#linearGradient10-9"
     id="radialGradient11"
     cx="-16.271111"
     cy="37.550156"
     fx="-16.271111"
     fy="37.550156"
     r="40.407207"
     gradientTransform="matrix(0.3341795,0.37652794,-0.63373321,0.56245664,42.85393,4.3437086)"
     gradientUnits="userSpaceOnUse" /><linearGradient
     id="linearGradient10-9"
     inkscape:collect="always"><stop
       style="stop-color:#ff9c03;stop-opacity:1;"
       offset="0"
       id="stop10-3" /><stop
       style="stop-color:#ff9c03;stop-opacity:0;"
       offset="1"
       id="stop11-9" /></linearGradient><radialGradient
     inkscape:collect="always"
     xlink:href="#linearGradient10-9"
     id="radialGradient13"
     gradientUnits="userSpaceOnUse"
     gradientTransform="matrix(0.3341795,0.37652794,-0.63373321,0.56245664,42.85393,4.3437086)"
     cx="63.188004"
     cy="5.9587388"
     fx="63.188004"
     fy="5.9587388"
     r="40.407207" /><radialGradient
     inkscape:collect="always"
     xlink:href="#linearGradient16-5"
     id="radialGradient14"
     gradientUnits="userSpaceOnUse"
     gradientTransform="matrix(-0.28232225,0.26990872,-0.44597638,-0.46648755,93.404413,51.855703)"
     cx="86.455597"
     cy="41.201305"
     fx="86.455597"
     fy="41.201305"
     r="40.407207" /><linearGradient
     id="linearGradient16-5"
     inkscape:collect="always"><stop
       style="stop-color:#d78200;stop-opacity:1;"
       offset="0"
       id="stop15-0" /><stop
       style="stop-color:#ff9c03;stop-opacity:0;"
       offset="1"
       id="stop16-9" /></linearGradient><radialGradient
     inkscape:collect="always"
     xlink:href="#linearGradient10-9"
     id="radialGradient15"
     gradientUnits="userSpaceOnUse"
     gradientTransform="matrix(0.16802264,0.29989669,-0.71539711,0.40081441,59.292237,17.448086)"
     cx="50.653622"
     cy="72.908531"
     fx="50.653622"
     fy="72.908531"
     r="40.407207" /><radialGradient
     inkscape:collect="always"
     xlink:href="#linearGradient17"
     id="radialGradient18"
     cx="33.224983"
     cy="44.325386"
     fx="33.224983"
     fy="44.325386"
     r="37.001587"
     gradientTransform="matrix(1,0,0,0.68656717,0,5.6571168)"
     gradientUnits="userSpaceOnUse" /><linearGradient
     id="linearGradient17"
     inkscape:collect="always"><stop
       style="stop-color:#ffffff;stop-opacity:0.09536785;"
       offset="0"
       id="stop17-8" /><stop
       style="stop-color:#ffffff;stop-opacity:0.68392372;"
       offset="1"
       id="stop18-5" /></linearGradient><linearGradient
     inkscape:collect="always"
     xlink:href="#linearGradient13"
     id="linearGradient32"
     gradientUnits="userSpaceOnUse"
     x1="88.659706"
     y1="148.46748"
     x2="88.659706"
     y2="7.1063023" /><radialGradient
     inkscape:collect="always"
     xlink:href="#linearGradient27"
     id="radialGradient32"
     gradientUnits="userSpaceOnUse"
     gradientTransform="matrix(-2.7721064,-0.01226302,0.0036588,-0.82707942,131.13091,-31.743571)"
     cx="-33.473286"
     cy="-3.255795"
     fx="-33.473286"
     fy="-3.255795"
     r="108.97374" /><radialGradient
     inkscape:collect="always"
     xlink:href="#linearGradient90"
     id="radialGradient33"
     gradientUnits="userSpaceOnUse"
     gradientTransform="matrix(-1.7080861,-0.02533196,0.00933869,-0.62968889,173.14632,-28.809881)"
     cx="-20.23815"
     cy="5.9818068"
     fx="-20.23815"
     fy="5.9818068"
     r="108.97374" /><linearGradient
     inkscape:collect="always"
     xlink:href="#linearGradient29"
     id="linearGradient33"
     gradientUnits="userSpaceOnUse"
     x1="161.88123"
     y1="-29.867367"
     x2="161.88123"
     y2="-24.121073" /><linearGradient
     inkscape:collect="always"
     xlink:href="#linearGradient36"
     id="linearGradient34"
     gradientUnits="userSpaceOnUse"
     x1="159.62625"
     y1="-29.266012"
     x2="159.62625"
     y2="-29.566689" /><linearGradient
     inkscape:collect="always"
     xlink:href="#linearGradient29"
     id="linearGradient35"
     gradientUnits="userSpaceOnUse"
     x1="161.88123"
     y1="-29.867367"
     x2="161.88123"
     y2="-24.121073" /><linearGradient
     inkscape:collect="always"
     xlink:href="#linearGradient36"
     id="linearGradient38"
     gradientUnits="userSpaceOnUse"
     x1="159.62625"
     y1="-29.266012"
     x2="159.62625"
     y2="-29.566689" /><linearGradient
     inkscape:collect="always"
     xlink:href="#linearGradient29"
     id="linearGradient39"
     gradientUnits="userSpaceOnUse"
     x1="161.88123"
     y1="-29.867367"
     x2="161.88123"
     y2="-24.121073" /><linearGradient
     inkscape:collect="always"
     xlink:href="#linearGradient36"
     id="linearGradient40"
     gradientUnits="userSpaceOnUse"
     x1="159.62625"
     y1="-29.266012"
     x2="159.62625"
     y2="-29.566689" /><linearGradient
     inkscape:collect="always"
     xlink:href="#linearGradient44"
     id="linearGradient41"
     gradientUnits="userSpaceOnUse"
     x1="66.415581"
     y1="61.981407"
     x2="66.415581"
     y2="-18.606083" /><linearGradient
     inkscape:collect="always"
     xlink:href="#linearGradient1-0"
     id="linearGradient2-6"
     x1="105.90414"
     y1="72.731186"
     x2="178.87457"
     y2="186.90758"
     gradientUnits="userSpaceOnUse" /><linearGradient
     id="linearGradient1-0"
     inkscape:collect="always"><stop
       style="stop-color:#f50303;stop-opacity:1;"
       offset="0"
       id="stop1" /><stop
       style="stop-color:#9f0101;stop-opacity:1;"
       offset="1"
       id="stop2" /></linearGradient><linearGradient
     inkscape:collect="always"
     xlink:href="#linearGradient6"
     id="linearGradient7"
     x1="117.8369"
     y1="44.153515"
     x2="150.74196"
     y2="237.01367"
     gradientUnits="userSpaceOnUse" /><linearGradient
     id="linearGradient6"
     inkscape:collect="always"><stop
       style="stop-color:#f5f2f2;stop-opacity:0.83923703;"
       offset="0"
       id="stop6" /><stop
       style="stop-color:#f5f2f2;stop-opacity:0;"
       offset="1"
       id="stop7" /></linearGradient><linearGradient
     inkscape:collect="always"
     xlink:href="#linearGradient3-6"
     id="linearGradient4-2"
     x1="132.8768"
     y1="114.1599"
     x2="132.8768"
     y2="134.82962"
     gradientUnits="userSpaceOnUse" /><linearGradient
     id="linearGradient3-6"
     inkscape:collect="always"><stop
       style="stop-color:#af0000;stop-opacity:1;"
       offset="0"
       id="stop3" /><stop
       style="stop-color:#ff5858;stop-opacity:1;"
       offset="1"
       id="stop4" /></linearGradient></defs><sodipodi:namedview
   id="namedview18"
   pagecolor="#ffffff"
   bordercolor="#000000"
   borderopacity="0.25"
   inkscape:showpageshadow="2"
   inkscape:pageopacity="0.0"
   inkscape:pagecheckerboard="0"
   inkscape:deskcolor="#d1d1d1"
   inkscape:zoom="2.9634146"
   inkscape:cx="193.8642"
   inkscape:cy="207.86832"
   inkscape:current-layer="g31" />
	
<metadata
   id="metadata1"><rdf:RDF><cc:Work
       rdf:about=""><cc:license
         rdf:resource="http://creativecommons.org/publicdomain/zero/1.0/" /></cc:Work><cc:License
       rdf:about="http://creativecommons.org/publicdomain/zero/1.0/"><cc:permits
         rdf:resource="http://creativecommons.org/ns#Reproduction" /><cc:permits
         rdf:resource="http://creativecommons.org/ns#Distribution" /><cc:permits
         rdf:resource="http://creativecommons.org/ns#DerivativeWorks" /></cc:License></rdf:RDF></metadata><g
   id="rect2"
   style="display:inline"
   inkscape:label="window"
   transform="matrix(1.266296,0,0,1.266296,-69.798205,79.640748)"><path
     style="color:#000000;fill:#eff2f4;stroke-linecap:round;stroke-linejoin:round;stroke-miterlimit:5;-inkscape-stroke:none"
     d="M 64.406583,-31.270535 H 201.52123 c 1.3326,0 2.40542,1.07282 2.40542,2.405426 v 99.528104 c 0,1.3326 -1.07282,2.40542 -2.40542,2.40542 H 64.406583 c -1.332606,0 -2.405426,-1.07282 -2.405426,-2.40542 v -99.528104 c 0,-1.332606 1.07282,-2.405426 2.405426,-2.405426 z"
     id="path8-0"
     sodipodi:nodetypes="sssssssss" /><g
     id="g10"><path
       style="color:#000000;fill:#f7f8f9;fill-opacity:1;stroke-linecap:round;stroke-linejoin:round;stroke-miterlimit:5;-inkscape-stroke:none"
       d="m 69.455611,-30.129321 c -2.728007,0.01136 -4.997759,2.277842 -5.00586,5.00586 l -0.267269,90.000459 c -0.0081,2.728012 2.277829,5.00586 5.00586,5.00586 H 198.04698 c 2.72804,0 5.01391,-2.277848 5.00586,-5.00586 L 202.78557,-25.658 c -0.008,-2.728019 -2.27784,-5.017224 -5.00586,-5.00586 z m -1.408305,9.744754 130.103244,-1.135895 0.0506,85.85102 -130.529038,2.09704 z"
       id="path9"
       sodipodi:nodetypes="sssssssssccccc" /><path
       style="color:#000000;fill:#f7f8f9;fill-opacity:1;stroke-linecap:round;stroke-linejoin:round;stroke-miterlimit:5;-inkscape-stroke:none"
       d="m 68.148551,-30.129321 c -2.728008,0.01125 -4.99802,2.277841 -5.00586,5.00586 l -0.267269,93.00421 c -0.0078,2.728012 2.277829,5.00586 5.00586,5.00586 H 198.04698 c 2.72804,0 5.01365,-2.277848 5.00586,-5.00586 L 202.78557,-25.658 c -0.008,-2.72802 -2.27784,-5.017109 -5.00586,-5.00586 z m -1.408305,9.744754 133.583664,-1.135895 0.33409,90.744651 -135.521371,0.86862 z"
       id="path11"
       sodipodi:nodetypes="sssssssssccccc" /><path
       style="color:#000000;fill:url(#linearGradient16);stroke-linecap:round;stroke-linejoin:round;stroke-miterlimit:5;-inkscape-stroke:none"
       d="m 66.151352,-30.530225 c -2.728031,0.0014 -2.859492,-0.328036 -2.867704,2.399982 l -0.294946,97.984618 c -0.0082,2.728012 1.837789,1.760372 4.565815,1.76538 l 130.492463,0.23958 c 2.72804,0.005 4.51164,0.26128 4.51047,-1.3309 l -0.0716,-97.723235 c -0.002,-2.728029 0.62775,-3.403601 -2.10029,-3.402243 z m -0.0051,10.145658 133.871288,-1.135895 -0.0925,90.051477 -134.714201,0.86862 z"
       id="path12-9"
       sodipodi:nodetypes="sssssssssccccc" /><path
       id="path13"
       style="color:#000000;display:inline;fill:url(#radialGradient29);stroke-linecap:round;stroke-linejoin:round;stroke-miterlimit:5;-inkscape-stroke:none"
       d="m 154.3234,-30.217537 -86.174976,0.823101 c -2.72802,0.007 -5.001599,1.542881 -5.005896,4.270905 l -0.267167,89.307136 c -0.0043,2.72802 2.277868,5.0059 5.005896,5.0059 H 198.04683 c 2.72803,0 5.01017,-2.27788 5.00589,-5.0059 l -0.26716,-89.84147 c -0.002,-1.465318 0.48586,-3.331642 -0.54468,-4.254743 l -1.27567,-0.146337 c 0.0722,1.858924 0.2163,3.721355 0.11812,5.584987 -0.0358,0.679603 -0.5478,1.228348 -1.22835,1.228348 h -44.79003 c -0.68054,0 -1.22886,-0.547803 -1.22886,-1.228348 v -4.768444 c 0,-0.40017 0.19286,-0.751124 0.48731,-0.975135 z m 45.56244,8.696887 0.0342,86.981025 -134.783328,0.9355 1.603519,-86.780677 z"
       sodipodi:nodetypes="ccccssccccssssscccccc" /><path
       id="path89"
       style="color:#000000;display:inline;fill:url(#radialGradient89);stroke-linecap:round;stroke-linejoin:round;stroke-miterlimit:5;-inkscape-stroke:none"
       d="m 154.3234,-30.217537 -86.338358,0.823101 c -2.72802,0.007 -5.001599,1.542881 -5.005896,4.270905 l -0.267167,90.000309 c -0.0043,2.72802 2.277868,5.0059 5.005896,5.0059 H 198.04683 c 2.72803,0 5.01017,-2.27788 5.00589,-5.0059 l -0.26716,-90.534643 c -0.002,-1.465318 0.48586,-3.331642 -0.54468,-4.254743 l -1.27567,-0.146337 c 0.0722,1.858924 0.2163,3.721355 0.11812,5.584987 -0.0358,0.679603 -0.5478,1.228348 -1.22835,1.228348 h -44.79003 c -0.68054,0 -1.22886,-0.547803 -1.22886,-1.228348 v -4.768444 c 0,-0.40017 0.19286,-0.751124 0.48731,-0.975135 z m 45.56244,8.696887 0.0342,87.674198 -134.94671,0.9355 1.603519,-87.47385 z"
       sodipodi:nodetypes="ccccssccccssssscccccc" /></g><path
     style="color:#000000;fill:#626262;stroke-linecap:round;stroke-linejoin:round;stroke-miterlimit:5;-inkscape-stroke:none"
     d="m 63.426483,-32.011719 c -1.730301,0 -3.146485,3.146485 -3.146485,3.146485 v 99.758367 c 0,1.73029 1.416184,3.14648 3.146485,3.14648 H 201.52148 c 1.7303,0 3.14649,-1.41619 3.14649,-3.14648 v -99.758367 c 0,-1.730301 -1.41619,-3.146485 -3.14649,-3.146485 z m 0,1.482422 H 201.52148 c 0.9349,0 1.66407,0.729154 1.66407,1.664063 v 99.758367 c 0,0.9349 -0.72917,1.66601 -1.66407,1.66601 H 63.426483 c -0.934909,0 -1.664063,-0.73111 -1.664063,-1.66601 v -99.758367 c 0,-0.934909 0.729154,-1.664063 1.664063,-1.664063 z"
     id="path7"
     sodipodi:nodetypes="scssssssssssssssss" /><g
     id="g29"
     transform="matrix(1,0,0,1.1537366,0,3.6671575)"
     style="display:inline"><g
       id="rect29"><path
         style="color:#000000;fill:url(#linearGradient1);stroke-linecap:round;stroke-linejoin:round;stroke-miterlimit:5;-inkscape-stroke:none"
         d="m 154.94949,-29.800549 h 13.02939 v 5.746295 h -13.02939 z"
         id="path37" /><path
         id="rect43"
         style="fill:#d3d5da;fill-opacity:1;stroke:#7a7d95;stroke-width:0.8;stroke-linecap:round;stroke-linejoin:round;stroke-miterlimit:5;stroke-dasharray:none;stroke-opacity:1"
         d="m 158.59106,-28.464206 h 6.18061 l -3.30746,3.741773 z"
         sodipodi:nodetypes="cccc"
         transform="matrix(1,0,0,0.86674897,0,-3.178505)" /><path
         style="color:#000000;fill:url(#linearGradient2);stroke-linecap:round;stroke-linejoin:round;stroke-miterlimit:5;-inkscape-stroke:none"
         d="m 154.94922,-30 a 0.20002,0.20002 0 0 0 -0.19922,0.199219 v 5.746094 a 0.20002,0.20002 0 0 0 0.19922,0.201171 h 13.0293 a 0.20002,0.20002 0 0 0 0.20117,-0.201171 v -5.746094 A 0.20002,0.20002 0 0 0 167.97852,-30 Z m 0.20117,0.400391 h 12.62891 v 5.345703 h -12.62891 z"
         id="path38" /></g><g
       id="g40"
       transform="translate(13.040179)"><path
         style="color:#000000;fill:url(#linearGradient3);stroke-linecap:round;stroke-linejoin:round;stroke-miterlimit:5;-inkscape-stroke:none"
         d="m 154.94949,-29.800549 h 13.02939 v 5.746295 h -13.02939 z"
         id="path39" /><path
         id="path43"
         style="fill:#d1d3d8;fill-opacity:1;stroke:#7a7d95;stroke-width:0.8;stroke-linecap:round;stroke-linejoin:round;stroke-miterlimit:5;stroke-dasharray:none;stroke-opacity:1"
         d="m 170.96978,-25.809138 h 6.18061 l -3.30746,-3.741773 z"
         sodipodi:nodetypes="cccc"
         transform="matrix(1,0,0,0.86674897,-13.040179,-3.178505)" /><path
         style="color:#000000;fill:url(#linearGradient4);stroke-linecap:round;stroke-linejoin:round;stroke-miterlimit:5;-inkscape-stroke:none"
         d="m 154.94922,-30 a 0.20002,0.20002 0 0 0 -0.19922,0.199219 v 5.746094 a 0.20002,0.20002 0 0 0 0.19922,0.201171 h 13.0293 a 0.20002,0.20002 0 0 0 0.20117,-0.201171 v -5.746094 A 0.20002,0.20002 0 0 0 167.97852,-30 Z m 0.20117,0.400391 h 12.62891 v 5.345703 h -12.62891 z"
         id="path40" /></g><g
       id="g42"
       transform="matrix(1.4432807,0,0,1,-42.422831,0)"><path
         style="color:#000000;fill:url(#linearGradient31);stroke-linecap:round;stroke-linejoin:round;stroke-miterlimit:5;-inkscape-stroke:none"
         d="m 154.94949,-29.800549 h 13.02939 v 5.746295 h -13.02939 z"
         id="path41" /><path
         id="path44"
         style="display:inline;fill:#d1d3d8;fill-opacity:1;stroke:#7a7d95;stroke-width:0.6;stroke-linecap:round;stroke-linejoin:round;stroke-miterlimit:5;stroke-dasharray:none;stroke-opacity:1"
         d="m 188.7526,-24.977208 1.72434,-1.700556 1.41847,1.702531 1.36465,-0.01696 0.0357,-0.890508 -1.44462,-1.406509 -0.0209,-0.329911 1.47217,-1.656095 -5.3e-4,-0.72247 -1.18933,0.03405 -1.67094,1.607143 -1.80594,-1.603371 -1.18281,0.0042 0.006,0.829298 1.51481,1.504836 -0.004,0.30903 -1.47786,1.3814 -0.008,1.006498 z"
         sodipodi:nodetypes="ccccccccccccccccccc"
         transform="matrix(0.69286592,0,0,0.86674897,29.393334,-3.178505)" /><path
         style="color:#000000;fill:url(#linearGradient37);stroke-linecap:round;stroke-linejoin:round;stroke-miterlimit:5;-inkscape-stroke:none"
         d="m 154.94922,-30 a 0.20002,0.20002 0 0 0 -0.19922,0.199219 v 5.746094 a 0.20002,0.20002 0 0 0 0.19922,0.201171 h 13.0293 a 0.20002,0.20002 0 0 0 0.20117,-0.201171 v -5.746094 A 0.20002,0.20002 0 0 0 167.97852,-30 Z m 0.20117,0.400391 h 12.62891 v 5.345703 h -12.62891 z"
         id="path42" /></g></g><g
     id="rect44"
     transform="matrix(0.99780999,0,0,1,-0.02989453,0)"><path
       style="color:#000000;fill:url(#linearGradient45);stroke-linecap:round;stroke-linejoin:round;stroke-miterlimit:5;-inkscape-stroke:none"
       d="M 66.642008,-20.847023 H 199.51985 V 67.622346 H 66.642008 Z"
       id="path87"
       sodipodi:nodetypes="ccccc" /><path
       style="color:#000000;fill:#2c3848;stroke-linecap:round;stroke-linejoin:round;stroke-miterlimit:5;-inkscape-stroke:none"
       d="m 66.641279,-21.246094 c -0.219686,8.78e-4 -0.39756,0.178751 -0.398438,0.398438 v 88.470772 c 8.83e-4,0.21968 0.178755,0.39755 0.398438,0.39843 H 199.51953 c 0.22045,1.9e-4 0.3995,-0.17799 0.40039,-0.39843 v -88.470772 c -8.8e-4,-0.220447 -0.17994,-0.398633 -0.40039,-0.398438 z m 0.40039,0.798828 H 199.11914 V 67.222726 H 67.041669 Z"
       id="path88"
       sodipodi:nodetypes="cccccccccccccc" /></g></g><g
   id="g18"
   transform="matrix(0.78074292,0,0,0.78074292,94.627865,109.17403)"><path
     id="rect16"
     style="fill:#063eab;stroke-width:0.363519;stroke-linecap:round;stroke-linejoin:round;stroke-miterlimit:2.1"
     d="m -84.91848,-52.697243 h 19.139168 v 19.139168 H -84.91848 Z" /><path
     id="path16"
     style="fill:#063eab;stroke-width:0.363519;stroke-linecap:round;stroke-linejoin:round;stroke-miterlimit:2.1"
     d="m -44.834563,8.3314229 h 19.139168 V 27.470591 h -19.139168 z" /><path
     id="path17"
     style="fill:#063eab;stroke-width:0.363519;stroke-linecap:round;stroke-linejoin:round;stroke-miterlimit:2.1"
     d="m -36.16777,-34.641425 h 19.139168 v 19.139168 H -36.16777 Z" /><path
     id="path18"
     style="fill:#063eab;stroke-width:0.363519;stroke-linecap:round;stroke-linejoin:round;stroke-miterlimit:2.1"
     d="M 9.6940085,-53.05836 H 28.833176 v 19.139168 H 9.6940085 Z" /></g><g
   id="rect1-6"
   transform="matrix(1.5660983,0,0,1.5660983,126.24118,21.104263)"
   inkscape:label="neww7"
   style="display:none"><path
     style="color:#000000;display:inline;fill:#ffdc4d;stroke-linecap:round;stroke-linejoin:round;stroke-miterlimit:2.5;-inkscape-stroke:none"
     d="M 0.64150696,7.0036536 24.941057,16.944379 30.463682,-10.668747 36.722657,16.392116 60.83812,7.5559161 51.633745,31.395247 79.430957,37.562179 50.897395,42.992761 61.390382,67.752531 36.354482,57.443631 30.647769,81.927268 24.941057,57.627718 0.08924445,67.936618 9.4777071,44.281374 -17.767243,37.562179 9.1095321,31.579335 Z"
     id="path1-1" /><path
     style="color:#000000;fill:url(#radialGradient11);stroke-width:0.862938;stroke-linecap:round;stroke-linejoin:round;stroke-miterlimit:2.5;-inkscape-stroke:none"
     d="M 4.5296582,10.977644 26.251984,19.658493 30.511099,-2.6550135 35.595819,19.370538 56.605502,11.81786 48.586539,32.194356 70.594757,37.465497 47.945022,42.107248 57.82299,64.375006 35.27506,54.459024 30.671477,74.465796 26.251984,54.432283 4.2326079,63.980091 11.859688,43.20868 -10.219654,37.833672 11.53893,32.719879 Z"
     id="path3-1"
     sodipodi:nodetypes="ccccccccccccccccc" /><path
     style="color:#000000;fill:url(#radialGradient13);fill-opacity:1;stroke-width:0.862938;stroke-linecap:round;stroke-linejoin:round;stroke-miterlimit:2.5;-inkscape-stroke:none"
     d="M 4.5296582,10.977644 26.251984,19.658493 30.511099,-2.6550135 35.595819,19.370538 56.605502,11.81786 48.586539,32.194356 70.594757,37.465497 47.945022,42.107248 57.82299,64.375006 35.27506,54.459024 30.671477,74.465796 26.251984,54.432283 4.2326079,63.980091 11.859688,43.20868 -10.219654,37.833672 11.53893,32.719879 Z"
     id="path13-5"
     sodipodi:nodetypes="ccccccccccccccccc" /><path
     style="color:#000000;fill:url(#radialGradient14);fill-opacity:1;stroke-width:0.862938;stroke-linecap:round;stroke-linejoin:round;stroke-miterlimit:2.5;-inkscape-stroke:none"
     d="M 4.5296582,10.977644 26.251984,19.658493 30.511099,-2.6550135 35.595819,19.370538 56.605502,11.81786 48.586539,32.194356 70.594757,37.465497 47.945022,42.107248 57.82299,64.375006 35.27506,54.459024 30.671477,74.465796 26.251984,54.432283 4.2326079,63.980091 11.859688,43.20868 -10.219654,37.833672 11.53893,32.719879 Z"
     id="path14-9"
     sodipodi:nodetypes="ccccccccccccccccc" /><path
     style="color:#000000;fill:url(#radialGradient15);fill-opacity:1;stroke-width:0.862938;stroke-linecap:round;stroke-linejoin:round;stroke-miterlimit:2.5;-inkscape-stroke:none"
     d="M 4.5296582,10.977644 26.251984,19.658493 30.511099,-2.6550135 35.595819,19.370538 56.605502,11.81786 48.586539,32.194356 70.594757,37.465497 47.945022,42.107248 57.82299,64.375006 35.27506,54.459024 30.671477,74.465796 26.251984,54.432283 4.2326079,63.980091 11.859688,43.20868 -10.219654,37.833672 11.53893,32.719879 Z"
     id="path15-8"
     sodipodi:nodetypes="ccccccccccccccccc" /><path
     id="rect15"
     style="fill:url(#radialGradient18);stroke-width:1.83709;stroke-linecap:round;stroke-linejoin:round;stroke-miterlimit:2.5"
     d="M 0.64149786,7.3718223 24.664917,17.12846 30.463672,-7.3551779 37.274909,16.208022 60.285847,8.3843032 53.842784,26.516922 c -17.212192,2.258621 -29.581082,5.522625 -43.260561,16.93605 l -24.29955,-5.798756 23.0109375,-6.489084 z"
     sodipodi:nodetypes="cccccccccc" /><path
     style="color:#000000;display:inline;fill:#e79917;stroke-linecap:round;stroke-linejoin:round;stroke-miterlimit:2.5;-inkscape-stroke:none"
     d="M 30.449219,-11.585938 A 0.91863919,0.91863919 0 0 0 29.5625,-10.849609 L 24.259766,15.671875 0.99023438,6.1542969 A 0.91863919,0.91863919 0 0 0 -0.2265625,7.3027344 L 7.90625,30.90625 -17.966797,36.666016 a 0.91863919,0.91863919 0 0 0 -0.01953,1.787109 l 26.220703,6.46875 -8.99804687,22.675781 a 0.91863919,0.91863919 0 0 0 1.20507812,1.1875 L 24.294922,58.890625 29.753906,82.136719 a 0.91863919,0.91863919 0 0 0 1.789063,0 l 5.460937,-23.431641 24.03711,9.896484 a 0.91863919,0.91863919 0 0 0 1.195312,-1.207031 L 52.185547,43.681641 79.603516,38.464844 a 0.91863919,0.91863919 0 0 0 0.02734,-1.798828 L 52.875,30.730469 61.695312,7.8867187 A 0.91863919,0.91863919 0 0 0 60.521484,6.6933594 L 37.382812,15.171875 31.359375,-10.875 a 0.91863919,0.91863919 0 0 0 -0.910156,-0.710938 z m 0.08008,5.2773443 5.298828,22.9082027 a 0.91863919,0.91863919 0 0 0 1.210937,0.654297 L 59.25,9.1152344 50.777344,31.064453 a 0.91863919,0.91863919 0 0 0 0.658203,1.226563 l 23.445312,5.203125 -24.154297,4.595703 a 0.91863919,0.91863919 0 0 0 -0.675781,1.261718 L 59.671875,66.050781 36.705078,56.59375 a 0.91863919,0.91863919 0 0 0 -1.246094,0.640625 L 30.644531,77.898437 25.835937,57.417969 A 0.91863919,0.91863919 0 0 0 24.589844,56.779297 L 1.7460937,66.253906 10.332031,44.621094 A 0.91863919,0.91863919 0 0 0 9.6972656,43.388672 L -13.744141,37.607422 9.3085938,32.476562 A 0.91863919,0.91863919 0 0 0 9.9785156,31.279297 L 2.1699219,8.6210938 24.59375,17.794922 A 0.91863919,0.91863919 0 0 0 25.841797,17.125 Z"
     id="path2"
     inkscape:label="frame" /></g><g
   id="g28"
   style="display:inline"
   inkscape:label="window"
   transform="matrix(1.266296,0,0,1.266296,-19.855818,120.13458)"><path
     style="color:#000000;fill:#eff2f4;stroke-linecap:round;stroke-linejoin:round;stroke-miterlimit:5;-inkscape-stroke:none"
     d="M 64.406583,-31.270535 H 201.52123 c 1.3326,0 2.40542,1.07282 2.40542,2.405426 v 99.528104 c 0,1.3326 -1.07282,2.40542 -2.40542,2.40542 H 64.406583 c -1.332606,0 -2.405426,-1.07282 -2.405426,-2.40542 v -99.528104 c 0,-1.332606 1.07282,-2.405426 2.405426,-2.405426 z"
     id="path3"
     sodipodi:nodetypes="sssssssss" /><g
     id="g11"><path
       style="color:#000000;fill:#f7f8f9;fill-opacity:1;stroke-linecap:round;stroke-linejoin:round;stroke-miterlimit:5;-inkscape-stroke:none"
       d="m 69.455611,-30.129321 c -2.728007,0.01136 -4.997759,2.277842 -5.00586,5.00586 l -0.267269,90.000459 c -0.0081,2.728012 2.277829,5.00586 5.00586,5.00586 H 198.04698 c 2.72804,0 5.01391,-2.277848 5.00586,-5.00586 L 202.78557,-25.658 c -0.008,-2.728019 -2.27784,-5.017224 -5.00586,-5.00586 z m -1.408305,9.744754 130.103244,-1.135895 0.0506,85.85102 -130.529038,2.09704 z"
       id="path4"
       sodipodi:nodetypes="sssssssssccccc" /><path
       style="color:#000000;fill:#f7f8f9;fill-opacity:1;stroke-linecap:round;stroke-linejoin:round;stroke-miterlimit:5;-inkscape-stroke:none"
       d="m 68.148551,-30.129321 c -2.728008,0.01125 -4.99802,2.277841 -5.00586,5.00586 l -0.267269,93.00421 c -0.0078,2.728012 2.277829,5.00586 5.00586,5.00586 H 198.04698 c 2.72804,0 5.01365,-2.277848 5.00586,-5.00586 L 202.78557,-25.658 c -0.008,-2.72802 -2.27784,-5.017109 -5.00586,-5.00586 z m -1.408305,9.744754 133.583664,-1.135895 0.33409,90.744651 -135.521371,0.86862 z"
       id="path5"
       sodipodi:nodetypes="sssssssssccccc" /><path
       style="color:#000000;fill:url(#linearGradient32);stroke-linecap:round;stroke-linejoin:round;stroke-miterlimit:5;-inkscape-stroke:none"
       d="m 66.151352,-30.530225 c -2.728031,0.0014 -2.859492,-0.328036 -2.867704,2.399982 l -0.294946,97.984618 c -0.0082,2.728012 1.837789,1.760372 4.565815,1.76538 l 130.492463,0.23958 c 2.72804,0.005 4.51164,0.26128 4.51047,-1.3309 l -0.0716,-97.723235 c -0.002,-2.728029 0.62775,-3.403601 -2.10029,-3.402243 z m -0.0051,10.145658 133.871288,-1.135895 -0.0925,90.051477 -134.714201,0.86862 z"
       id="path6"
       sodipodi:nodetypes="sssssssssccccc" /><path
       id="path8"
       style="color:#000000;display:inline;fill:url(#radialGradient32);stroke-linecap:round;stroke-linejoin:round;stroke-miterlimit:5;-inkscape-stroke:none"
       d="m 154.3234,-30.217537 -86.174976,0.823101 c -2.72802,0.007 -5.001599,1.542881 -5.005896,4.270905 l -0.267167,89.307136 c -0.0043,2.72802 2.277868,5.0059 5.005896,5.0059 H 198.04683 c 2.72803,0 5.01017,-2.27788 5.00589,-5.0059 l -0.26716,-89.84147 c -0.002,-1.465318 0.48586,-3.331642 -0.54468,-4.254743 l -1.27567,-0.146337 c 0.0722,1.858924 0.2163,3.721355 0.11812,5.584987 -0.0358,0.679603 -0.5478,1.228348 -1.22835,1.228348 h -44.79003 c -0.68054,0 -1.22886,-0.547803 -1.22886,-1.228348 v -4.768444 c 0,-0.40017 0.19286,-0.751124 0.48731,-0.975135 z m 45.56244,8.696887 0.0342,86.981025 -134.783328,0.9355 1.603519,-86.780677 z"
       sodipodi:nodetypes="ccccssccccssssscccccc" /><path
       id="path10"
       style="color:#000000;display:inline;fill:url(#radialGradient33);stroke-linecap:round;stroke-linejoin:round;stroke-miterlimit:5;-inkscape-stroke:none"
       d="m 154.3234,-30.217537 -86.338358,0.823101 c -2.72802,0.007 -5.001599,1.542881 -5.005896,4.270905 l -0.267167,90.000309 c -0.0043,2.72802 2.277868,5.0059 5.005896,5.0059 H 198.04683 c 2.72803,0 5.01017,-2.27788 5.00589,-5.0059 l -0.26716,-90.534643 c -0.002,-1.465318 0.48586,-3.331642 -0.54468,-4.254743 l -1.27567,-0.146337 c 0.0722,1.858924 0.2163,3.721355 0.11812,5.584987 -0.0358,0.679603 -0.5478,1.228348 -1.22835,1.228348 h -44.79003 c -0.68054,0 -1.22886,-0.547803 -1.22886,-1.228348 v -4.768444 c 0,-0.40017 0.19286,-0.751124 0.48731,-0.975135 z m 45.56244,8.696887 0.0342,87.674198 -134.94671,0.9355 1.603519,-87.47385 z"
       sodipodi:nodetypes="ccccssccccssssscccccc" /></g><path
     style="color:#000000;fill:#626262;stroke-linecap:round;stroke-linejoin:round;stroke-miterlimit:5;-inkscape-stroke:none"
     d="m 63.426483,-32.011719 c -1.730301,0 -3.146485,3.146485 -3.146485,3.146485 v 99.758367 c 0,1.73029 1.416184,3.14648 3.146485,3.14648 H 201.52148 c 1.7303,0 3.14649,-1.41619 3.14649,-3.14648 v -99.758367 c 0,-1.730301 -1.41619,-3.146485 -3.14649,-3.146485 z m 0,1.482422 H 201.52148 c 0.9349,0 1.66407,0.729154 1.66407,1.664063 v 99.758367 c 0,0.9349 -0.72917,1.66601 -1.66407,1.66601 H 63.426483 c -0.934909,0 -1.664063,-0.73111 -1.664063,-1.66601 v -99.758367 c 0,-0.934909 0.729154,-1.664063 1.664063,-1.664063 z"
     id="path12"
     sodipodi:nodetypes="scssssssssssssssss" /><g
     id="g26"
     transform="matrix(1,0,0,1.1537366,0,3.6671575)"
     style="display:inline"><g
       id="g19"><path
         style="color:#000000;fill:url(#linearGradient33);stroke-linecap:round;stroke-linejoin:round;stroke-miterlimit:5;-inkscape-stroke:none"
         d="m 154.94949,-29.800549 h 13.02939 v 5.746295 h -13.02939 z"
         id="path14" /><path
         id="path15"
         style="fill:#d3d5da;fill-opacity:1;stroke:#7a7d95;stroke-width:0.8;stroke-linecap:round;stroke-linejoin:round;stroke-miterlimit:5;stroke-dasharray:none;stroke-opacity:1"
         d="m 158.59106,-28.464206 h 6.18061 l -3.30746,3.741773 z"
         sodipodi:nodetypes="cccc"
         transform="matrix(1,0,0,0.86674897,0,-3.178505)" /><path
         style="color:#000000;fill:url(#linearGradient34);stroke-linecap:round;stroke-linejoin:round;stroke-miterlimit:5;-inkscape-stroke:none"
         d="m 154.94922,-30 a 0.20002,0.20002 0 0 0 -0.19922,0.199219 v 5.746094 a 0.20002,0.20002 0 0 0 0.19922,0.201171 h 13.0293 a 0.20002,0.20002 0 0 0 0.20117,-0.201171 v -5.746094 A 0.20002,0.20002 0 0 0 167.97852,-30 Z m 0.20117,0.400391 h 12.62891 v 5.345703 h -12.62891 z"
         id="path19" /></g><g
       id="g22"
       transform="translate(13.040179)"><path
         style="color:#000000;fill:url(#linearGradient35);stroke-linecap:round;stroke-linejoin:round;stroke-miterlimit:5;-inkscape-stroke:none"
         d="m 154.94949,-29.800549 h 13.02939 v 5.746295 h -13.02939 z"
         id="path20" /><path
         id="path21"
         style="fill:#d1d3d8;fill-opacity:1;stroke:#7a7d95;stroke-width:0.8;stroke-linecap:round;stroke-linejoin:round;stroke-miterlimit:5;stroke-dasharray:none;stroke-opacity:1"
         d="m 170.96978,-25.809138 h 6.18061 l -3.30746,-3.741773 z"
         sodipodi:nodetypes="cccc"
         transform="matrix(1,0,0,0.86674897,-13.040179,-3.178505)" /><path
         style="color:#000000;fill:url(#linearGradient38);stroke-linecap:round;stroke-linejoin:round;stroke-miterlimit:5;-inkscape-stroke:none"
         d="m 154.94922,-30 a 0.20002,0.20002 0 0 0 -0.19922,0.199219 v 5.746094 a 0.20002,0.20002 0 0 0 0.19922,0.201171 h 13.0293 a 0.20002,0.20002 0 0 0 0.20117,-0.201171 v -5.746094 A 0.20002,0.20002 0 0 0 167.97852,-30 Z m 0.20117,0.400391 h 12.62891 v 5.345703 h -12.62891 z"
         id="path22" /></g><g
       id="g25"
       transform="matrix(1.4432807,0,0,1,-42.422831,0)"><path
         style="color:#000000;fill:url(#linearGradient39);stroke-linecap:round;stroke-linejoin:round;stroke-miterlimit:5;-inkscape-stroke:none"
         d="m 154.94949,-29.800549 h 13.02939 v 5.746295 h -13.02939 z"
         id="path23" /><path
         id="path24"
         style="display:inline;fill:#d1d3d8;fill-opacity:1;stroke:#7a7d95;stroke-width:0.6;stroke-linecap:round;stroke-linejoin:round;stroke-miterlimit:5;stroke-dasharray:none;stroke-opacity:1"
         d="m 188.7526,-24.977208 1.72434,-1.700556 1.41847,1.702531 1.36465,-0.01696 0.0357,-0.890508 -1.44462,-1.406509 -0.0209,-0.329911 1.47217,-1.656095 -5.3e-4,-0.72247 -1.18933,0.03405 -1.67094,1.607143 -1.80594,-1.603371 -1.18281,0.0042 0.006,0.829298 1.51481,1.504836 -0.004,0.30903 -1.47786,1.3814 -0.008,1.006498 z"
         sodipodi:nodetypes="ccccccccccccccccccc"
         transform="matrix(0.69286592,0,0,0.86674897,29.393334,-3.178505)" /><path
         style="color:#000000;fill:url(#linearGradient40);stroke-linecap:round;stroke-linejoin:round;stroke-miterlimit:5;-inkscape-stroke:none"
         d="m 154.94922,-30 a 0.20002,0.20002 0 0 0 -0.19922,0.199219 v 5.746094 a 0.20002,0.20002 0 0 0 0.19922,0.201171 h 13.0293 a 0.20002,0.20002 0 0 0 0.20117,-0.201171 v -5.746094 A 0.20002,0.20002 0 0 0 167.97852,-30 Z m 0.20117,0.400391 h 12.62891 v 5.345703 h -12.62891 z"
         id="path25" /></g></g><g
     id="g27"
     transform="matrix(0.99780999,0,0,1,-0.02989453,0)"><path
       style="color:#000000;fill:url(#linearGradient41);stroke-linecap:round;stroke-linejoin:round;stroke-miterlimit:5;-inkscape-stroke:none"
       d="M 66.642008,-20.847023 H 199.51985 V 67.622346 H 66.642008 Z"
       id="path26"
       sodipodi:nodetypes="ccccc" /><path
       style="color:#000000;fill:#2c3848;stroke-linecap:round;stroke-linejoin:round;stroke-miterlimit:5;-inkscape-stroke:none"
       d="m 66.641279,-21.246094 c -0.219686,8.78e-4 -0.39756,0.178751 -0.398438,0.398438 v 88.470772 c 8.83e-4,0.21968 0.178755,0.39755 0.398438,0.39843 H 199.51953 c 0.22045,1.9e-4 0.3995,-0.17799 0.40039,-0.39843 v -88.470772 c -8.8e-4,-0.220447 -0.17994,-0.398633 -0.40039,-0.398438 z m 0.40039,0.798828 H 199.11914 V 67.222726 H 67.041669 Z"
       id="path27"
       sodipodi:nodetypes="cccccccccccccc" /></g></g><g
   id="g31"
   transform="matrix(0.78074292,0,0,0.78074292,144.57025,149.66786)"><path
     id="path28"
     style="fill:#063eab;stroke-width:0.363519;stroke-linecap:round;stroke-linejoin:round;stroke-miterlimit:2.1"
     d="m -84.91848,-52.697243 h 19.139168 v 19.139168 H -84.91848 Z" /><path
     id="path29"
     style="fill:#063eab;stroke-width:0.363519;stroke-linecap:round;stroke-linejoin:round;stroke-miterlimit:2.1"
     d="m -44.834563,8.3314229 h 19.139168 V 27.470591 h -19.139168 z" /><path
     id="path30"
     style="fill:#063eab;stroke-width:0.363519;stroke-linecap:round;stroke-linejoin:round;stroke-miterlimit:2.1"
     d="m -36.16777,-34.641425 h 19.139168 v 19.139168 H -36.16777 Z" /><path
     id="path31"
     style="fill:#063eab;stroke-width:0.363519;stroke-linecap:round;stroke-linejoin:round;stroke-miterlimit:2.1"
     d="M 9.6940085,-53.05836 H 28.833176 v 19.139168 H 9.6940085 Z" /><g
     id="rect1"
     style="display:inline"
     transform="matrix(0.72962537,0,0,0.72962537,-47.779719,-52.669333)"><g
       id="g8"
       style="display:inline"><path
         id="path1"
         style="color:#000000;display:inline;fill:#000000;fill-opacity:0.192575;stroke-linecap:round;stroke-linejoin:round;stroke-miterlimit:2.5;-inkscape-stroke:none"
         d="m 45.930531,3.6989991 c -0.838294,-0.062799 -1.688824,-0.053374 -2.534729,0.01912 -3.383617,0.2899782 -6.74819,1.5727408 -9.234578,3.4747233 C 24.150716,14.850463 15.350125,23.570192 7.1515016,34.222202 c -2.4027983,3.12182 -2.76677,7.23039 -1.7378784,11.285099 1.0288916,4.054709 3.4347025,8.120167 6.7339568,11.39672 l 68.94928,68.474379 -0.249597,2.87528 -71.400811,72.3222 c -1.8482803,1.87217 -2.8483339,4.81289 -3.2008382,7.70082 -0.3525044,2.88795 -0.1058752,5.7285 1.1911417,7.55665 7.4790195,10.54169 18.7204305,23.2417 31.1681245,32.88895 2.13358,1.65356 4.836878,2.2154 7.624858,1.65416 2.787981,-0.56124 5.673154,-2.20662 8.392769,-4.90823 a 0.94309432,0.94309432 0 0 0 0.0057,-0.006 l 69.623153,-70.5528 c 1.49311,-1.51303 2.3689,-1.98097 2.90835,-1.97301 0.53945,0.008 1.30985,0.50577 2.58382,1.77974 a 0.94309432,0.94309432 0 0 0 0.004,0.004 l 73.77741,72.92785 c 2.32786,2.30107 5.54115,3.4045 8.65632,3.46077 3.11517,0.0563 6.18108,-0.923 8.21449,-2.99413 l 27.04899,-27.55077 c 1.76767,-1.80046 2.99156,-4.85817 3.32435,-8.11113 0.33279,-3.25296 -0.27015,-6.76145 -2.61328,-9.18549 l -72.99038,-75.5096 a 0.94309432,0.94309432 0 0 0 -0.0119,-0.0119 c -0.95142,-0.95142 -1.32644,-1.58349 -1.38855,-1.90996 -0.0615,-0.32332 0.0301,-0.59605 0.5333,-1.23042 l 72.04315,-72.879277 c 2.05407,-2.077982 3.36483,-5.47802 3.79667,-8.898165 0.43184,-3.420146 0.004,-6.926918 -2.06448,-9.089885 L 222.7611,7.2750082 c -2.61212,-2.7309795 -6.38733,-3.7849815 -10.08001,-3.5646403 -3.69267,0.2203412 -7.358,1.6933697 -9.90069,4.1956096 L 130.38224,79.153826 c -0.89459,0.880356 -1.5605,1.160843 -2.06654,1.167887 -0.50603,0.007 -1.04382,-0.241661 -1.73065,-0.925525 C 126.57805,79.389088 74.579411,27.026314 52.696527,6.4605877 50.85083,4.7259859 48.445415,3.8873973 45.930531,3.6989991 Z"
         inkscape:label="shadow" /><path
         id="path3-2"
         style="color:#000000;display:inline;fill:#000000;fill-opacity:0.192575;stroke-linecap:round;stroke-linejoin:round;stroke-miterlimit:2.5;-inkscape-stroke:none"
         d="M 48.047199,3.1698324 C 47.208905,3.1070334 46.358375,3.1164584 45.51247,3.1889524 42.128853,3.4789306 38.76428,4.7616932 36.277892,6.6636757 26.267384,14.321296 17.466793,23.041025 9.2681684,33.693035 c -2.4027983,3.12182 -2.76677,7.23039 -1.7378784,11.285099 1.0288916,4.054709 3.434703,8.120167 6.733958,11.39672 l 68.94928,68.474376 -0.249597,2.87528 -71.400812,72.3222 c -1.8482805,1.87217 -2.8483341,4.81289 -3.2008384,7.70082 -0.3525044,2.88795 -0.1058752,5.7285 1.1911417,7.55665 7.4790207,10.54169 18.7204317,23.2417 31.1681257,32.88895 2.13358,1.65356 4.836878,2.2154 7.624858,1.65416 2.787981,-0.56124 5.673154,-2.20662 8.392769,-4.90823 a 0.94309432,0.94309432 0 0 0 0.0057,-0.006 l 69.623165,-70.5528 c 1.49311,-1.51303 2.3689,-1.98097 2.90835,-1.97301 0.53945,0.008 1.30985,0.50577 2.58382,1.77974 a 0.94309432,0.94309432 0 0 0 0.004,0.004 l 73.77741,72.92785 c 2.32786,2.30107 5.54115,3.4045 8.65632,3.46077 3.11517,0.0563 6.18108,-0.923 8.21449,-2.99413 l 27.04899,-27.55077 c 1.76767,-1.80046 2.99156,-4.85817 3.32435,-8.11113 0.33279,-3.25296 -0.27015,-6.76145 -2.61328,-9.18549 l -72.99038,-75.5096 a 0.94309432,0.94309432 0 0 0 -0.0119,-0.0119 c -0.95142,-0.95142 -1.32644,-1.58349 -1.38855,-1.90996 -0.0615,-0.32332 0.0301,-0.59605 0.5333,-1.23042 l 72.04315,-72.879274 c 2.05407,-2.077982 3.36483,-5.47802 3.79667,-8.898165 0.43184,-3.420146 0.004,-6.926918 -2.06448,-9.089885 L 224.87778,6.7458415 C 222.26566,4.014862 218.49045,2.96086 214.79777,3.1812012 c -3.69267,0.2203412 -7.358,1.6933697 -9.90069,4.1956096 L 132.49892,78.624659 c -0.89459,0.880356 -1.5605,1.160843 -2.06654,1.167887 -0.50603,0.007 -1.04382,-0.241661 -1.73065,-0.925525 -0.007,-0.0071 -52.005651,-52.369874 -73.888535,-72.9356 C 52.967498,4.1968192 50.562083,3.3582306 48.047199,3.1698324 Z"
         inkscape:label="shadow" /><path
         id="path7-1"
         style="color:#000000;display:inline;fill:#000000;fill-opacity:0.192575;stroke-linecap:round;stroke-linejoin:round;stroke-miterlimit:2.5;-inkscape-stroke:none"
         d="M 43.284696,5.2864992 C 42.446402,5.2237002 41.595872,5.2331252 40.749967,5.3056192 37.36635,5.5955974 34.001777,6.87836 31.515389,8.7803425 21.504881,16.437964 12.70429,25.157693 4.5056681,35.809703 c -2.4027983,3.12182 -2.76677,7.23039 -1.7378784,11.285099 1.0288916,4.054709 3.4347027,8.120167 6.7339556,11.39672 l 68.9492797,68.474388 -0.249597,2.87528 -71.4008099,72.3222 c -1.8482799,1.87217 -2.8483335,4.81289 -3.2008378,7.70082 -0.3525044,2.88795 -0.1058752,5.7285 1.1911417,7.55665 7.479018,10.54169 18.720429,23.2417 31.168123,32.88895 2.13358,1.65356 4.836878,2.2154 7.624858,1.65416 2.787981,-0.56124 5.673154,-2.20662 8.392769,-4.90823 a 0.94309432,0.94309432 0 0 0 0.0057,-0.006 l 69.623138,-70.5528 c 1.49311,-1.51303 2.3689,-1.98097 2.90835,-1.97301 0.53945,0.008 1.30985,0.50577 2.58382,1.77974 a 0.94309432,0.94309432 0 0 0 0.004,0.004 l 73.77741,72.92785 c 2.32786,2.30107 5.54115,3.4045 8.65632,3.46077 3.11517,0.0563 6.18108,-0.923 8.21449,-2.99413 l 27.04899,-27.55077 c 1.76767,-1.80046 2.99156,-4.85817 3.32435,-8.11113 0.33279,-3.25296 -0.27015,-6.76145 -2.61328,-9.18549 l -72.99038,-75.5096 a 0.94309432,0.94309432 0 0 0 -0.0119,-0.0119 c -0.95142,-0.95142 -1.32644,-1.58349 -1.38855,-1.90996 -0.0615,-0.32332 0.0301,-0.59605 0.5333,-1.23042 l 72.04315,-72.879286 c 2.05407,-2.077982 3.36483,-5.47802 3.79667,-8.898165 0.43184,-3.420146 0.004,-6.926918 -2.06448,-9.089885 L 220.11525,8.8625083 c -2.61212,-2.7309795 -6.38733,-3.7849815 -10.08001,-3.5646403 -3.69267,0.2203412 -7.358,1.6933697 -9.90069,4.1956096 L 127.73639,80.741327 c -0.89459,0.880356 -1.5605,1.160843 -2.06654,1.167887 -0.50603,0.007 -1.04382,-0.241661 -1.73065,-0.925525 C 123.9322,80.976589 71.933576,28.613815 50.050692,8.0480878 48.204995,6.313486 45.79958,5.4748974 43.284696,5.2864992 Z"
         inkscape:label="shadow" /><path
         id="path8-5"
         style="color:#000000;display:inline;fill:#000000;fill-opacity:0.192575;stroke-linecap:round;stroke-linejoin:round;stroke-miterlimit:2.5;-inkscape-stroke:none"
         d="m 46.988865,6.8739993 c -0.838294,-0.062799 -1.688824,-0.053374 -2.534729,0.01912 -3.383617,0.2899782 -6.74819,1.5727408 -9.234578,3.4747237 -10.010508,7.657622 -18.811099,16.377351 -27.009723,27.029361 -2.4027983,3.12182 -2.76677,7.23039 -1.7378784,11.285099 1.0288916,4.054709 3.4347027,8.120167 6.7339574,11.39672 l 68.94928,68.474397 -0.249597,2.87528 -71.400812,72.3222 c -1.8482801,1.87217 -2.8483335,4.81289 -3.2008378,7.70082 -0.3525044,2.88795 -0.1058752,5.7285 1.1911417,7.55665 7.4790201,10.54169 18.7204311,23.2417 31.1681251,32.88895 2.13358,1.65356 4.836878,2.2154 7.624858,1.65416 2.787981,-0.56124 5.673154,-2.20662 8.392769,-4.90823 a 0.94309432,0.94309432 0 0 0 0.0057,-0.006 l 69.623159,-70.5528 c 1.49311,-1.51303 2.3689,-1.98097 2.90835,-1.97301 0.53945,0.008 1.30985,0.50577 2.58382,1.77974 a 0.94309432,0.94309432 0 0 0 0.004,0.004 l 73.77741,72.92785 c 2.32786,2.30107 5.54115,3.4045 8.65632,3.46077 3.11517,0.0563 6.18108,-0.923 8.21449,-2.99413 l 27.04899,-27.55077 c 1.76767,-1.80046 2.99156,-4.85817 3.32435,-8.11113 0.33279,-3.25296 -0.27015,-6.76145 -2.61328,-9.18549 l -72.99038,-75.5096 a 0.94309432,0.94309432 0 0 0 -0.0119,-0.0119 c -0.95142,-0.95142 -1.32644,-1.58349 -1.38855,-1.90996 -0.0615,-0.32332 0.0301,-0.59605 0.5333,-1.23042 l 72.04315,-72.879295 c 2.05407,-2.077982 3.36483,-5.47802 3.79667,-8.898165 0.43184,-3.420146 0.004,-6.926918 -2.06448,-9.089885 L 223.81944,10.450008 c -2.61212,-2.7309791 -6.38733,-3.7849811 -10.08001,-3.5646399 -3.69267,0.2203412 -7.358,1.6933697 -9.90069,4.1956099 l -72.39816,71.24785 c -0.89459,0.880356 -1.5605,1.160843 -2.06654,1.167887 -0.50603,0.007 -1.04382,-0.241661 -1.73065,-0.925525 C 127.63639,82.56409 75.637745,30.201316 53.754861,9.6355883 51.909164,7.9009861 49.503749,7.0623975 46.988865,6.8739993 Z"
         inkscape:label="shadow" /><path
         id="path9-8"
         style="color:#000000;display:inline;fill:#000000;fill-opacity:0.192575;stroke-linecap:round;stroke-linejoin:round;stroke-miterlimit:2.5;-inkscape-stroke:none"
         d="m 49.6347,7.403166 c -0.838294,-0.062799 -1.688824,-0.053374 -2.534729,0.01912 -3.383617,0.2899782 -6.74819,1.5727408 -9.234578,3.474724 -10.010508,7.657622 -18.811099,16.377351 -27.009724,27.029361 -2.4027988,3.12182 -2.7667705,7.23039 -1.7378789,11.285099 1.0288919,4.054709 3.4347039,8.120167 6.7339589,11.39672 l 68.94928,68.4744 -0.249597,2.87528 -71.400812,72.3222 c -1.848281,1.87217 -2.848335,4.81289 -3.2008397,7.70082 -0.352504,2.88795 -0.105875,5.7285 1.1911427,7.55665 7.479021,10.54169 18.720432,23.2417 31.168126,32.88895 2.13358,1.65356 4.836878,2.2154 7.624858,1.65416 2.787981,-0.56124 5.673154,-2.20662 8.392769,-4.90823 a 0.94309432,0.94309432 0 0 0 0.0057,-0.006 l 69.623174,-70.5528 c 1.49311,-1.51303 2.3689,-1.98097 2.90835,-1.97301 0.53945,0.008 1.30985,0.50577 2.58382,1.77974 a 0.94309432,0.94309432 0 0 0 0.004,0.004 l 73.77741,72.92785 c 2.32786,2.30107 5.54115,3.4045 8.65632,3.46077 3.11517,0.0563 6.18108,-0.923 8.21449,-2.99413 l 27.04899,-27.55077 c 1.76767,-1.80046 2.99156,-4.85817 3.32435,-8.11113 0.33279,-3.25296 -0.27015,-6.76145 -2.61328,-9.18549 l -72.99038,-75.5096 a 0.94309432,0.94309432 0 0 0 -0.0119,-0.0119 c -0.95142,-0.95142 -1.32644,-1.58349 -1.38855,-1.90996 -0.0615,-0.32332 0.0301,-0.59605 0.5333,-1.23042 l 72.04315,-72.879298 c 2.05407,-2.077982 3.36483,-5.47802 3.79667,-8.898165 0.43184,-3.420146 0.004,-6.926918 -2.06448,-9.089885 L 226.46529,10.979175 c -2.61212,-2.7309794 -6.38733,-3.7849814 -10.08001,-3.5646402 -3.69267,0.2203412 -7.358,1.6933697 -9.90069,4.1956102 l -72.39816,71.24785 c -0.89459,0.880356 -1.5605,1.160843 -2.06654,1.167887 -0.50603,0.007 -1.04382,-0.241661 -1.73065,-0.925525 -0.007,-0.0071 -52.00566,-52.369874 -73.888544,-72.935602 C 54.554999,8.4301528 52.149584,7.5915642 49.6347,7.403166 Z"
         inkscape:label="shadow" /></g><path
       style="color:#000000;display:inline;fill:url(#linearGradient2-6);stroke-linecap:round;stroke-linejoin:round;stroke-miterlimit:2.5;-inkscape-stroke:none"
       d="M 10.166934,54.647266 C 3.7987158,48.322865 0.8792173,38.892785 5.2536154,33.209374 13.405073,22.618642 22.141284,13.964213 32.089383,6.3543333 36.728019,2.8059712 44.987474,1.4084672 49.404941,5.5600417 71.250459,26.09065 123.27406,78.476015 123.27406,78.476015 c 1.57455,1.567754 3.14043,1.712932 5.12319,-0.238286 L 200.79693,6.9897698 c 4.6965,-4.6217842 13.87429,-5.630045 18.63626,-0.6513977 L 244.74611,32.80306 c 3.48331,3.641807 1.92045,12.986927 -1.72214,16.671924 l -72.10406,72.943506 c -1.1709,1.46879 -1.07531,2.40946 0.9216,4.40637 l 72.99081,75.51113 c 4.15676,4.30029 2.35307,12.8633 -0.70718,15.98032 l -27.04852,27.5503 c -3.60013,3.66691 -11.28644,3.7234 -15.53472,-0.47599 L 127.76419,172.4619 c -2.61661,-2.6166 -3.74036,-2.93199 -6.82916,0.19799 l -69.623789,70.55222 c -5.236849,5.20218 -10.941338,6.14743 -14.773824,3.17717 C 24.189475,236.81934 12.987609,224.16887 5.5600424,213.6997 3.4940368,210.78766 4.2580099,202.90755 7.4726721,199.65134 l 71.6387769,-72.56467 0.317717,-3.65375 z"
       id="path4-4" /><path
       style="color:#000000;display:inline;fill:url(#linearGradient7);fill-opacity:0.584687;stroke-linecap:round;stroke-linejoin:round;stroke-miterlimit:2.5;-inkscape-stroke:none"
       d="M 10.166934,54.647266 C 3.7987158,48.322865 0.8792173,38.892785 5.2536154,33.209374 13.405073,22.618642 22.141284,13.964213 32.089383,6.3543333 36.728019,2.8059712 44.987474,1.4084672 49.404941,5.5600417 71.250459,26.09065 123.27406,78.476015 123.27406,78.476015 c 1.57455,1.567754 3.14043,1.712932 5.12319,-0.238286 L 200.79693,6.9897698 c 4.6965,-4.6217842 13.87429,-5.630045 18.63626,-0.6513977 L 244.74611,32.80306 c 3.48331,3.641807 1.91114,12.977749 -1.72214,16.671924 l -50.08742,50.926866 c -40.29164,-2.497193 -77.38061,8.27381 -113.507384,23.03107 z"
       id="path6-7"
       sodipodi:nodetypes="sssscscsssccs" /><path
       style="color:#000000;display:inline;fill:url(#linearGradient4-2);stroke-linecap:round;stroke-linejoin:round;stroke-miterlimit:2.5;-inkscape-stroke:none"
       d="m 210.03516,2.1230469 c -3.69268,0.2203414 -7.3577,1.6930701 -9.90039,4.1953125 L 127.73633,77.566406 c -0.89459,0.880357 -1.56037,1.160925 -2.06641,1.167969 -0.50603,0.007 -1.04364,-0.241917 -1.73047,-0.925781 C 123.93239,77.801479 71.933687,25.438793 50.050781,4.8730469 47.58985,2.5602422 44.133621,1.8408809 40.75,2.1308594 37.366379,2.4208379 34.002015,3.7034843 31.515625,5.6054687 21.505107,13.263096 12.704489,21.982746 4.5058594,32.634766 2.1030587,35.75659 1.7386855,39.865209 2.7675781,43.919922 c 1.0288926,4.054713 3.4351183,8.119928 6.734375,11.396484 l 68.9492189,68.474614 -0.25,2.875 -71.4003908,72.32226 c -1.8482821,1.87217 -2.8486671,4.81323 -3.2011718,7.70117 -0.3525047,2.88795 -0.105612,5.72849 1.1914062,7.55664 7.4790254,10.5417 18.7202614,23.24142 31.1679684,32.88868 2.133582,1.65357 4.837017,2.21553 7.625,1.65429 2.787984,-0.56124 5.67296,-2.20659 8.392578,-4.9082 a 0.94309432,0.94309432 0 0 0 0.0059,-0.006 l 69.623048,-70.55273 c 1.49311,-1.51303 2.36875,-1.98062 2.9082,-1.97266 0.53945,0.008 1.31002,0.50533 2.58399,1.7793 a 0.94309432,0.94309432 0 0 0 0.004,0.004 l 73.77735,72.92774 c 2.32786,2.30107 5.54108,3.40466 8.65625,3.46093 3.11517,0.0563 6.18143,-0.92301 8.21484,-2.99414 l 27.04883,-27.55078 c 1.76767,-1.80046 2.99143,-4.85836 3.32422,-8.11133 0.33279,-3.25296 -0.27015,-6.7615 -2.61328,-9.18554 l -72.99024,-75.50977 a 0.94309432,0.94309432 0 0 0 -0.0117,-0.0117 c -0.95142,-0.95142 -1.32656,-1.58368 -1.38867,-1.91015 -0.0615,-0.32332 0.03,-0.5961 0.5332,-1.23047 l 72.04297,-72.878908 c 2.05407,-2.077984 3.36504,-5.478289 3.79688,-8.898438 0.43184,-3.420149 0.004,-6.926874 -2.06446,-9.089843 L 220.11523,5.6875 C 217.50311,2.9565177 213.72784,1.9027054 210.03516,2.1230469 Z m 0.11132,1.8828125 c 3.26083,-0.1945728 6.45563,0.736715 8.60547,2.984375 l 25.3125,26.4648436 c 1.41448,1.478834 1.94605,4.464723 1.55664,7.548828 -0.38941,3.084106 -1.67906,6.201584 -3.26757,7.808594 L 170.25,121.75586 a 0.94309432,0.94309432 0 0 0 -0.0684,0.0742 c -0.65441,0.8209 -1.10821,1.75924 -0.91602,2.76953 0.1922,1.01029 0.86272,1.84709 1.90821,2.89258 l 72.98047,75.5 c 1.81362,1.87624 2.38672,4.79877 2.09179,7.68164 -0.29492,2.88286 -1.50039,5.66587 -2.79297,6.98242 l -27.04882,27.54883 c -1.56672,1.59578 -4.14391,2.47828 -6.83399,2.42969 -2.69008,-0.0486 -5.44482,-1.01575 -7.36523,-2.91407 l -73.77344,-72.92578 -0.004,-0.004 c -1.34064,-1.34036 -2.43952,-2.30677 -3.88671,-2.32813 -1.44878,-0.0214 -2.68167,0.9182 -4.27735,2.53516 l -69.623045,70.55078 c -2.51519,2.49659 -5.100092,3.92361 -7.429688,4.39258 -2.331589,0.46936 -4.396802,0.0198 -6.095703,-1.29688 -12.248152,-9.4926 -23.409063,-22.09362 -30.7851559,-32.49023 -0.7689853,-1.08389 -1.1740672,-3.64217 -0.8574219,-6.23633 0.3166454,-2.59417 1.3054982,-5.21948 2.6718751,-6.60352 L 79.783203,127.75 a 0.94309432,0.94309432 0 0 0 0.267578,-0.58203 l 0.31836,-3.6543 a 0.94309432,0.94309432 0 0 0 -0.275391,-0.75 L 10.832031,53.978516 C 7.7630762,50.930677 5.5250128,47.11735 4.5957031,43.455078 3.6663934,39.792806 4.028407,36.346737 6,33.785156 14.104269,23.255733 22.776449,14.665632 32.662109,7.1035156 34.81435,5.4571415 37.90003,4.2677355 40.910156,4.0097656 43.920283,3.7517958 46.803234,4.4092812 48.759766,6.2480469 70.566365,26.742079 122.60547,79.140625 122.60547,79.140625 a 0.94309432,0.94309432 0 0 0 0.004,0.0039 c 0.88772,0.883889 1.9197,1.490843 3.08593,1.47461 1.16623,-0.01623 2.27511,-0.638126 3.36328,-1.708985 l 72.4003,-71.2480406 c 2.15381,-2.1195373 5.42668,-3.4616773 8.6875,-3.65625 z"
       id="path5-4" /></g></g></svg>
